<?xml version="1.0" standalone="no"?>
<!DOCTYPE svg PUBLIC "-//W3C//DTD SVG 20010904//EN"
 "http://www.w3.org/TR/2001/REC-SVG-20010904/DTD/svg10.dtd">
<svg version="1.0" xmlns="http://www.w3.org/2000/svg"
 width="260.000000pt" height="260.000000pt" viewBox="0 0 260.000000 260.000000"
 preserveAspectRatio="xMidYMid meet">
<metadata>
Created by potrace 1.11, written by Peter Selinger 2001-2013
</metadata>
<g transform="translate(0.000000,260.000000) scale(0.100000,-0.100000)"
fill="#000000" stroke="none">
<path d="M1105 2590 c-22 -5 -56 -11 -75 -14 -19 -3 -54 -12 -77 -20 -22 -8
-44 -12 -47 -9 -3 4 -6 1 -6 -5 0 -6 -7 -9 -15 -6 -8 4 -15 2 -15 -3 0 -5 -10
-9 -22 -10 -11 -1 -24 -6 -27 -10 -3 -4 -12 -9 -19 -11 -28 -6 -158 -74 -216
-114 -106 -71 -217 -171 -278 -249 -14 -19 -36 -45 -47 -58 -12 -13 -21 -27
-21 -31 0 -3 -8 -15 -18 -26 -44 -48 -180 -353 -164 -368 3 -3 0 -6 -5 -6 -6
0 -10 -8 -8 -17 1 -10 -1 -22 -5 -28 -5 -5 -9 -13 -9 -17 -1 -5 -1 -9 -2 -10
0 -2 -2 -16 -4 -33 -2 -16 -8 -60 -13 -97 -4 -37 -7 -117 -6 -180 2 -114 8
-160 30 -268 4 -19 8 -38 8 -42 1 -3 4 -10 8 -14 5 -4 8 -15 8 -25 0 -10 6
-33 14 -51 8 -18 22 -53 32 -78 10 -25 21 -47 24 -50 3 -3 6 -11 8 -19 5 -24
78 -144 129 -212 55 -74 170 -191 228 -234 22 -17 42 -32 45 -35 14 -14 70
-50 79 -50 5 0 11 -3 13 -8 8 -19 243 -125 301 -136 12 -3 24 -5 27 -6 3 -2 8
-2 13 -1 4 0 7 -2 7 -7 0 -4 12 -8 28 -9 15 -1 52 -7 82 -12 72 -13 454 -8
472 6 7 6 23 9 36 8 12 -1 22 1 22 5 0 4 6 7 13 8 6 0 19 3 27 5 8 2 29 7 45
12 17 4 35 11 40 15 6 4 37 17 70 30 74 30 165 81 247 140 80 57 234 210 278
275 19 28 36 52 40 55 20 16 122 213 135 263 2 4 4 9 5 12 1 3 3 8 4 13 1 4 4
12 7 17 8 12 22 73 18 77 -1 2 3 13 10 26 7 12 14 37 16 55 2 18 8 55 13 84
11 67 7 370 -5 403 -6 14 -9 35 -8 47 1 12 -5 25 -12 28 -8 2 -11 10 -8 15 17
28 -126 371 -175 420 -3 3 -25 32 -50 64 -25 33 -72 87 -105 121 -66 66 -198
175 -214 175 -5 0 -11 3 -13 8 -6 13 -186 108 -223 118 -5 1 -36 12 -69 23
-32 11 -62 19 -66 16 -5 -3 -10 -1 -12 5 -1 5 -19 12 -38 14 -19 3 -46 8 -60
12 -38 9 -380 13 -425 4z m285 -334 c36 -3 76 -8 90 -11 78 -16 96 -19 103
-17 4 1 7 -2 7 -6 0 -4 21 -14 48 -22 52 -15 155 -67 218 -111 107 -73 238
-222 294 -334 14 -28 28 -51 33 -53 4 -2 7 -13 7 -23 0 -11 7 -33 15 -48 8
-16 11 -31 8 -35 -4 -3 -1 -6 6 -6 8 0 11 -8 8 -20 -3 -11 -2 -20 2 -20 9 0
11 -9 14 -62 1 -21 5 -38 8 -38 6 0 10 -58 12 -145 1 -65 -15 -194 -30 -240
-4 -11 -7 -22 -8 -25 -1 -13 -39 -110 -58 -150 -58 -122 -176 -266 -285 -347
-20 -15 -39 -30 -42 -33 -20 -23 -243 -121 -246 -109 0 2 -7 -1 -15 -8 -12
-10 -56 -20 -109 -27 -9 -1 -20 -4 -25 -7 -13 -8 -262 -3 -295 5 -14 3 -49 11
-78 18 -29 6 -55 15 -58 20 -3 4 -12 8 -19 8 -24 0 -126 50 -200 99 -86 56
-208 176 -261 256 -21 33 -42 61 -46 63 -5 2 -8 8 -8 13 0 8 -41 104 -61 141
-5 10 -9 27 -9 37 0 11 -4 22 -8 25 -4 2 -9 21 -10 42 -2 20 -6 42 -10 48 -19
31 -18 266 2 361 3 11 5 21 6 23 2 1 3 10 5 20 1 9 5 26 9 37 4 11 12 34 18
50 6 17 21 54 34 83 13 29 24 57 24 62 0 6 5 10 10 10 6 0 10 7 10 15 0 8 5
15 10 15 6 0 10 6 10 13 1 33 175 212 269 276 65 44 190 107 204 103 4 -1 21
5 37 13 17 9 30 13 30 11 0 -3 12 -1 28 5 28 12 36 13 142 24 36 4 67 9 68 10
2 2 9 2 15 0 7 -2 41 -6 77 -9z"/>
<path d="M1990 1826 c-8 -8 -29 -23 -47 -33 -183 -105 -275 -173 -233 -173 12
0 50 -71 67 -125 50 -159 -37 -402 -205 -570 -118 -119 -278 -203 -404 -213
-32 -2 -58 -9 -58 -14 0 -5 5 -6 10 -3 6 3 10 2 10 -4 0 -9 92 -7 155 3 116
21 265 87 357 161 150 118 244 311 252 515 l1 35 70 2 c39 2 108 4 155 5 l85
3 0 43 c1 24 -3 46 -7 48 -4 3 -8 16 -8 30 0 13 -4 32 -9 42 -5 9 -26 52 -46
95 -41 85 -99 167 -118 167 -7 0 -19 -6 -27 -14z"/>
<path d="M1936 1360 c-2 -3 -4 -21 -4 -40 -1 -19 -4 -45 -7 -57 -3 -13 -7 -31
-9 -42 -6 -28 -58 -153 -68 -166 -4 -5 -21 -30 -37 -54 -44 -67 -138 -158
-221 -212 -41 -27 -80 -49 -87 -49 -7 0 -13 -5 -13 -10 0 -6 -3 -9 -7 -8 -5 0
-26 -7 -48 -17 -22 -9 -44 -18 -50 -19 -5 -1 -19 -5 -30 -9 -67 -22 -301 -35
-289 -16 4 7 0 9 -13 5 -10 -3 -41 -1 -69 4 -27 6 -56 12 -64 14 -18 4 -47 14
-80 29 -14 6 -27 11 -30 12 -14 3 -76 39 -88 51 -7 8 -19 14 -25 14 -26 -1 93
-97 158 -129 119 -57 179 -75 295 -87 108 -11 132 -10 275 10 6 1 15 4 20 7
14 8 68 23 78 21 4 -1 7 2 7 8 0 5 7 10 16 10 46 0 271 183 331 270 10 14 25
34 35 44 10 11 18 23 18 28 0 16 21 7 87 -35 100 -64 98 -64 123 -4 52 121 65
170 74 280 1 20 5 39 7 42 3 2 2 28 -1 57 l-5 53 -138 0 c-76 0 -140 -2 -141
-5z"/>
<path d="M450 1015 c0 -29 81 -184 136 -262 31 -42 81 -101 113 -130 83 -79
229 -173 268 -173 7 0 13 -5 13 -10 0 -6 3 -9 8 -8 4 1 50 -9 102 -21 137 -34
298 -32 440 4 63 17 249 98 260 114 3 4 25 21 50 38 57 40 154 133 205 198 22
28 43 52 46 55 16 15 17 41 1 47 -9 4 -45 25 -79 46 -56 35 -64 37 -78 24 -8
-9 -15 -18 -15 -20 0 -15 -148 -169 -199 -207 -19 -14 -40 -31 -47 -37 -7 -7
-15 -13 -18 -13 -4 0 -23 -11 -44 -24 -46 -29 -171 -75 -212 -78 -17 -1 -30
-7 -30 -13 0 -5 -5 -3 -10 5 -5 8 -10 10 -10 4 0 -12 -200 -15 -200 -4 0 3
-18 6 -40 7 -39 3 -134 25 -175 43 -143 59 -211 104 -310 205 -84 85 -155 179
-155 204 0 5 -4 13 -10 16 -5 3 -10 -1 -10 -10z"/>
</g>
</svg>
