<svg id="Developer" xmlns="http://www.w3.org/2000/svg" viewBox="0 0 128 128">
  <defs>
    <style>
      .cls-1 {
        fill: #fff;
      }

      .cls-2 {
        fill: #a5b9c9;
      }

      .cls-3 {
        fill: #008998;
      }
    </style>
  </defs>
  <title>Icon-Sheet</title>
  <path class="cls-1" d="M25,20.5s-4.25,0-4.25,4V57.25l-5.5,7,5,6.5.25,30s-1.5,6.25,5,6.5,75.25-.25,75.25-.25,6,.75,6.5-5.25S106.5,72,106.5,72l6.75-7.75-7-7.75L107,24.75s.93-4.25-4.75-4.25Z"/>
  <path class="cls-2" d="M13.14,65.35a2.12,2.12,0,0,1,0-2.47"/>
  <path class="cls-2" d="M85.78,22.65a1.92,1.92,0,0,1,0-3.83h5.79a1.92,1.92,0,0,1,0,3.83Z"/>
  <path class="cls-2" d="M43.72,108.91a1.92,1.92,0,1,1,0-3.83h5.11a1.92,1.92,0,1,1,0,3.83Z"/>
  <path class="cls-2" d="M107.23,49.17a1.92,1.92,0,0,1-1.91-1.92V24.13a1.48,1.48,0,0,0-1.48-1.48H98.49a1.92,1.92,0,1,1,0-3.83h5.35a5.31,5.31,0,0,1,5.31,5.31V47.25A1.92,1.92,0,0,1,107.23,49.17Z"/>
  <path class="cls-2" d="M56.5,108.92a1.92,1.92,0,1,1,0-3.83h47.34a1.48,1.48,0,0,0,1.48-1.48V81.75a1.92,1.92,0,1,1,3.83,0v21.86a5.31,5.31,0,0,1-5.31,5.31Z"/>
  <path class="cls-2" d="M20.9,47.91a1.92,1.92,0,0,1-1.36-.56A1.89,1.89,0,0,1,19,46L19,24.1a5.31,5.31,0,0,1,5.31-5.29l54.68,0a2,2,0,0,1,1.35.57A1.92,1.92,0,0,1,79,22.68l-54.66,0a1.47,1.47,0,0,0-1.48,1.47l0,21.89a1.92,1.92,0,0,1-1.92,1.91Z"/>
  <path class="cls-2" d="M24.32,108.92A5.31,5.31,0,0,1,19,103.61V81.5a1.92,1.92,0,1,1,3.83,0v22.11a1.48,1.48,0,0,0,1.48,1.48h11.9a1.92,1.92,0,1,1,0,3.83Z"/>
  <path class="cls-2" d="M32.57,84.12a1.88,1.88,0,0,1-1.18-.41A101.73,101.73,0,0,1,13.3,65.23a1.94,1.94,0,0,1,0-2.23A100.05,100.05,0,0,1,28,47.28a75.73,75.73,0,0,1,16-10.84,45.49,45.49,0,0,1,20-5,42.36,42.36,0,0,1,13.19,2.2,1.92,1.92,0,0,1-.6,3.74,1.72,1.72,0,0,1-.6-.1,38.55,38.55,0,0,0-12-2c-13.45,0-25.67,8.11-33.55,14.91A101.81,101.81,0,0,0,17.36,64l-.09.12.09.13A100.29,100.29,0,0,0,33.75,80.69,1.92,1.92,0,0,1,34.47,82a2,2,0,0,1-.39,1.42A1.93,1.93,0,0,1,32.57,84.12Z"/>
  <path class="cls-2" d="M50.6,78.1a1.74,1.74,0,0,1-1.5-.86A17.67,17.67,0,0,1,68.81,51.3a1.7,1.7,0,0,1,1.06.79,1.72,1.72,0,0,1,.19,1.31,1.78,1.78,0,0,1-1.7,1.3,1.92,1.92,0,0,1-.41-.05A14.2,14.2,0,0,0,52.09,75.5a1.79,1.79,0,0,1,.18,1.32A1.73,1.73,0,0,1,50.6,78.1Z"/>
  <path class="cls-2" d="M64.4,86.07a17.63,17.63,0,0,1-8.84-2.37,1.71,1.71,0,0,1-.81-1,1.75,1.75,0,0,1,.18-1.31,1.78,1.78,0,0,1,1.53-.85,1.56,1.56,0,0,1,.83.22A14.21,14.21,0,0,0,78.6,68.4a14.48,14.48,0,0,0-.44-3.54,1.71,1.71,0,0,1,1.24-2.11,1.51,1.51,0,0,1,.42,0A1.75,1.75,0,0,1,81.5,64,17.67,17.67,0,0,1,64.4,86.07Z"/>
  <path class="cls-2" d="M76.83,60.17a1.73,1.73,0,0,1-1.35-.65,14.43,14.43,0,0,0-2.21-2.21,1.69,1.69,0,0,1-.63-1.16A1.72,1.72,0,0,1,73,54.88a1.75,1.75,0,0,1,1.36-.63,1.67,1.67,0,0,1,1.07.37,18.14,18.14,0,0,1,2.74,2.73,1.73,1.73,0,0,1-1.35,2.82Z"/>
  <path class="cls-3" d="M62.41,98a3.72,3.72,0,0,1-3.72-3.72v-.93l-.16,0a25.27,25.27,0,0,1-7.61-3.15l-.14-.08-.65.65a3.82,3.82,0,0,1-5.26,0l-2.82-2.81a3.73,3.73,0,0,1,0-5.27L42.7,82l-.08-.13a25.43,25.43,0,0,1-3.15-7.62l0-.15h-.92a3.72,3.72,0,0,1-3.72-3.72v-4a3.72,3.72,0,0,1,3.72-3.72h.92l0-.15a25.43,25.43,0,0,1,3.15-7.62l.08-.13-.65-.65a3.73,3.73,0,0,1,0-5.27l2.82-2.81a3.82,3.82,0,0,1,5.26,0l.65.65.14-.08a25.27,25.27,0,0,1,7.61-3.15l.16,0v-.93a3.72,3.72,0,0,1,3.72-3.72h4a3.73,3.73,0,0,1,3.72,3.72v.93l.15,0a25.33,25.33,0,0,1,7.62,3.15l.13.08.66-.65a3.82,3.82,0,0,1,5.26,0l2.81,2.81a3.73,3.73,0,0,1,0,5.27l-.65.65.09.13a25.43,25.43,0,0,1,3.15,7.62l0,.15h.93A3.73,3.73,0,0,1,94,66.41v4a3.73,3.73,0,0,1-3.72,3.72h-.93l0,.15a25.43,25.43,0,0,1-3.15,7.62l-.09.13.65.65a3.74,3.74,0,0,1,0,5.27l-2.82,2.81a3.82,3.82,0,0,1-5.26,0L78,90.1l-.13.08a25.22,25.22,0,0,1-7.62,3.15l-.15,0v.93A3.73,3.73,0,0,1,66.39,98ZM50.56,86.14a1.73,1.73,0,0,1,1,.32,21.89,21.89,0,0,0,9.13,3.78A1.72,1.72,0,0,1,62.14,92v2.54l4.44.07L66.65,92a1.73,1.73,0,0,1,1.45-1.71,21.89,21.89,0,0,0,9.13-3.78,1.75,1.75,0,0,1,2.22.19l1.8,1.8,3.19-3.1-1.79-1.89a1.69,1.69,0,0,1-.19-2.22,21.92,21.92,0,0,0,3.77-9.14,1.74,1.74,0,0,1,1.71-1.44h2.53l.08-.74v-3.7l-2.61-.07a1.73,1.73,0,0,1-1.71-1.44,21.86,21.86,0,0,0-3.77-9.14,1.71,1.71,0,0,1,.18-2.22l1.8-1.8-3.09-3.19-1.89,1.8a1.75,1.75,0,0,1-1.24.5,1.69,1.69,0,0,1-1-.31,21.88,21.88,0,0,0-9.14-3.78,1.73,1.73,0,0,1-1.44-1.71V42.32l-4.44-.07-.07,2.61a1.72,1.72,0,0,1-1.44,1.71,21.84,21.84,0,0,0-9.13,3.78,1.77,1.77,0,0,1-2.23-.19l-1.8-1.8-3.19,3.09,1.8,1.89a1.73,1.73,0,0,1,.19,2.23,21.93,21.93,0,0,0-3.78,9.14,1.73,1.73,0,0,1-1.7,1.44H38.31l-.07,4.44,2.61.07a1.72,1.72,0,0,1,1.71,1.44,21.84,21.84,0,0,0,3.78,9.13,1.73,1.73,0,0,1-.19,2.23l-1.79,1.8,3.09,3.19,1.89-1.8A1.71,1.71,0,0,1,50.56,86.14Z"/>
  <path class="cls-3" d="M64.4,78.51A10.11,10.11,0,1,1,74.5,68.4,10.12,10.12,0,0,1,64.4,78.51Zm0-16.91a6.8,6.8,0,1,0,6.8,6.8A6.81,6.81,0,0,0,64.4,61.6Z"/>
  <path class="cls-2" d="M95.6,84.13a1.92,1.92,0,0,1-1.19-3.43c1-.78,2-1.64,3.17-2.61A100.42,100.42,0,0,0,110.8,64.24l.1-.12-.1-.13c-3-3.88-14-17.08-28.42-24.12a1.92,1.92,0,0,1-.88-2.56,1.91,1.91,0,0,1,1.1-1,1.84,1.84,0,0,1,1.46.09C102,45.2,114.34,62.27,114.86,63a1.91,1.91,0,0,1,0,2.23A99.69,99.69,0,0,1,100.14,81c-1.16,1-2.29,1.93-3.36,2.77A2,2,0,0,1,95.6,84.13Z"/>
</svg>
