<svg id="Developer" xmlns="http://www.w3.org/2000/svg" viewBox="0 0 128 128">
  <defs>
    <style>
      .cls-1 {
        fill: #fff;
      }

      .cls-2 {
        fill: #a5b9c9;
      }

      .cls-3 {
        fill: #008998;
      }
    </style>
  </defs>
  <title>Icon-Sheet</title>
  <path class="cls-1" d="M5.83,87.67l.34,25.5s-.5,5.83,5.66,5.66,33.67-.16,33.67-.16,4.83-.17,4.83-5.67V91.17s.34-4.5-6-4.5H26.5l-4.67-6-11.5-.34S5.83,79.83,5.83,87.67Z"/>
  <path class="cls-1" d="M77.67,87.67l.33,25.5s-.5,5.83,5.67,5.66,33.66-.16,33.66-.16,4.84-.17,4.84-5.67V91.17s.33-4.5-6-4.5H98.33l-4.66-6-11.5-.34S77.67,79.83,77.67,87.67Z"/>
  <path class="cls-1" d="M64.83,9.67S51.5,8,42.17,21.5c0,0-22-2.83-24.84,20.83,0,0-.33,17.5,21.34,19.84L93,61.67s17.5-3,17.5-20.34c0,0-1.17-21-24.33-19.5C86.17,21.83,79.13,9.67,64.83,9.67Z"/>
  <path class="cls-2" d="M118.07,84.37H98.92L96.65,81a5.91,5.91,0,0,0-4.93-2.64H82.57L68.56,64H90.2a22,22,0,0,0,0-44.1,21.72,21.72,0,0,0-3,.21,28,28,0,0,0-46.41,0,21.83,21.83,0,0,0-3-.21,22,22,0,0,0,0,44.1H59.43l-20,20.41H27.15L24.88,81A5.91,5.91,0,0,0,20,78.32H10a5.93,5.93,0,0,0-5.92,5.93v30.23A5.93,5.93,0,0,0,10,120.41H46.3a5.93,5.93,0,0,0,5.92-5.93V90.29a5.93,5.93,0,0,0-5.92-5.92H44.81L64,64.74l14.35,14.7a5.9,5.9,0,0,0-2.48,4.81v30.23a5.94,5.94,0,0,0,5.93,5.93h36.28a5.93,5.93,0,0,0,5.92-5.93V90.29A5.93,5.93,0,0,0,118.07,84.37ZM48.44,90.29v24.19a2.15,2.15,0,0,1-2.14,2.15H10a2.15,2.15,0,0,1-2.14-2.15V84.25A2.14,2.14,0,0,1,10,82.1H20a2.12,2.12,0,0,1,1.78,1l2.84,4.25a1.88,1.88,0,0,0,1.57.84H46.3A2.14,2.14,0,0,1,48.44,90.29ZM19.52,41.91A18.29,18.29,0,0,1,37.79,23.64a17.79,17.79,0,0,1,3.54.36,1.91,1.91,0,0,0,2-.87,24.26,24.26,0,0,1,41.37,0,1.89,1.89,0,0,0,2,.87,17.89,17.89,0,0,1,3.55-.36,18.27,18.27,0,0,1,0,36.54H37.79A18.28,18.28,0,0,1,19.52,41.91Zm100.69,72.57a2.15,2.15,0,0,1-2.14,2.15H81.79a2.15,2.15,0,0,1-2.15-2.15V84.25a2.15,2.15,0,0,1,2.15-2.15h9.93a2.15,2.15,0,0,1,1.79,1l2.83,4.25a1.88,1.88,0,0,0,1.57.84h20.16a2.14,2.14,0,0,1,2.14,2.14Z"/>
  <path class="cls-2" d="M64,15.83A20.11,20.11,0,0,0,57.32,17a1.89,1.89,0,1,0,1.26,3.57A16,16,0,0,1,64,19.61a16.21,16.21,0,0,1,12.65,6,1.87,1.87,0,0,0,1.47.7,1.89,1.89,0,0,0,1.46-3.08A20,20,0,0,0,64,15.83Z"/>
  <path class="cls-2" d="M37.79,27.93a14,14,0,0,0-9.33,3.56A1.89,1.89,0,0,0,31,34.31a10.19,10.19,0,0,1,6.81-2.6,1.89,1.89,0,0,0,0-3.78Z"/>
  <path class="cls-2" d="M99.83,38.52a1.88,1.88,0,0,0,1.78,1.26,2,2,0,0,0,.63-.1,1.89,1.89,0,0,0,1.15-2.41A14,14,0,0,0,90.2,27.93a1.89,1.89,0,1,0,0,3.78A10.24,10.24,0,0,1,99.83,38.52Z"/>
  <path class="cls-3" d="M25.92,110.36a2,2,0,0,1-.41,0,1.67,1.67,0,0,1-1.21-2h0l3.12-12.44a1.67,1.67,0,1,1,3.24.82L27.53,109.1a1.62,1.62,0,0,1-.75,1A1.67,1.67,0,0,1,25.92,110.36Z"/>
  <path class="cls-3" d="M20.76,110.57a1.68,1.68,0,0,1-1.45-.81l-3.88-6.51a.21.21,0,0,0,0-.06.34.34,0,0,0,0-.08l0-.07,0-.09a.14.14,0,0,0,0-.06s0-.07,0-.1,0,0,0-.06a.38.38,0,0,1,0-.1s0,0,0-.07v-.17s0,0,0-.07a.25.25,0,0,1,0-.08s0-.06,0-.08,0-.06,0-.09l0-.06a.46.46,0,0,1,0-.09l0-.07,0-.07a.59.59,0,0,1,0-.08l0,0,3.85-6.46a1.69,1.69,0,0,1,2.26-.59,1.58,1.58,0,0,1,.79,1,1.61,1.61,0,0,1-.17,1.25l-3.36,5.63,3.36,5.62a1.64,1.64,0,0,1-.62,2.26A1.69,1.69,0,0,1,20.76,110.57Z"/>
  <path class="cls-3" d="M34.41,110.36a1.67,1.67,0,0,1-.79-1,1.62,1.62,0,0,1,.18-1.25l3.35-5.62L33.8,96.85a1.61,1.61,0,0,1-.18-1.25,1.65,1.65,0,0,1,.79-1,1.69,1.69,0,0,1,2.26.59l3.86,6.46,0,0a.56.56,0,0,1,.05.08.19.19,0,0,1,0,.07s0,0,0,.07a.46.46,0,0,1,0,.09l0,.06a.29.29,0,0,1,0,.09.45.45,0,0,1,0,.08.19.19,0,0,0,0,.08v.31s0,.06,0,.1a.13.13,0,0,1,0,.06.44.44,0,0,1,0,.1.14.14,0,0,1,0,.06.32.32,0,0,1,0,.09.64.64,0,0,0,0,.07l0,.08a.21.21,0,0,1,0,.06l-3.88,6.51a1.68,1.68,0,0,1-1.44.81A1.72,1.72,0,0,1,34.41,110.36Z"/>
  <path class="cls-3" d="M98.75,110.36a1.84,1.84,0,0,1-.41,0,1.66,1.66,0,0,1-1.21-2h0l3.12-12.44a1.67,1.67,0,1,1,3.23.82l-3.12,12.43a1.67,1.67,0,0,1-.76,1A1.63,1.63,0,0,1,98.75,110.36Z"/>
  <path class="cls-3" d="M93.58,110.57a1.68,1.68,0,0,1-1.44-.81l-3.88-6.51a.21.21,0,0,1,0-.06l0-.08a.25.25,0,0,1,0-.07.16.16,0,0,1,0-.09.14.14,0,0,1,0-.06.44.44,0,0,1,0-.1.13.13,0,0,1,0-.06s0-.07,0-.1v-.31a.19.19,0,0,0,0-.08.45.45,0,0,1,0-.08.29.29,0,0,1,0-.09V102l0-.09a.14.14,0,0,1,0-.07l0-.07a.59.59,0,0,0,0-.08l0,0,3.86-6.46a1.69,1.69,0,0,1,2.26-.59,1.65,1.65,0,0,1,.79,1A1.61,1.61,0,0,1,95,96.85l-3.35,5.63L95,108.1a1.62,1.62,0,0,1,.18,1.25,1.67,1.67,0,0,1-.79,1A1.72,1.72,0,0,1,93.58,110.57Z"/>
  <path class="cls-3" d="M107.24,110.36a1.6,1.6,0,0,1-.79-1,1.57,1.57,0,0,1,.17-1.25l3.36-5.62-3.36-5.63a1.62,1.62,0,0,1,.62-2.25,1.69,1.69,0,0,1,2.26.59l3.85,6.46,0,0,0,.08,0,.07,0,.07,0,.09,0,.06s0,.06,0,.09a.28.28,0,0,0,0,.08s0,.06,0,.08,0,.05,0,.07v.17s0,0,0,.07,0,.06,0,.1a.13.13,0,0,0,0,.06s0,.06,0,.1a.14.14,0,0,0,0,.06l0,.09,0,.07,0,.08,0,.06-3.88,6.51a1.68,1.68,0,0,1-1.45.81A1.66,1.66,0,0,1,107.24,110.36Z"/>
</svg>
