<svg id="Layer_1" data-name="Layer 1" xmlns="http://www.w3.org/2000/svg" viewBox="0 0 64 64">
  <defs>
    <style>
      .cls-1 {
        fill: #d5e0eb;
      }
    </style>
  </defs>
  <title>Icon</title>
  <path class="cls-1" d="M46.29,29.63v-.55h.56L54.07,29c-.35-5.55-4.51-10.48-4.51-10.48l-8.05,5s5.13,3.81.48,12.9a19.4,19.4,0,0,1-8.32,8,20.52,20.52,0,0,1-6.94,1.94c.41.14,4.16.91,9.5-1.45A16.57,16.57,0,0,0,46.29,29.63ZM18.61,45.8a20.94,20.94,0,0,0,11.8,3.75c10.47.34,16.58-9.65,16.65-9.72l.27-.48.49.27,3.68,2.29a19.91,19.91,0,0,0,2.57-11.79l-6.87.07S47.75,40.25,35.61,46c-5.07,2.36-13.53,2-18.6-2C17.08,44,17.57,44.76,18.61,45.8Zm-7.77-8.33s3.75,14.78,18.52,16.31S51.5,42.54,51.5,42.54l-4-2.43s-6.17,10.34-17.13,10S14,43.16,10.84,37.47ZM32.21,54.75a23.18,23.18,0,1,1,23-23.17A23.14,23.14,0,0,1,32.21,54.75ZM31.93.08a31.71,31.71,0,1,0,31.5,31.7A31.61,31.61,0,0,0,31.93.08Z"/>
</svg>
