<svg id="Layer_1" data-name="Layer 1" xmlns="http://www.w3.org/2000/svg" viewBox="0 0 500 269.04">
  <defs>
    <style>
      .cls-1 {
        fill: #a5b9c9;
        opacity: 0.3;
      }

      .cls-2 {
        fill: #008998;
      }

      .cls-3, .cls-4 {
        fill: none;
        stroke: #008998;
        stroke-linecap: round;
        stroke-linejoin: round;
        stroke-width: 4.66px;
      }

      .cls-4 {
        stroke-dasharray: 14.43 14.43;
      }

      .cls-5 {
        fill: #fff;
      }
    </style>
  </defs>
  <title>CrossPlatform</title>
  <g>
    <rect class="cls-1" x="205.7" y="248.35" width="129" height="20.69" rx="10.34" ry="10.34"/>
    <path class="cls-1" d="M320.9,227.65h-103A10.38,10.38,0,0,1,228.23,238h0a10.38,10.38,0,0,1-10.35,10.35h103A10.38,10.38,0,0,1,310.55,238h0A10.38,10.38,0,0,1,320.9,227.65Z"/>
    <rect class="cls-1" x="171.79" y="206.96" width="276.09" height="20.69" rx="10.34" ry="10.34"/>
    <path class="cls-1" d="M367.69,186.26H215.92a10.38,10.38,0,0,1,10.35,10.34h0a10.38,10.38,0,0,1-10.35,10.34H367.69a10.38,10.38,0,0,1-10.35-10.34h0A10.38,10.38,0,0,1,367.69,186.26Z"/>
    <rect class="cls-1" x="40" y="165.57" width="342.63" height="20.69" rx="10.34" ry="10.34"/>
    <path class="cls-1" d="M368,144.86H154a10.38,10.38,0,0,1,10.35,10.35h0A10.38,10.38,0,0,1,154,165.55H368a10.38,10.38,0,0,1-10.35-10.34h0A10.38,10.38,0,0,1,368,144.86Z"/>
    <rect class="cls-1" x="22.19" y="124.18" width="401.8" height="20.69" rx="10.34" ry="10.34"/>
    <path class="cls-1" d="M400.49,103.47H120.86a10.38,10.38,0,0,1,10.35,10.35h0a10.37,10.37,0,0,1-10.35,10.34H400.49a10.38,10.38,0,0,1-10.35-10.34h0A10.38,10.38,0,0,1,400.49,103.47Z"/>
    <rect class="cls-1" x="74.95" y="82.78" width="372.98" height="20.69" rx="10.34" ry="10.34"/>
    <path class="cls-1" d="M412.45,62.08H233.08a10.38,10.38,0,0,1,10.35,10.34h0a10.38,10.38,0,0,1-10.35,10.35H412.45A10.38,10.38,0,0,1,402.1,72.42h0A10.38,10.38,0,0,1,412.45,62.08Z"/>
    <rect class="cls-1" x="175.62" y="41.39" width="276.77" height="20.69" rx="10.34" ry="10.34"/>
    <rect class="cls-1" x="52.39" width="287.81" height="20.69" rx="10.34" ry="10.34"/>
    <path class="cls-1" d="M327.41,20.69H198.91A10.38,10.38,0,0,1,209.26,31h0a10.38,10.38,0,0,1-10.35,10.35h128.5A10.38,10.38,0,0,1,317.06,31h0A10.38,10.38,0,0,1,327.41,20.69Z"/>
  </g>
  <path class="cls-2" d="M204.3,192.23a7.16,7.16,0,0,1-7.18-7.18V154.36c0-13.19,11.36-18,11.75-18.29l26.91-11.23v-5.22l-.4-.26a21.67,21.67,0,0,1-8.09-13.85l-.13-.78-.79-.13c-4.31-.52-7.57-3-8.75-6.79a9.07,9.07,0,0,1,2.61-9.66l.27-.27V81.22a27.82,27.82,0,0,1,55.63,0v6.66l.26.27A9.08,9.08,0,0,1,279,97.68a10.26,10.26,0,0,1-8.75,6.79l-.78.13-.13.78a20.41,20.41,0,0,1-7.58,13.45l-.39.27v5.61l27,11.23c.52.26,11.75,5,11.75,18.29v30.69A7.17,7.17,0,0,1,293,192.1H204.3Zm84.62-51a11.79,11.79,0,0,0-1.56-.83c-.26-.13-.26-.13-6.79-2.87l-20.11-8.36-.39.52A148.38,148.38,0,0,0,250,143.24l-.13.13c-.39.52-.78,1-1,1.44-1-1.31-2.08-2.74-3.39-4.31-2.09-2.74-4.57-6.78-8-10.83l-.39-.52-20.37,8.49c-6.27,2.61-5.7,2.31-6.53,2.74a16.85,16.85,0,0,0-5.22,4.31l-.4.52a15.18,15.18,0,0,0-3,9.28v30.69a2.76,2.76,0,0,0,2.74,2.74h89.07a2.76,2.76,0,0,0,2.74-2.74v-32a15,15,0,0,0-3-8l-.4-.52A14.13,14.13,0,0,0,288.92,141.21Zm-48.7-14.93.26.26a52.94,52.94,0,0,1,3.65,5.22c1.57,2.35,3,4.44,3.92,5.49l.78.91,8.49-12V122l-1.3.52a23.13,23.13,0,0,1-7.32,1.31,21.63,21.63,0,0,1-7.18-1.18l-1.3-.39Zm-8.62-23.51c0,10.32,8.88,16.72,17.1,16.72a16.85,16.85,0,0,0,9.54-3,16.64,16.64,0,0,0,7.18-13.71V86.45l-.26-.26c-.39-.53-1.31-1.44-2.61-2.88l-2.75-3-.65.39A49.43,49.43,0,0,1,234.08,88H231.6v14.76Zm38.26-2.22,1.18-.26a5.26,5.26,0,0,0,4.31-5.09c0-2.35-1.7-4.31-4.31-5.1l-1.18-.26ZM226.11,90.23a5.54,5.54,0,0,0-4.44,5.1c0,2.35,1.7,4.31,4.31,5.09l1.18.26V90ZM248.57,58A23.43,23.43,0,0,0,225.2,81.35v4.44l1-.13c.26,0,.79-.13,1-.13h.52l.26-.39a4.14,4.14,0,0,1,2.87-1.7h2.88a43.25,43.25,0,0,0,24-7.18,4.32,4.32,0,0,1,2.09-.65,3.72,3.72,0,0,1,2.87,1.3c.91,1,2.61,2.75,2.61,2.75,2.87,3.13,4.05,4.31,4.31,5.22l.13.52.52.13.53.13,1,.13V81.35A23.44,23.44,0,0,0,248.57,58Z"/>
  <rect class="cls-2" x="229.64" y="88.08" width="38.5" height="11.11"/>
  <path class="cls-2" d="M267.39,110.83s5.75,6.75,12.75,7l-5,5s-10.5-4.25-10.5-9.5"/>
  <path class="cls-2" d="M265.91,113.46s2.06,8.63,8.18,12l-6.72,2.18s-7.43-8.55-5.05-13.23"/>
  <g>
    <path d="M96.51,32.38a2,2,0,0,0,1.27-.47h0a2,2,0,1,0-1.27.47Zm0,0"/>
    <path d="M142.43,86.87a9.6,9.6,0,0,0-.89-4.05h10.82a14,14,0,0,0,6.69-26.31c0-.5.08-1,.08-1.51a14,14,0,0,0-14-14,31.88,31.88,0,0,0-43.58-16.2,1.95,1.95,0,0,0,1.74,3.49,27.66,27.66,0,0,1,12.46-2.92A28.08,28.08,0,0,1,142,43.68a1.94,1.94,0,0,0,2,1.27,10.09,10.09,0,0,1,11.19,10,9.88,9.88,0,0,1-.25,2.22,2,2,0,0,0,1.17,2.23,10.1,10.1,0,0,1-3.8,19.47H139.51a1.86,1.86,0,0,0-.91.23l-.07-.07a9.72,9.72,0,0,0,0-15.57A9.72,9.72,0,0,0,132.69,46H100.38a9.72,9.72,0,0,0-5.83,17.51,9.72,9.72,0,0,0,0,15.57l-.16.13a1.92,1.92,0,0,0-1-.29H85.49a14.87,14.87,0,1,1,0-29.74l.87,0a1.93,1.93,0,0,0,2-1.55,27.61,27.61,0,0,1,4.9-10.94,1.95,1.95,0,0,0-3.13-2.32,31.71,31.71,0,0,0-5.21,10.9,18.77,18.77,0,0,0,.56,37.53h6.05a9.6,9.6,0,0,0-.89,4.05,9.74,9.74,0,0,0,9.73,9.73h14.21v13.19a5.84,5.84,0,0,0-3.55,3.55H68.66a2,2,0,0,0,0,3.9H111a5.84,5.84,0,1,0,7.46-7.45V96.6h14.2a9.74,9.74,0,0,0,9.74-9.73ZM94.54,55.73a5.85,5.85,0,0,1,5.84-5.84h32.31a5.84,5.84,0,1,1,0,11.68H100.38a5.85,5.85,0,0,1-5.84-5.84Zm0,15.57a5.85,5.85,0,0,1,5.84-5.84h32.31a5.84,5.84,0,0,1,0,11.68H100.38a5.85,5.85,0,0,1-5.84-5.84Zm22,45.94a2,2,0,1,1,1.95-1.95,2,2,0,0,1-1.95,1.95Zm16.15-24.53H100.38a5.84,5.84,0,1,1,0-11.68h32.31a5.84,5.84,0,1,1,0,11.68Zm0,0"/>
    <path d="M164.42,113.34h-42a2,2,0,0,0,0,3.9h42a1.95,1.95,0,1,0,0-3.9Zm0,0"/>
    <path d="M106.37,57.4h.08a2,2,0,1,0,0-3.9h-.08a2,2,0,0,0,0,3.9Zm0,0"/>
    <path d="M126.71,57.4a1.95,1.95,0,1,0-1.38-.57,2,2,0,0,0,1.38.57Zm0,0"/>
    <path d="M117,57.4a2,2,0,1,0,0-3.9,2,2,0,0,0,0,3.9Zm0,0"/>
    <path d="M106.37,73h.08a2,2,0,0,0,0-3.9h-.08a2,2,0,0,0,0,3.9Zm0,0"/>
    <path d="M126.71,73a1.95,1.95,0,1,0,0-3.89,2,2,0,0,0-1.38.56A2,2,0,0,0,126.71,73Zm0,0"/>
    <path d="M117,73a2,2,0,0,0,1.38-.57,2,2,0,0,0,0-2.76,2,2,0,0,0-1.38-.56A1.95,1.95,0,0,0,117,73Zm0,0"/>
    <path d="M106.45,84.65h-.08a1.95,1.95,0,1,0,0,3.89h.08a1.95,1.95,0,1,0,0-3.89Zm0,0"/>
    <path d="M126.71,84.65A1.94,1.94,0,0,0,125.33,88a2,2,0,0,0,3.33-1.38,1.95,1.95,0,0,0-2-1.94Zm0,0"/>
    <path d="M117,84.65A1.94,1.94,0,0,0,115.59,88a2,2,0,0,0,1.37.57,1.95,1.95,0,0,0,2-2,1.95,1.95,0,0,0-2-1.94Zm0,0"/>
  </g>
  <g>
    <path d="M361.84,32.38a2,2,0,0,0,1.27-.47h0a2,2,0,1,0-1.28.47Zm0,0"/>
    <path d="M407.76,86.87a9.6,9.6,0,0,0-.89-4.05h10.82a14,14,0,0,0,6.69-26.31,12.75,12.75,0,0,0,.09-1.51,14,14,0,0,0-14-14A31.87,31.87,0,0,0,366.9,24.8a1.95,1.95,0,0,0,1.73,3.49,27.66,27.66,0,0,1,12.46-2.92,28.08,28.08,0,0,1,26.26,18.31,2,2,0,0,0,2,1.27,10.09,10.09,0,0,1,11.19,10,9.88,9.88,0,0,1-.25,2.22,2,2,0,0,0,1.17,2.23,10.1,10.1,0,0,1-3.8,19.47H404.84a1.83,1.83,0,0,0-.9.23l-.08-.07a9.72,9.72,0,0,0,0-15.57A9.72,9.72,0,0,0,398,46H365.72a9.72,9.72,0,0,0-5.84,17.51,9.72,9.72,0,0,0,0,15.57l-.16.13a1.92,1.92,0,0,0-1-.29h-7.89a14.87,14.87,0,1,1,0-29.74l.87,0a2,2,0,0,0,2-1.55,27.6,27.6,0,0,1,4.89-10.94,1.95,1.95,0,0,0-3.13-2.32,31.71,31.71,0,0,0-5.21,10.9,18.77,18.77,0,0,0,.56,37.53h6.05a9.6,9.6,0,0,0-.89,4.05,9.74,9.74,0,0,0,9.74,9.73h14.21v13.19a5.83,5.83,0,0,0-3.56,3.55H334a2,2,0,1,0,0,3.9h42.38a5.84,5.84,0,1,0,7.45-7.45V96.6H398a9.74,9.74,0,0,0,9.73-9.73ZM359.88,55.73a5.85,5.85,0,0,1,5.84-5.84H398a5.84,5.84,0,1,1,0,11.68H365.72a5.85,5.85,0,0,1-5.84-5.84Zm0,15.57a5.85,5.85,0,0,1,5.84-5.84H398a5.84,5.84,0,1,1,0,11.68H365.72a5.85,5.85,0,0,1-5.84-5.84Zm22,45.94a2,2,0,1,1,1.95-1.95,2,2,0,0,1-1.95,1.95ZM398,92.71H365.72a5.84,5.84,0,0,1,0-11.68H398a5.84,5.84,0,1,1,0,11.68Zm0,0"/>
    <path d="M429.75,113.34h-42a2,2,0,0,0,0,3.9h42a2,2,0,0,0,0-3.9Zm0,0"/>
    <path d="M371.7,57.4h.09a2,2,0,0,0,0-3.9h-.09a2,2,0,1,0,0,3.9Zm0,0"/>
    <path d="M392,57.4a2,2,0,0,0,1.38-.57,2,2,0,0,0,0-2.76A1.95,1.95,0,1,0,392,57.4Zm0,0"/>
    <path d="M382.3,57.4a2,2,0,0,0,1.37-.57,2,2,0,0,0,0-2.76,1.94,1.94,0,0,0-2.75,0,2,2,0,0,0,0,2.76,2,2,0,0,0,1.38.57Zm0,0"/>
    <path d="M371.7,73h.09a2,2,0,0,0,0-3.9h-.09a1.95,1.95,0,1,0,0,3.9Zm0,0"/>
    <path d="M392,73a2,2,0,0,0,1.38-.57,2,2,0,0,0,0-2.76A1.95,1.95,0,1,0,392,73Zm0,0"/>
    <path d="M382.3,73a2,2,0,0,0,1.37-.57,2,2,0,0,0,0-2.76,2,2,0,0,0-2.75,0,2,2,0,0,0,0,2.76,2,2,0,0,0,1.38.57Zm0,0"/>
    <path d="M371.79,84.65h-.09a1.95,1.95,0,1,0,0,3.89h.09a1.95,1.95,0,0,0,0-3.89Zm0,0"/>
    <path d="M392,84.65A1.94,1.94,0,0,0,390.67,88a1.94,1.94,0,1,0,2.75-2.75,1.92,1.92,0,0,0-1.38-.57Zm0,0"/>
    <path d="M382.3,84.65a1.92,1.92,0,0,0-1.38.57,1.95,1.95,0,1,0,2.75,0,1.91,1.91,0,0,0-1.37-.57Zm0,0"/>
  </g>
  <g>
    <line class="cls-3" x1="381.89" y1="115.82" x2="381.89" y2="122.81"/>
    <path class="cls-4" d="M381.5,137.23c-2.25,20.49-13.79,24.23-27.58,24.23H316.11"/>
    <path class="cls-3" d="M308.89,161.47l-7,0"/>
    <g>
      <path class="cls-5" d="M369.62,116.51a12.27,12.27,0,1,1,12.27,12.27A12.28,12.28,0,0,1,369.62,116.51Z"/>
      <path class="cls-2" d="M368,116.51a13.9,13.9,0,1,0,13.9-13.9,13.92,13.92,0,0,0-13.9,13.9Zm24.54,0a10.64,10.64,0,1,1-10.64-10.64,10.65,10.65,0,0,1,10.64,10.64Z"/>
    </g>
  </g>
  <g>
    <line class="cls-3" x1="116.39" y1="115.82" x2="116.39" y2="122.81"/>
    <path class="cls-4" d="M116.79,137.23c2.25,20.49,13.79,24.23,27.57,24.23h37.82"/>
    <path class="cls-3" d="M189.39,161.47l7,0"/>
    <g>
      <path class="cls-5" d="M104.12,116.51a12.27,12.27,0,1,1,12.27,12.27A12.28,12.28,0,0,1,104.12,116.51Z"/>
      <path class="cls-2" d="M102.49,116.51a13.9,13.9,0,1,0,13.9-13.9,13.92,13.92,0,0,0-13.9,13.9Zm24.54,0a10.64,10.64,0,1,1-10.64-10.64A10.65,10.65,0,0,1,127,116.51Z"/>
    </g>
  </g>
  <g>
    <path d="M108.25,183H85.77a2.14,2.14,0,0,0-2.14,2.14v17.43a2.14,2.14,0,0,0,2.14,2.14h22.48a2.14,2.14,0,0,0,2.14-2.14V185.11A2.14,2.14,0,0,0,108.25,183Zm-2.14,17.44H87.91V187.25h18.2Z"/>
    <path d="M140.83,183H118.35a2.14,2.14,0,0,0-2.14,2.14v17.43a2.14,2.14,0,0,0,2.14,2.14h22.48a2.14,2.14,0,0,0,2.14-2.14V185.11A2.14,2.14,0,0,0,140.83,183Zm-2.14,17.44h-18.2V187.25h18.2Z"/>
    <path d="M108.25,210H85.77a2.14,2.14,0,0,0-2.14,2.14v17.44a2.14,2.14,0,0,0,2.14,2.14h22.48a2.14,2.14,0,0,0,2.14-2.14V212.18A2.14,2.14,0,0,0,108.25,210Zm-2.14,17.44H87.91V214.32h18.2Z"/>
    <path d="M140.83,210H118.35a2.14,2.14,0,0,0-2.14,2.14v17.44a2.14,2.14,0,0,0,2.14,2.14h22.48a2.14,2.14,0,0,0,2.14-2.14V212.18A2.14,2.14,0,0,0,140.83,210Zm-2.14,17.44h-18.2V214.32h18.2Z"/>
  </g>
  <path d="M397.52,202.2a16.3,16.3,0,0,1-1.57-1.65c-1.46-2-2.16-5.69-2.3-6.94a.06.06,0,0,1,0,0,12.36,12.36,0,1,0-21.85.71,16.7,16.7,0,0,1-2.2,6.27A16.3,16.3,0,0,1,368,202.2c-3.56,3.48-10.19,10-9.79,24.14a1.83,1.83,0,0,0,1.23,1.68,4.41,4.41,0,0,0,3.54-.49,7.09,7.09,0,0,0,1.86-1.49,18.12,18.12,0,0,0,1.28,4.93,11.65,11.65,0,0,0-.74,4.1c0,5.63,3.94,10.21,8.77,10.21,3.56,0,6.62-2.47,8-6a1.86,1.86,0,0,0,1,.33h.6a8.75,8.75,0,0,0,7.85,5.67c4.84,0,8.78-4.58,8.78-10.21a11.66,11.66,0,0,0-.87-4.4,18.6,18.6,0,0,0,1.16-4.63,7.22,7.22,0,0,0,1.85,1.49,4.43,4.43,0,0,0,3.55.49,1.83,1.83,0,0,0,1.23-1.68C407.71,212.15,401.08,205.68,397.52,202.2Zm-15-22.7a8.58,8.58,0,0,1,5.16,1.72A4.8,4.8,0,0,0,386,182.3c-2.13,2.07-2.14,5.75-2,7.52L382.83,191l-1.2-1.28c-.05-3.41-1-5.85-2.92-7.25a6,6,0,0,0-1.75-.89A8.62,8.62,0,0,1,382.53,179.5Zm-8,5.37a3.06,3.06,0,0,1,2,.5c1,.76,1.49,2.47,1.43,5l0,.75,4.79,5.15,5.1-5.1-.14-.92c-.19-1.22-.25-4.25.82-5.29.16-.15.57-.55,1.85-.31l0-.13a8.61,8.61,0,0,1-.65,8.55c-1.56,2.31-6.92,7.62-6.92,7.62s-5.82-5.26-7.4-7.51a1.94,1.94,0,0,0-.36-.58,8.59,8.59,0,0,1-1.21-4.38A8.7,8.7,0,0,1,374.5,184.87Zm-.33,56.74c-2.81,0-5.1-2.93-5.1-6.54a8.74,8.74,0,0,1,.07-1c0-.05,0-.1,0-.15a7.57,7.57,0,0,1,.2-1,.36.36,0,0,1,0-.11,6.87,6.87,0,0,1,.83-1.87h0a5,5,0,0,1,.43-.6l.2.18a5,5,0,0,0,3.26,1.68,5.79,5.79,0,0,0,3.28-1.36l.44-.3a7.52,7.52,0,0,1,1.44,4.52C379.28,238.68,377,241.61,374.17,241.61Zm17.44,0a4.72,4.72,0,0,1-3.85-2.26h0a8.19,8.19,0,0,1-.45-.77v0a6.89,6.89,0,0,1-.35-.83h0a8.84,8.84,0,0,1-.25-.88s0-.07,0-.1a9,9,0,0,1-.14-.93c0-.24,0-.49,0-.74a7.56,7.56,0,0,1,1.58-4.72,1.8,1.8,0,0,1,.2.18,5,5,0,0,0,3.26,1.68,5.79,5.79,0,0,0,3.28-1.36l.45-.3a1.48,1.48,0,0,1,.13.21,7.06,7.06,0,0,1,1,2,1.16,1.16,0,0,1,0,.18,6.08,6.08,0,0,1,.21.94,8.09,8.09,0,0,1,.1,1.2h0C396.71,238.68,394.42,241.61,391.61,241.61Zm8.53-25.27c-.18-.84-.33-1.37-.36-1.46a1.83,1.83,0,0,0-3.55.92c.1.43.2.85.31,1.26a25.57,25.57,0,0,1,.26,9.92c-1.59-.87-3.28.31-4.07.87a6.67,6.67,0,0,1-1.11.67,6.26,6.26,0,0,1-.85-.7c-.75-.68-2.73-2.49-4.61-.76a10.71,10.71,0,0,0-3.27,6.87,10.91,10.91,0,0,0-2.7-6.3c-1.79-2-4-.44-4.9.22a6.29,6.29,0,0,1-1.11.67,6.94,6.94,0,0,1-.85-.7c-.74-.68-2.71-2.48-4.59-.78a25.5,25.5,0,0,1,.26-10c.11-.4.21-.82.31-1.26a1.83,1.83,0,0,0-3.55-.92c0,.09-.18.61-.36,1.45-1.14,4.35-2.48,6.51-3.49,7.48.38-10.89,5.52-15.9,8.68-19a18.09,18.09,0,0,0,2-2.13,16,16,0,0,0,2.19-4.91c2.13,1.72,8.05,7.37,8.05,7.37s5.69-5.79,7.87-7.71A16.9,16.9,0,0,0,393,202.7a18.09,18.09,0,0,0,2,2.13c3.16,3.08,8.3,8.09,8.68,19C402.72,222.94,401.35,220.93,400.14,216.34Z"/>
</svg>
