<svg id="Layer_1" data-name="Layer 1" xmlns="http://www.w3.org/2000/svg" viewBox="0 0 500 269.04">
  <defs>
    <style>
      .cls-1 {
        opacity: 0.3;
      }

      .cls-2 {
        fill: #a5b9c9;
      }

      .cls-3, .cls-4, .cls-7 {
        fill: none;
        stroke: #008998;
        stroke-linecap: round;
        stroke-linejoin: round;
        stroke-width: 4.14px;
      }

      .cls-4 {
        stroke-dasharray: 11.37 11.37;
      }

      .cls-5 {
        fill: #fff;
      }

      .cls-6 {
        fill: #008998;
      }

      .cls-7 {
        stroke-dasharray: 12.43 12.43;
      }
    </style>
  </defs>
  <title>JSS-CLI</title>
  <g class="cls-1">
    <rect class="cls-2" x="134.6" width="129" height="20.69" rx="10.34" ry="10.34"/>
    <path class="cls-2" d="M249.8,41.39h-103a10.37,10.37,0,0,0,10.35-10.34h0A10.38,10.38,0,0,0,146.78,20.7h103a10.38,10.38,0,0,0-10.34,10.35h0A10.37,10.37,0,0,0,249.8,41.39Z"/>
    <rect class="cls-2" x="101.79" y="41.39" width="276.09" height="20.69" rx="10.34" ry="10.34"/>
    <path class="cls-2" d="M281.69,82.78H129.92a10.38,10.38,0,0,0,10.35-10.34h0A10.38,10.38,0,0,0,129.92,62.1H281.69a10.38,10.38,0,0,0-10.35,10.34h0A10.38,10.38,0,0,0,281.69,82.78Z"/>
    <rect class="cls-2" y="82.78" width="342.63" height="20.69" rx="10.34" ry="10.34"/>
    <path class="cls-2" d="M328,124.18H114a10.38,10.38,0,0,0,10.35-10.35h0A10.38,10.38,0,0,0,114,103.49H328a10.38,10.38,0,0,0-10.35,10.34h0A10.38,10.38,0,0,0,328,124.18Z"/>
    <rect class="cls-2" x="55.19" y="124.18" width="401.8" height="20.69" rx="10.34" ry="10.34"/>
    <path class="cls-2" d="M360.49,165.57H80.86a10.38,10.38,0,0,0,10.35-10.35h0a10.37,10.37,0,0,0-10.35-10.34H360.49a10.38,10.38,0,0,0-10.35,10.34h0A10.38,10.38,0,0,0,360.49,165.57Z"/>
    <rect class="cls-2" x="34.95" y="165.57" width="372.98" height="20.69" rx="10.34" ry="10.34"/>
    <path class="cls-2" d="M372.45,207H193.08a10.38,10.38,0,0,0,10.35-10.34h0a10.38,10.38,0,0,0-10.35-10.35H372.45a10.38,10.38,0,0,0-10.35,10.35h0A10.38,10.38,0,0,0,372.45,207Z"/>
    <rect class="cls-2" x="133.99" y="206.96" width="296.41" height="20.69" rx="10.34" ry="10.34"/>
    <rect class="cls-2" x="113.75" y="248.35" width="307.45" height="20.69" rx="10.34" ry="10.34"/>
    <path class="cls-2" d="M389.92,248.35H160.28A10.37,10.37,0,0,0,170.62,238h0a10.38,10.38,0,0,0-10.34-10.35H389.92A10.38,10.38,0,0,0,379.58,238h0A10.37,10.37,0,0,0,389.92,248.35Z"/>
  </g>
  <g>
    <path d="M326.65,61.61H150.09a9,9,0,0,0-9,8.94V186.23a9,9,0,0,0,9,8.94h60.14l-4.45,15.61H192.71a2.86,2.86,0,1,0,0,5.71H284a2.86,2.86,0,1,0,0-5.71H271l-4.46-15.61h60.14a9,9,0,0,0,9-8.94V70.55a9,9,0,0,0-9-8.94ZM265,210.78H211.71l4.46-15.61h44.4Zm64.86-24.55a3.24,3.24,0,0,1-3.24,3.24H150.09a3.24,3.24,0,0,1-3.24-3.24V70.55a3.25,3.25,0,0,1,3.24-3.24H326.65a3.25,3.25,0,0,1,3.24,3.24Zm0,0"/>
    <path d="M320.57,73.78H156.18a2.86,2.86,0,0,0-2.86,2.86v103.5a2.86,2.86,0,0,0,2.86,2.86H320.57a2.86,2.86,0,0,0,2.85-2.86V76.64a2.86,2.86,0,0,0-2.85-2.86Zm-2.86,5.71V98.14H159V79.49ZM159,177.29V103.85H317.71v73.44Zm0,0"/>
    <path d="M198.8,91.67h91.32a2.86,2.86,0,1,0,0-5.71H198.8a2.86,2.86,0,1,0,0,5.71Zm0,0"/>
    <path d="M302.3,91.67h6.09a2.86,2.86,0,0,0,0-5.71H302.3a2.86,2.86,0,0,0,0,5.71Zm0,0"/>
    <path d="M168.35,91.67a2.86,2.86,0,0,0,0-5.71,2.86,2.86,0,0,0,0,5.71Zm0,0"/>
    <path d="M177.48,91.67a2.87,2.87,0,0,0,2-.84,2.84,2.84,0,0,0,0-4,2.85,2.85,0,1,0-2,4.87Zm0,0"/>
    <path d="M186.62,91.67a2.89,2.89,0,0,0,2-.84,2.86,2.86,0,0,0,0-4,2.85,2.85,0,0,0-4.87,2,2.85,2.85,0,0,0,.83,2,2.89,2.89,0,0,0,2,.84Zm0,0"/>
    <path d="M179.5,117.24a2.85,2.85,0,0,0-4,4l19.29,19.29-19.29,19.29a2.85,2.85,0,0,0,4,4l21.31-21.31a2.85,2.85,0,0,0,0-4Zm0,0"/>
    <path d="M226,159H195.58a2.86,2.86,0,1,0,0,5.71H226a2.86,2.86,0,0,0,0-5.71Zm0,0"/>
  </g>
  <g>
    <line class="cls-3" x1="355.45" y1="122.52" x2="361.66" y2="122.52"/>
    <path class="cls-4" d="M373,122.31c19.45-1.61,23-12.06,23-24.61V63.56A24.9,24.9,0,0,1,417.36,39"/>
    <line class="cls-3" x1="423.03" y1="38.74" x2="429.24" y2="38.74"/>
    <g>
      <path class="cls-5" d="M356.07,133.41A10.89,10.89,0,1,1,367,122.52,10.9,10.9,0,0,1,356.07,133.41Z"/>
      <path class="cls-6" d="M356.07,134.86a12.34,12.34,0,1,0-12.34-12.34,12.36,12.36,0,0,0,12.34,12.34Zm0-21.78a9.44,9.44,0,1,1-9.44,9.44,9.44,9.44,0,0,1,9.44-9.44Z"/>
    </g>
    <g>
      <path class="cls-5" d="M428.62,49.63a10.89,10.89,0,1,0-10.89-10.89A10.9,10.9,0,0,0,428.62,49.63Z"/>
      <path class="cls-6" d="M428.62,51.08A12.34,12.34,0,1,1,441,38.74a12.36,12.36,0,0,1-12.34,12.34Zm0-21.78a9.44,9.44,0,1,0,9.44,9.44,9.44,9.44,0,0,0-9.44-9.44Z"/>
    </g>
  </g>
  <g>
    <g>
      <path class="cls-5" d="M454.29,3.37a44.06,44.06,0,1,1-43.76,44.06A44,44,0,0,1,454.29,3.37"/>
      <path d="M454.78,86.9a39.67,39.67,0,1,0-39.47-39.67A39.67,39.67,0,0,0,454.78,86.9m0-3.7a36,36,0,1,1,35.77-36,35.9,35.9,0,0,1-35.77,36Z"/>
      <path d="M425.64,58s5.16,20.18,25.24,22.32S481.09,65,481.09,65l-5.36-3.31s-8.38,14.13-23.39,13.64S429.83,65.75,425.64,58Z"/>
      <path d="M436.16,66.53a29,29,0,0,0,16.18,5.16c14.33.49,22.61-13.15,22.71-13.25l.39-.68.68.39,5.07,3.12a27.11,27.11,0,0,0,3.51-16.18l-9.36.1s.68,13.74-15.79,21.53c-6.92,3.22-18.42,2.73-25.43-2.72A10.14,10.14,0,0,0,436.16,66.53Z"/>
      <path d="M472.22,43.24v-.78H473l9.85-.1c-.39-7.6-6.24-14.33-6.24-14.33l-11,6.82s7,5.27.68,17.64a27.35,27.35,0,0,1-11.31,11,26,26,0,0,1-9.45,2.63c.58.19,5.75,1.27,13-2A22.65,22.65,0,0,0,472.22,43.24Z"/>
    </g>
    <g>
      <path d="M464.78,2.65a1.95,1.95,0,1,0-.9,3.79A42.07,42.07,0,1,1,414,58.61a1.95,1.95,0,0,0-3.76,1,45.76,45.76,0,1,0,54.57-57Z"/>
      <path d="M412.38,47.43a42,42,0,0,1,22.08-37.08,1.95,1.95,0,0,0-1.85-3.43,45.94,45.94,0,0,0-24.13,40.51,1.95,1.95,0,1,0,3.9,0Z"/>
      <path d="M443.67,6.69a2.1,2.1,0,0,0,.43-.05,45.34,45.34,0,0,1,10.19-1.22A2.09,2.09,0,0,0,455,5.3l.07,0h0a2,2,0,0,0,1-.93.67.67,0,0,0,.06-.12.55.55,0,0,0,.05-.17,1.91,1.91,0,0,0,.1-.58,2,2,0,0,0-1.2-1.8h0l-.14,0a1.73,1.73,0,0,0-.6-.11,49,49,0,0,0-11.06,1.32,2,2,0,0,0,.44,3.85Z"/>
    </g>
  </g>
  <path d="M267.78,155.78c-6.87,0-12.86-3.12-14.57-7.59a2.78,2.78,0,0,1,1.6-3.59,2.62,2.62,0,0,1,1-.19,2.8,2.8,0,0,1,2.6,1.79c.74,1.93,4.53,4,9.37,4s9.18-2.3,9.18-4.83c0-3.1-2.43-4.83-10-7.12-7.35-2.23-14-4.86-14-12.46,0-5.84,6.48-10.41,14.76-10.41,6.86,0,12.85,3.13,14.57,7.6a2.79,2.79,0,0,1-5.21,2c-.74-1.93-4.53-4-9.36-4s-9.18,2.3-9.18,4.83c0,3.1,2.42,4.83,10,7.12,7.35,2.23,13.95,4.86,13.95,12.46C282.53,151.22,276.05,155.78,267.78,155.78Z"/>
  <path d="M299.84,155.78c-6.86,0-12.86-3.12-14.57-7.59a2.81,2.81,0,0,1,.06-2.13,2.71,2.71,0,0,1,1.55-1.46,2.57,2.57,0,0,1,1-.19,2.81,2.81,0,0,1,2.61,1.79c.74,1.93,4.53,4,9.36,4s9.18-2.3,9.18-4.83c0-3.1-2.43-4.83-10-7.12-7.35-2.23-13.94-4.86-13.94-12.46,0-5.84,6.48-10.41,14.75-10.41,6.87,0,12.86,3.13,14.57,7.6a2.8,2.8,0,0,1-1.6,3.6,2.85,2.85,0,0,1-1,.18,2.8,2.8,0,0,1-2.6-1.79c-.74-1.93-4.53-4-9.37-4s-9.18,2.3-9.18,4.83c0,3.1,2.43,4.83,10,7.12,7.35,2.23,14,4.86,14,12.46C314.6,151.22,308.12,155.78,299.84,155.78Z"/>
  <path d="M234.05,155.78a15.83,15.83,0,0,1-10.57-4,2.79,2.79,0,0,1,1.86-4.87,2.82,2.82,0,0,1,1.86.71,10.27,10.27,0,0,0,17.12-7.65V121h-3.74a2.79,2.79,0,0,1,0-5.58h6.53a2.79,2.79,0,0,1,2.78,2.79v21.76A15.86,15.86,0,0,1,234.05,155.78Z"/>
  <path class="cls-6" d="M31.53,200.07a7.14,7.14,0,0,1-7.16-7.16V162.33c0-13.15,11.32-18,11.71-18.22l26.81-11.19v-5.21l-.39-.26a21.62,21.62,0,0,1-8.07-13.79l-.13-.78-.78-.13c-4.29-.52-7.55-3-8.72-6.77a9,9,0,0,1,2.6-9.63l.26-.26V89.45a27.72,27.72,0,0,1,55.44,0v6.64l.26.26a9.07,9.07,0,0,1,2.6,9.5,10.24,10.24,0,0,1-8.72,6.77l-.78.13-.13.78a20.38,20.38,0,0,1-7.54,13.4l-.39.26v5.6L115.33,144c.52.26,11.72,4.94,11.72,18.22v30.58a7.15,7.15,0,0,1-7.16,7.16H31.53ZM119,152.83a13.23,13.23,0,0,0-9.37,12.62v30.32h10.67A2.75,2.75,0,0,0,123,193V161.16a14.88,14.88,0,0,0-3-7.94l-.39-.52Zm-75.09-7.16c-6.25,2.6-6.25,2.6-6.51,2.73l-1.56.78,1.43.92a17.48,17.48,0,0,1,9.24,15.35v30.32h58.69V165.45a17.64,17.64,0,0,1,9.11-15.35l1.56-.92-1.56-.78c-.26-.13-.26-.13-6.76-2.86l-20-8.33-.39.52c-5.33,6.25-8.32,10.28-10,12.63l-.13.13c-.39.52-.78,1-1,1.43-1-1.3-2.08-2.74-3.38-4.3-2.08-2.73-4.55-5.85-7.94-9.89l-.39-.52Zm-12.1,7.55a15.12,15.12,0,0,0-3,9.24V193a2.75,2.75,0,0,0,2.73,2.73H42.2V165.45a13.41,13.41,0,0,0-9.37-12.62l-.65-.13Zm35.52-18.87.26.26a50.91,50.91,0,0,1,3.65,5.21,64.54,64.54,0,0,0,3.9,5.46l.78.91,8.46-12v-4.16l-1.3.52a23.21,23.21,0,0,1-7.29,1.3,21.7,21.7,0,0,1-7.15-1.17l-1.31-.39Zm-8.58-23.42c0,10.28,8.84,16.65,17,16.65a16.69,16.69,0,0,0,16.66-16.65V94.66l-.26-.26c-.39-.52-1.3-1.43-2.6-2.86l-2.74-3-.65.39a49.19,49.19,0,0,1-25,7.29H58.73v14.71Zm38.12-2.22,1.18-.26a5.24,5.24,0,0,0,4.29-5.07c0-2.34-1.69-4.3-4.29-5.08L96.85,98ZM53.26,98.43a5.51,5.51,0,0,0-4.42,5.08c0,2.34,1.69,4.29,4.29,5.07l1.17.26V98.17ZM75.64,66.29A23.35,23.35,0,0,0,52.35,89.58V94l1-.13c.26,0,.78-.13,1-.13H55l.26-.39a4.1,4.1,0,0,1,2.86-1.69h2.87a43.07,43.07,0,0,0,23.94-7.16A4.32,4.32,0,0,1,87,83.86a3.69,3.69,0,0,1,2.87,1.3c.91,1,2.6,2.73,2.6,2.73,2.86,3.13,4,4.3,4.29,5.21l.13.52.52.13.53.13,1,.13V89.58A23.35,23.35,0,0,0,75.64,66.29Z"/>
  <g>
    <line class="cls-3" x1="355.73" y1="122.58" x2="361.94" y2="122.58"/>
    <path class="cls-7" d="M374.36,122.89c18.52,1.9,21.89,12.19,21.89,24.51v34.14a24.89,24.89,0,0,0,24.82,24.82h7.74"/>
    <line class="cls-3" x1="435.03" y1="206.36" x2="441.24" y2="206.36"/>
    <g>
      <path class="cls-5" d="M356.35,133.47a10.89,10.89,0,1,1,10.89-10.89A10.9,10.9,0,0,1,356.35,133.47Z"/>
      <path class="cls-6" d="M356.35,134.92A12.34,12.34,0,1,0,344,122.58a12.36,12.36,0,0,0,12.34,12.34Zm0-21.78a9.44,9.44,0,1,1-9.44,9.44,9.44,9.44,0,0,1,9.44-9.44Z"/>
    </g>
  </g>
  <rect class="cls-5" x="422.08" y="134.14" width="62.28" height="109.05" rx="8.27" ry="8.27"/>
  <g>
    <path d="M453.29,231.43a3.6,3.6,0,1,0,3.59,3.6,3.61,3.61,0,0,0-3.59-3.6Zm0,3.81a.22.22,0,1,1,.21-.21.22.22,0,0,1-.21.21Zm0,0"/>
    <path d="M473.88,131.76h-3.61a1.82,1.82,0,1,0,0,3.64h3.61a8,8,0,0,1,8,8v3.94H423.71v-3.94a8,8,0,0,1,8-8h31.35a1.82,1.82,0,0,0,0-3.64H431.7a11.64,11.64,0,0,0-11.63,11.62v90A11.65,11.65,0,0,0,431.7,245h42.18a11.64,11.64,0,0,0,11.62-11.63v-90a11.63,11.63,0,0,0-11.62-11.62Zm0,109.61H431.7a8,8,0,0,1-8-8V151h58.15v74.2H429.21a1.82,1.82,0,1,0,0,3.64h52.65v4.58a8,8,0,0,1-8,8Zm0,0"/>
    <path d="M440.75,197.46A1.78,1.78,0,0,0,442,198a1.82,1.82,0,0,0,1.29-3.1l-7.82-7.83,7.82-7.82a1.82,1.82,0,0,0-2.57-2.57l-9.11,9.11a1.8,1.8,0,0,0,0,2.57Zm0,0"/>
    <path d="M463.26,197.46a1.78,1.78,0,0,0,1.28.53,1.8,1.8,0,0,0,1.29-.53l9.11-9.11a1.82,1.82,0,0,0,0-2.57l-9.11-9.11a1.82,1.82,0,1,0-2.57,2.57l7.82,7.82-7.82,7.83a1.8,1.8,0,0,0,0,2.57Zm0,0"/>
    <path d="M449.29,205.25a2.19,2.19,0,0,0,.36,0,1.82,1.82,0,0,0,1.78-1.47L457.87,171a1.82,1.82,0,1,0-3.57-.7l-6.44,32.79a1.82,1.82,0,0,0,1.43,2.14Zm0,0"/>
  </g>
</svg>
