<svg id="Layer_1" data-name="Layer 1" xmlns="http://www.w3.org/2000/svg" viewBox="0 0 500 269.04">
  <defs>
    <style>
      .cls-1 {
        fill: #a5b9c9;
        opacity: 0.3;
      }

      .cls-2 {
        fill: #008998;
      }

      .cls-3, .cls-4, .cls-5 {
        fill: none;
        stroke-linecap: round;
        stroke-linejoin: round;
        stroke-width: 4.66px;
      }

      .cls-3 {
        stroke: #008998;
      }

      .cls-3, .cls-4 {
        stroke-dasharray: 13.99;
      }

      .cls-4, .cls-5 {
        stroke: #000;
      }
    </style>
  </defs>
  <title>Scaleable</title>
  <g>
    <rect class="cls-1" x="233.39" width="129" height="20.69" rx="10.34" ry="10.34" transform="translate(595.78 20.69) rotate(-180)"/>
    <path class="cls-1" d="M247.19,41.39h103a10.37,10.37,0,0,1-10.35-10.34h0A10.38,10.38,0,0,1,350.21,20.7h-103a10.38,10.38,0,0,1,10.34,10.35h0A10.37,10.37,0,0,1,247.19,41.39Z"/>
    <rect class="cls-1" x="119.1" y="41.39" width="276.09" height="20.69" rx="10.34" ry="10.34" transform="translate(514.3 103.47) rotate(-180)"/>
    <path class="cls-1" d="M215.3,82.78H367.07a10.38,10.38,0,0,1-10.35-10.34h0A10.38,10.38,0,0,1,367.07,62.1H215.3a10.38,10.38,0,0,1,10.35,10.34h0A10.38,10.38,0,0,1,215.3,82.78Z"/>
    <rect class="cls-1" x="154.36" y="82.78" width="342.63" height="20.69" rx="10.34" ry="10.34" transform="translate(651.35 186.26) rotate(-180)"/>
    <path class="cls-1" d="M169,124.18H383a10.38,10.38,0,0,1-10.34-10.35h0A10.37,10.37,0,0,1,383,103.49H169a10.38,10.38,0,0,1,10.35,10.34h0A10.38,10.38,0,0,1,169,124.18Z"/>
    <rect class="cls-1" x="40" y="124.18" width="401.8" height="20.69" rx="10.34" ry="10.34" transform="translate(481.8 269.04) rotate(-180)"/>
    <path class="cls-1" d="M136.5,165.57H416.13a10.38,10.38,0,0,1-10.35-10.35h0a10.38,10.38,0,0,1,10.35-10.34H136.5a10.38,10.38,0,0,1,10.35,10.34h0A10.38,10.38,0,0,1,136.5,165.57Z"/>
    <rect class="cls-1" x="89.06" y="165.57" width="372.98" height="20.69" rx="10.34" ry="10.34" transform="translate(551.09 351.82) rotate(-180)"/>
    <path class="cls-1" d="M124.54,207H303.91a10.38,10.38,0,0,1-10.35-10.34h0a10.38,10.38,0,0,1,10.35-10.35H124.54a10.38,10.38,0,0,1,10.35,10.35h0A10.38,10.38,0,0,1,124.54,207Z"/>
    <rect class="cls-1" x="66.59" y="206.96" width="276.77" height="20.69" rx="10.34" ry="10.34" transform="translate(409.96 434.61) rotate(-180)"/>
    <rect class="cls-1" x="172.79" y="248.35" width="287.81" height="20.69" rx="10.34" ry="10.34" transform="translate(633.39 517.39) rotate(180)"/>
    <path class="cls-1" d="M188.58,248.35h128.5A10.38,10.38,0,0,1,306.73,238h0a10.38,10.38,0,0,1,10.35-10.35H188.58A10.38,10.38,0,0,1,198.93,238h0A10.38,10.38,0,0,1,188.58,248.35Z"/>
  </g>
  <g>
    <path class="cls-2" d="M161,225.48a5.54,5.54,0,1,0,5.54,5.54,5.55,5.55,0,0,0-5.54-5.54Zm0,5.87a.33.33,0,1,1,.33-.33.33.33,0,0,1-.33.33Zm0,0"/>
    <path class="cls-2" d="M192.78,71.8h-5.55a2.81,2.81,0,0,0,0,5.62h5.55a12.32,12.32,0,0,1,12.31,12.31V95.8H115.44V89.73a12.32,12.32,0,0,1,12.31-12.31h48.34a2.81,2.81,0,0,0,0-5.62H127.75a17.94,17.94,0,0,0-17.92,17.93V228.49a17.94,17.94,0,0,0,17.92,17.92h65a17.94,17.94,0,0,0,17.92-17.92V89.73A17.94,17.94,0,0,0,192.78,71.8Zm0,169h-65a12.32,12.32,0,0,1-12.31-12.31V101.41h89.65V215.8H123.91a2.81,2.81,0,0,0,0,5.62h81.18v7.07a12.32,12.32,0,0,1-12.31,12.31Zm0,0"/>
    <path d="M141.7,173.1a2.8,2.8,0,1,0,4-4l-12.06-12.07,12.06-12a2.81,2.81,0,0,0-4-4l-14,14a2.81,2.81,0,0,0,0,4Zm0,0"/>
    <path d="M176.41,173.1a2.79,2.79,0,0,0,4,0l14-14a2.82,2.82,0,0,0,0-4l-14-14a2.81,2.81,0,0,0-4,4l12.06,12-12.06,12.07a2.79,2.79,0,0,0,0,4Zm0,0"/>
    <path d="M154.88,185.11a3.31,3.31,0,0,0,.55,0,2.8,2.8,0,0,0,2.74-2.27l9.94-50.55a2.81,2.81,0,1,0-5.51-1.08l-9.93,50.55a2.81,2.81,0,0,0,2.21,3.3Zm0,0"/>
  </g>
  <g>
    <path class="cls-2" d="M337.11,100a3.52,3.52,0,1,1,3.52-3.52A3.53,3.53,0,0,1,337.11,100Z"/>
    <path d="M322,106.81a9.16,9.16,0,0,1-9.15-9.15V34.56A9.17,9.17,0,0,1,322,25.41h15.74a2.28,2.28,0,1,1,0,4.55H322a4.61,4.61,0,0,0-4.6,4.6V40h38.77V34.56a4.61,4.61,0,0,0-4.6-4.6H349a2.28,2.28,0,1,1,0-4.55h2.52a9.16,9.16,0,0,1,9.15,9.15v63.1a9.15,9.15,0,0,1-9.15,9.15Zm-4.6-9.15a4.61,4.61,0,0,0,4.6,4.6h29.57a4.6,4.6,0,0,0,4.6-4.6V90H325a2.28,2.28,0,0,1,0-4.55h31.1V44.55H317.37Z"/>
    <path d="M329.22,73.85a2.26,2.26,0,0,1-1.61-.67l-6.39-6.38a2.27,2.27,0,0,1-.66-1.61,2.29,2.29,0,0,1,.66-1.61l6.39-6.39a2.28,2.28,0,1,1,3.22,3.22l-4.78,4.78L330.83,70a2.28,2.28,0,0,1-1.61,3.89Z"/>
    <path d="M345,73.85A2.28,2.28,0,0,1,343.39,70l4.78-4.77-4.78-4.78a2.28,2.28,0,1,1,3.22-3.22L353,63.58a2.29,2.29,0,0,1,0,3.22l-6.39,6.38A2.26,2.26,0,0,1,345,73.85Z"/>
    <path d="M334.56,79a3.27,3.27,0,0,1-.44,0,2.28,2.28,0,0,1-1.8-2.68l4.52-23a2.28,2.28,0,0,1,2.23-1.83,2.18,2.18,0,0,1,.44,0,2.28,2.28,0,0,1,1.8,2.67l-4.52,23A2.29,2.29,0,0,1,334.56,79Z"/>
  </g>
  <g>
    <path class="cls-2" d="M403.11,138.66a3.52,3.52,0,1,1,3.52-3.51A3.52,3.52,0,0,1,403.11,138.66Z"/>
    <path d="M388,145.48a9.17,9.17,0,0,1-9.15-9.15V73.23A9.16,9.16,0,0,1,388,64.08h15.74a2.28,2.28,0,1,1,0,4.55H388a4.61,4.61,0,0,0-4.6,4.6v5.43h38.77V73.23a4.6,4.6,0,0,0-4.6-4.6H415a2.28,2.28,0,1,1,0-4.55h2.52a9.15,9.15,0,0,1,9.15,9.15v63.1a9.16,9.16,0,0,1-9.15,9.15Zm-4.6-9.15a4.6,4.6,0,0,0,4.6,4.59h29.57a4.6,4.6,0,0,0,4.6-4.59v-7.67H391a2.28,2.28,0,0,1,0-4.55h31.1V83.21H383.37Z"/>
    <path d="M395.22,112.52a2.26,2.26,0,0,1-1.61-.67l-6.39-6.39a2.25,2.25,0,0,1-.66-1.61,2.31,2.31,0,0,1,.66-1.61l6.39-6.38a2.28,2.28,0,1,1,3.22,3.22l-4.78,4.77,4.78,4.78a2.28,2.28,0,0,1-1.61,3.89Z"/>
    <path d="M411,112.52a2.28,2.28,0,0,1-1.61-3.89l4.78-4.78-4.78-4.77a2.28,2.28,0,1,1,3.22-3.22l6.39,6.38a2.29,2.29,0,0,1,0,3.22l-6.39,6.39A2.26,2.26,0,0,1,411,112.52Z"/>
    <path d="M400.56,117.62a2.18,2.18,0,0,1-.44,0,2.26,2.26,0,0,1-1.8-2.67l4.52-23a2.29,2.29,0,0,1,2.23-1.84,3.27,3.27,0,0,1,.44,0,2.3,2.3,0,0,1,1.8,2.68l-4.52,23A2.28,2.28,0,0,1,400.56,117.62Z"/>
  </g>
  <line class="cls-3" x1="188.06" y1="72.99" x2="316.72" y2="29.66"/>
  <line class="cls-3" x1="198.5" y1="242.55" x2="357.39" y2="201.66"/>
  <g>
    <path class="cls-2" d="M337.11,197.33a3.52,3.52,0,1,1,3.52-3.52A3.53,3.53,0,0,1,337.11,197.33Z"/>
    <path d="M322,204.14a9.16,9.16,0,0,1-9.15-9.15v-63.1a9.17,9.17,0,0,1,9.15-9.15h15.74a2.28,2.28,0,1,1,0,4.56H322a4.6,4.6,0,0,0-4.6,4.59v5.44h38.77v-5.44a4.6,4.6,0,0,0-4.6-4.59H349a2.28,2.28,0,1,1,0-4.56h2.52a9.16,9.16,0,0,1,9.15,9.15V195a9.15,9.15,0,0,1-9.15,9.15Zm-4.6-9.15a4.61,4.61,0,0,0,4.6,4.6h29.57a4.6,4.6,0,0,0,4.6-4.6v-7.66H325a2.28,2.28,0,0,1,0-4.56h31.1V141.88H317.37Z"/>
    <path d="M329.22,171.18a2.26,2.26,0,0,1-1.61-.67l-6.39-6.38a2.25,2.25,0,0,1-.66-1.61,2.29,2.29,0,0,1,.66-1.61l6.39-6.39a2.29,2.29,0,0,1,3.22,0,2.28,2.28,0,0,1,0,3.22l-4.78,4.78,4.78,4.78a2.26,2.26,0,0,1,.67,1.61,2.24,2.24,0,0,1-.67,1.6A2.26,2.26,0,0,1,329.22,171.18Z"/>
    <path d="M345,171.18a2.29,2.29,0,0,1-2.28-2.28,2.24,2.24,0,0,1,.67-1.6l4.78-4.78-4.78-4.78a2.28,2.28,0,0,1,3.22-3.22l6.39,6.39a2.29,2.29,0,0,1,0,3.22l-6.39,6.38A2.26,2.26,0,0,1,345,171.18Z"/>
    <path d="M334.56,176.29a2.18,2.18,0,0,1-.44,0,2.28,2.28,0,0,1-1.8-2.68l4.52-23a2.28,2.28,0,0,1,2.23-1.84,2.18,2.18,0,0,1,.44,0,2.29,2.29,0,0,1,1.8,2.67l-4.52,23A2.28,2.28,0,0,1,334.56,176.29Z"/>
  </g>
  <g>
    <line class="cls-4" x1="226.39" y1="146.33" x2="297.89" y2="122.33"/>
    <line class="cls-5" x1="269.39" y1="111.33" x2="292.89" y2="123.33"/>
    <line class="cls-5" x1="281.89" y1="147.33" x2="292.89" y2="123.83"/>
  </g>
</svg>
