<svg id="Layer_1" data-name="Layer 1" xmlns="http://www.w3.org/2000/svg" viewBox="0 0 500 269.04">
  <defs>
    <style>
      .cls-1 {
        fill: #a5b9c9;
        opacity: 0.3;
      }

      .cls-2 {
        fill: #008998;
      }

      .cls-3, .cls-4 {
        fill: none;
        stroke: #008998;
        stroke-linecap: round;
        stroke-linejoin: round;
        stroke-width: 4.14px;
      }

      .cls-3 {
        stroke-dasharray: 12.41;
      }

      .cls-4 {
        stroke-dasharray: 12.41 12.41;
      }

      .cls-5 {
        fill: #fff;
      }
    </style>
  </defs>
  <title>ServerRendering</title>
  <rect class="cls-1" x="108.97" y="165.57" width="368.43" height="20.69" rx="10.34" ry="10.34"/>
  <path class="cls-1" d="M224.17,207h-103a10.38,10.38,0,0,0,10.35-10.34h0a10.38,10.38,0,0,0-10.35-10.35h103a10.38,10.38,0,0,0-10.35,10.35h0A10.38,10.38,0,0,0,224.17,207Z"/>
  <rect class="cls-1" x="7.16" y="206.96" width="276.09" height="20.69" rx="10.34" ry="10.34"/>
  <path class="cls-1" d="M234.06,248.35H82.29A10.37,10.37,0,0,0,92.63,238h0a10.38,10.38,0,0,0-10.34-10.35H234.06A10.38,10.38,0,0,0,223.71,238h0A10.37,10.37,0,0,0,234.06,248.35Z"/>
  <rect class="cls-1" x="64.36" y="248.35" width="222.37" height="20.69" rx="10.34" ry="10.34"/>
  <path class="cls-1" d="M169,144.86H383a10.38,10.38,0,0,0-10.34,10.35h0A10.37,10.37,0,0,0,383,165.55H169a10.38,10.38,0,0,0,10.35-10.34h0A10.38,10.38,0,0,0,169,144.86Z"/>
  <rect class="cls-1" x="103" y="124.18" width="401.8" height="20.69" rx="10.34" ry="10.34" transform="translate(607.8 269.04) rotate(180)"/>
  <path class="cls-1" d="M170.71,103.47H357.13a10.38,10.38,0,0,0-10.35,10.35h0a10.38,10.38,0,0,0,10.35,10.34H170.71a10.38,10.38,0,0,0,10.35-10.34h0A10.38,10.38,0,0,0,170.71,103.47Z"/>
  <rect class="cls-1" x="2.06" y="82.78" width="372.98" height="20.69" rx="10.34" ry="10.34" transform="translate(377.09 186.26) rotate(180)"/>
  <path class="cls-1" d="M124.54,62.08H303.91a10.38,10.38,0,0,0-10.35,10.34h0a10.38,10.38,0,0,0,10.35,10.35H124.54a10.38,10.38,0,0,0,10.35-10.35h0A10.38,10.38,0,0,0,124.54,62.08Z"/>
  <rect class="cls-1" x="86.59" y="41.39" width="276.77" height="20.69" rx="10.34" ry="10.34" transform="translate(449.96 103.47) rotate(180)"/>
  <rect class="cls-1" x="199.49" width="287.81" height="20.69" rx="10.34" ry="10.34" transform="translate(686.78 20.69) rotate(180)"/>
  <path class="cls-1" d="M232.58,20.69H333.72A10.37,10.37,0,0,0,323.38,31h0a10.38,10.38,0,0,0,10.34,10.35H232.58A10.38,10.38,0,0,0,242.93,31h0A10.38,10.38,0,0,0,232.58,20.69Z"/>
  <path class="cls-2" d="M428.75,145.19l23.81-13.74a3.91,3.91,0,0,0,0-6.77l-23.81-13.75a3.91,3.91,0,0,0-5.86,3.39v9.73H411.54a3.91,3.91,0,0,0,0,7.81h11.35v9.95A3.9,3.9,0,0,0,428.75,145.19Z"/>
  <path d="M107,182.55l-3-5.06,3-7.13,5.72-1.43a2.27,2.27,0,0,0,1.72-2.2V155.12a2.27,2.27,0,0,0-1.72-2.2l-5.72-1.42-3-7.14,3-5.06a2.28,2.28,0,0,0-.34-2.77l-8.21-8.21a2.28,2.28,0,0,0-2.77-.34l-5.06,3-7.14-3-1.42-5.72a2.27,2.27,0,0,0-2.2-1.72H68.25a2.27,2.27,0,0,0-2.2,1.72l-1.43,5.72-7.13,3-5.06-3a2.28,2.28,0,0,0-2.77.34l-8.21,8.21a2.27,2.27,0,0,0-.34,2.77l3,5.06-3,7.14-5.72,1.42a2.27,2.27,0,0,0-1.72,2.2v11.61a2.27,2.27,0,0,0,1.72,2.2l5.72,1.43,3,7.13-3,5.06a2.28,2.28,0,0,0,.34,2.77l8.21,8.21a2.28,2.28,0,0,0,2.77.34l5.06-3,7.13,3,1.43,5.72a2.27,2.27,0,0,0,2.2,1.72H79.86a2.27,2.27,0,0,0,2.2-1.72l1.42-5.72,7.14-3,5.06,3a2.28,2.28,0,0,0,2.77-.34l8.21-8.21a2.28,2.28,0,0,0,.34-2.77Zm-3.83-15-3.84,9.24a2.29,2.29,0,0,0,.15,2l2.72,4.52-5.71,5.7L92,186.35a2.3,2.3,0,0,0-2-.15L80.69,190a2.26,2.26,0,0,0-1.33,1.54l-1.27,5.12H70l-1.27-5.12A2.25,2.25,0,0,0,67.41,190l-9.24-3.84a2.29,2.29,0,0,0-2,.15l-4.52,2.72-5.7-5.7,2.72-4.52a2.29,2.29,0,0,0,.15-2l-3.84-9.24a2.25,2.25,0,0,0-1.54-1.34L38.28,165v-8.07l5.12-1.27a2.26,2.26,0,0,0,1.54-1.33L48.78,145a2.3,2.3,0,0,0-.15-2l-2.72-4.51,5.7-5.71,4.52,2.72a2.29,2.29,0,0,0,2,.15l9.24-3.84a2.25,2.25,0,0,0,1.34-1.54L70,125.15h8.07l1.27,5.12a2.26,2.26,0,0,0,1.33,1.54l9.25,3.84a2.3,2.3,0,0,0,2-.15l4.51-2.72,5.71,5.71L99.48,143a2.3,2.3,0,0,0-.15,2l3.84,9.25a2.26,2.26,0,0,0,1.54,1.33l5.12,1.27V165l-5.12,1.27a2.25,2.25,0,0,0-1.54,1.34Z"/>
  <path class="cls-2" d="M74.05,139.44a21.64,21.64,0,1,0,21.64,21.64,21.67,21.67,0,0,0-21.64-21.64ZM91,158.59H76.32V144.13A17.13,17.13,0,0,1,91,158.59Zm-16.92,19.6a17.1,17.1,0,0,1-2.26-34.06v16.72a2.26,2.26,0,0,0,2.26,2.27H91a17.13,17.13,0,0,1-17,15.07Z"/>
  <path d="M148.87,115.21l-2.66-2v-4.06l2.67-2a2.26,2.26,0,0,0,.76-2.68l-2.81-6.8a2.24,2.24,0,0,0-2.42-1.38l-3.29.48L138.26,94l.5-3.29a2.27,2.27,0,0,0-1.37-2.43L130.6,85.4a2.27,2.27,0,0,0-2.69.74l-2,2.67h-4.06l-2-2.67a2.25,2.25,0,0,0-2.68-.75l-6.81,2.8A2.26,2.26,0,0,0,109,90.61l.48,3.28-2.87,2.86-3.29-.49a2.26,2.26,0,0,0-2.43,1.37l-2.83,6.79a2.27,2.27,0,0,0,.74,2.69l2.67,2v4l-2.67,2a2.26,2.26,0,0,0-.75,2.69l2.8,6.8a2.28,2.28,0,0,0,2.43,1.38l3.28-.48,2.86,2.87-.49,3.28a2.26,2.26,0,0,0,1.37,2.44l6.78,2.82a2.27,2.27,0,0,0,2.7-.74l2-2.66h4l2,2.67a2.26,2.26,0,0,0,1.83.93,2.35,2.35,0,0,0,.86-.17l6.8-2.81a2.26,2.26,0,0,0,1.38-2.42l-.49-3.29,2.88-2.86,3.28.5a2.28,2.28,0,0,0,2.44-1.37l2.82-6.79a2.26,2.26,0,0,0-.74-2.69Zm-6.29,1,2.17,1.6-1.47,3.52-2.66-.4a2.28,2.28,0,0,0-1.94.63L134.19,126a2.29,2.29,0,0,0-.65,1.94l.4,2.66-3.53,1.45-1.6-2.17A2.27,2.27,0,0,0,127,129h-6.34a2.25,2.25,0,0,0-1.82.92l-1.61,2.16-3.52-1.47.41-2.66a2.29,2.29,0,0,0-.64-1.94L109,121.49a2.29,2.29,0,0,0-1.94-.65l-2.66.4-1.46-3.53,2.17-1.59a2.28,2.28,0,0,0,.92-1.83V108a2.22,2.22,0,0,0-.91-1.82L103,104.52l1.46-3.52,2.67.41a2.23,2.23,0,0,0,1.93-.64l4.5-4.47a2.26,2.26,0,0,0,.64-1.94l-.39-2.66,3.53-1.45,1.59,2.16a2.26,2.26,0,0,0,1.82.92l6.34,0h0a2.27,2.27,0,0,0,1.82-.92l1.6-2.16L134,91.73l-.4,2.67a2.28,2.28,0,0,0,.63,1.94l4.48,4.49a2.26,2.26,0,0,0,1.94.64l2.66-.39,1.45,3.53-2.17,1.59a2.26,2.26,0,0,0-.92,1.82v6.34a2.3,2.3,0,0,0,.91,1.83Z"/>
  <path class="cls-2" d="M128.71,99.5a12.73,12.73,0,1,0,6.86,16.64,12.65,12.65,0,0,0-6.86-16.64Zm2.67,14.9A8.19,8.19,0,1,1,127,103.68a8.21,8.21,0,0,1,4.41,10.72Zm0,0"/>
  <path class="cls-2" d="M88.81,103.91a2.47,2.47,0,0,0,.6.08,2.26,2.26,0,0,0,2.18-1.67c.19-.67.4-1.35.63-2a2.26,2.26,0,1,0-4.28-1.48c-.26.75-.5,1.53-.72,2.3a2.28,2.28,0,0,0,1.59,2.79Zm0,0"/>
  <path class="cls-2" d="M92.85,93.35a2.21,2.21,0,0,0,1.25.38,2.26,2.26,0,0,0,1.89-1c.39-.58.8-1.16,1.23-1.72a2.27,2.27,0,1,0-3.6-2.75c-.49.63-1,1.29-1.4,2a2.26,2.26,0,0,0,.63,3.15Zm0,0"/>
  <path class="cls-2" d="M88.16,115.2h.11a2.28,2.28,0,0,0,2.16-2.37c0-.53,0-1.07,0-1.6v-.52a2.27,2.27,0,0,0-2.23-2.31h0a2.28,2.28,0,0,0-2.27,2.24c0,.2,0,.4,0,.6,0,.59,0,1.2.05,1.8a2.26,2.26,0,0,0,2.26,2.16Zm0,0"/>
  <path d="M54.14,83.89a14.6,14.6,0,0,0-4.55,11.45c.25,5.32,2.92,8,5.07,10.06,2.33,2.29,3.74,3.67,2.41,8.19a3.17,3.17,0,0,0,.77,3.58c.68.57,1.9,1,3.82.1,2.49-1.23,6.27-4.86,9.2-8.82,2.68-3.63,5.83-9.07,5.58-14.36A14.75,14.75,0,0,0,71.84,84,11,11,0,0,0,73.1,73.07V49.15a9.71,9.71,0,1,0-19.42,0V71.61A11,11,0,0,0,52,77.43,10.88,10.88,0,0,0,54.14,83.89ZM60,71.7l.19-.1.1,0,.15-.07.14-.06.12-.05.18-.07.1,0,.21-.06.08,0,.22-.06h.07l.29-.06h2.32l.33.07.13,0,.19,0,.15.05.12,0A6.48,6.48,0,0,1,67,82.57l-.18.13-.32.21-.14.09-.46.25,0,0-.27.13-.05,0L65,83.6l-.16.05-.35.09-.26.06-.19,0-.42,0H63.5l-.49,0-.49,0H62.4l-.43,0-.19,0a1.31,1.31,0,0,1-.27-.06l-.35-.09-.14,0c-.16-.06-.32-.11-.47-.18l-.07,0a5.32,5.32,0,0,1-.79-.4l-.17-.1-.3-.21-.2-.15A6.46,6.46,0,0,1,60,71.72Zm6.75,34.72A36.62,36.62,0,0,1,62,111.51c.38-4.81-2.13-7.28-4.21-9.32-1.91-1.88-3.57-3.51-3.73-7.06a10.1,10.1,0,0,1,3.4-8.2l.15.08.36.19.18.09a11.36,11.36,0,0,0,1.25.52l.07,0c.21.08.43.14.65.2h0a10.25,10.25,0,0,0,1.36.28l.13,0,.54,0h.16c.22,0,.45,0,.67,0s.44,0,.66,0h.16l.54,0,.12,0a11,11,0,0,0,2-.46l.05,0a6.19,6.19,0,0,0,.6-.23l0,0a6.65,6.65,0,0,0,.61-.27l.13-.06.41-.22.11-.06a10.18,10.18,0,0,1,3.49,7.33C72.09,97.53,70.2,101.94,66.75,106.42ZM63.39,43.94a5.22,5.22,0,0,1,5.21,5.21V68a10.84,10.84,0,0,0-3.9-1.31,2.07,2.07,0,0,0-.35,0H61.67a1.87,1.87,0,0,0-.34,0l-.45.08-.28.06-.12,0a11,11,0,0,0-2.3.74V49.15A5.22,5.22,0,0,1,63.39,43.94Z"/>
  <g>
    <path d="M138,143.29a2.27,2.27,0,0,0-3.66,0l-11,15.25a2.28,2.28,0,0,0-.42,1.32v50.48h0a8.43,8.43,0,0,0,8.42,8.42h9.61a8.44,8.44,0,0,0,8.43-8.42h0V159.86a2.28,2.28,0,0,0-.42-1.32Zm-6.05,32.24a2.25,2.25,0,0,0-2.25,2.25v20.06h-2.26V162.47H138.1v35.37h-3.92V177.78A2.25,2.25,0,0,0,131.92,175.53Zm10.68-13.06h2.27v35.37H142.6Zm-6.46-14L143,158H129.3Zm8.73,61.88a3.93,3.93,0,0,1-3.93,3.92h-9.61a3.93,3.93,0,0,1-3.92-3.92v-8h17.46Z"/>
    <path d="M134.13,168.3a1.87,1.87,0,0,0-.13-.42,1.79,1.79,0,0,0-.2-.39,1.88,1.88,0,0,0-.28-.34,2.45,2.45,0,0,0-.35-.29,2.75,2.75,0,0,0-.38-.2,2.13,2.13,0,0,0-.43-.13,2.17,2.17,0,0,0-.88,0,2.25,2.25,0,0,0-.42.13,2.75,2.75,0,0,0-.38.2,2.45,2.45,0,0,0-.35.29,2.27,2.27,0,0,0-.49.73,2.58,2.58,0,0,0-.12.42,2.12,2.12,0,0,0-.05.44,2.25,2.25,0,0,0,2.26,2.25,2.1,2.1,0,0,0,.43-.05,3,3,0,0,0,.43-.12,2.82,2.82,0,0,0,.38-.21,2.39,2.39,0,0,0,.35-.28,2.3,2.3,0,0,0,.28-.34,1.79,1.79,0,0,0,.2-.39,2.25,2.25,0,0,0,.13-.42,2.28,2.28,0,0,0,.05-.44A2.12,2.12,0,0,0,134.13,168.3Z"/>
  </g>
  <path class="cls-3" d="M280.38,189.87v27s3,27-27,27H123.59s-26.24,3-26.24-26.25v-9.55"/>
  <g>
    <path class="cls-4" d="M92.1,59.41V53.24S88,25.84,117.73,23.41c1.38-.11,2.83-.17,4.36-.17H250.38s27.75-1.5,27.75,27.75v5.18"/>
    <g>
      <path class="cls-5" d="M262.57,55.29a15.56,15.56,0,1,0,15.56-15.56A15.56,15.56,0,0,0,262.57,55.29Z"/>
      <path class="cls-2" d="M260.51,55.29a17.62,17.62,0,1,1,17.62,17.62,17.64,17.64,0,0,1-17.62-17.62Zm31.11,0a13.49,13.49,0,1,0-13.49,13.48,13.5,13.5,0,0,0,13.49-13.48Z"/>
    </g>
  </g>
  <line class="cls-3" x1="338.88" y1="128.06" x2="393.16" y2="128.06"/>
  <g>
    <path d="M231.23,96a10.26,10.26,0,1,0,10.27,10.25A10.26,10.26,0,0,0,231.23,96Zm0,15.95a5.7,5.7,0,1,1,5.7-5.7,5.7,5.7,0,0,1-5.7,5.7Zm0,0"/>
    <path d="M323.58,102.84a2.29,2.29,0,1,1-2.28-2.28,2.29,2.29,0,0,1,2.28,2.28Zm0,0"/>
    <path d="M314.46,102.84a2.28,2.28,0,1,1-2.28-2.28,2.28,2.28,0,0,1,2.28,2.28Zm0,0"/>
    <path d="M328.13,109.69a2.28,2.28,0,1,1-2.27-2.28,2.26,2.26,0,0,1,2.27,2.28Zm0,0"/>
    <path d="M319,109.69a2.28,2.28,0,1,1-2.28-2.28,2.26,2.26,0,0,1,2.28,2.28Zm0,0"/>
    <path d="M305.33,102.84a2.28,2.28,0,1,1-2.27-2.28,2.27,2.27,0,0,1,2.27,2.28Zm0,0"/>
    <path d="M309.9,109.69a2.29,2.29,0,1,1-2.29-2.28,2.28,2.28,0,0,1,2.29,2.28Zm0,0"/>
    <path d="M296.21,102.84a2.28,2.28,0,1,1-2.28-2.28,2.27,2.27,0,0,1,2.28,2.28Zm0,0"/>
    <path d="M300.78,109.69a2.29,2.29,0,1,1-2.28-2.28,2.28,2.28,0,0,1,2.28,2.28Zm0,0"/>
    <path d="M287.1,102.84a2.29,2.29,0,1,1-2.29-2.28,2.29,2.29,0,0,1,2.29,2.28Zm0,0"/>
    <path d="M291.66,109.69a2.28,2.28,0,1,1-2.28-2.28,2.27,2.27,0,0,1,2.28,2.28Zm0,0"/>
    <path d="M278,173.52h55.61A10.51,10.51,0,0,0,344.1,163V136.15a10.46,10.46,0,0,0-4.06-8.23,10.43,10.43,0,0,0,4.06-8.22h0V92.83a10.51,10.51,0,0,0-10.51-10.5H217.81a10.51,10.51,0,0,0-10.51,10.5V119.7a10.42,10.42,0,0,0,4,8.22,10.45,10.45,0,0,0-4,8.23V163a10.51,10.51,0,0,0,10.51,10.51h55.6m66.12-37.37V163a5.94,5.94,0,0,1-5.94,6H217.81a6,6,0,0,1-5.95-6V136.15a5.94,5.94,0,0,1,5.95-5.94H333.59a5.94,5.94,0,0,1,5.94,5.94ZM217.81,125.64a5.94,5.94,0,0,1-5.95-5.94V92.83a5.94,5.94,0,0,1,5.95-5.94H333.59a5.94,5.94,0,0,1,5.94,5.94V119.7a5.94,5.94,0,0,1-5.94,5.94Zm0,0"/>
    <path d="M231.23,159.84A10.26,10.26,0,1,0,221,149.59a10.27,10.27,0,0,0,10.25,10.25Zm0-16a5.7,5.7,0,1,1-5.7,5.7,5.7,5.7,0,0,1,5.7-5.7Zm0,0"/>
    <path d="M323.58,146.16a2.29,2.29,0,1,1-2.28-2.27,2.28,2.28,0,0,1,2.28,2.27Zm0,0"/>
    <path d="M314.46,146.16a2.28,2.28,0,1,1-2.28-2.27,2.27,2.27,0,0,1,2.28,2.27Zm0,0"/>
    <path d="M328.13,153a2.28,2.28,0,1,1-2.27-2.29,2.28,2.28,0,0,1,2.27,2.29Zm0,0"/>
    <path d="M319,153a2.28,2.28,0,1,1-2.28-2.29A2.28,2.28,0,0,1,319,153Zm0,0"/>
    <path d="M305.33,146.16a2.28,2.28,0,1,1-2.27-2.27,2.26,2.26,0,0,1,2.27,2.27Zm0,0"/>
    <path d="M309.9,153a2.29,2.29,0,1,1-2.29-2.29A2.29,2.29,0,0,1,309.9,153Zm0,0"/>
    <path d="M296.21,146.16a2.28,2.28,0,1,1-2.28-2.27,2.27,2.27,0,0,1,2.28,2.27Zm0,0"/>
    <path d="M300.78,153a2.29,2.29,0,1,1-2.28-2.29,2.29,2.29,0,0,1,2.28,2.29Zm0,0"/>
    <path d="M287.1,146.16a2.29,2.29,0,1,1-2.29-2.27,2.28,2.28,0,0,1,2.29,2.27Zm0,0"/>
    <path d="M291.66,153a2.28,2.28,0,1,1-2.28-2.29,2.29,2.29,0,0,1,2.28,2.29Zm0,0"/>
  </g>
</svg>
