<?xml version="1.0" encoding="UTF-8"?>
<svg width="197px" height="53px" viewBox="0 0 197 53" version="1.1" xmlns="http://www.w3.org/2000/svg" xmlns:xlink="http://www.w3.org/1999/xlink">
    <!-- Generator: sketchtool 51.3 (57544) - http://www.bohemiancoding.com/sketch -->
    <title>C0B8828E-FBC4-434F-ADB8-CF6C92B7233C</title>
    <desc>Created with sketchtool.</desc>
    <defs></defs>
    <g id="Pages" stroke="none" stroke-width="1" fill="none" fill-rule="evenodd">
        <g id="Why-Sitecore" transform="translate(-134.000000, -35.000000)">
            <g id="Header" transform="translate(0.000000, 5.000000)">
                <g id="SitecoreJSS-Logo" transform="translate(134.000000, 30.000000)">
                    <rect id="Background" x="0" y="0" width="197" height="55.874269"></rect>
                    <path d="M26.2090643,0.288011696 C11.7508772,0.288011696 0.0576023392,12.0964912 0.0576023392,26.6122807 C0.0576023392,41.1280702 11.7508772,52.9365497 26.2090643,52.9365497 C40.6672515,52.9365497 52.3605263,41.1856725 52.3605263,26.6122807 C52.3605263,12.0964912 40.6672515,0.288011696 26.2090643,0.288011696 Z M26.4394737,45.678655 C15.8982456,45.678655 7.31549708,37.0383041 7.31549708,26.4394737 C7.31549708,15.8406433 15.8982456,7.2002924 26.4394737,7.2002924 C36.9807018,7.2002924 45.5634503,15.8406433 45.5634503,26.4394737 C45.5634503,37.0959064 37.0383041,45.678655 26.4394737,45.678655 Z M8.69795322,31.3356725 C8.69795322,31.3356725 11.8084795,43.6049708 24.0777778,44.8722222 C36.347076,46.197076 42.452924,35.5406433 42.452924,35.5406433 L39.1695906,33.5245614 C39.1695906,33.5245614 34.0429825,42.1073099 24.9418129,41.8192982 C15.8406433,41.5312865 11.2900585,36.0590643 8.69795322,31.3356725 Z M15.1494152,38.2479532 C17.9143275,40.2064327 21.1400585,41.2432749 24.9418129,41.3584795 C33.6397661,41.6464912 38.7087719,33.3517544 38.7663743,33.294152 L38.9967836,32.8909357 L39.4,33.121345 L42.452924,35.0222222 C45.2754386,30.4140351 44.5842105,25.2298246 44.5842105,25.2298246 L38.8815789,25.2874269 C38.8815789,25.2874269 39.3423977,33.6397661 29.2619883,38.4207602 C25.0570175,40.3792398 18.0295322,40.0912281 13.8245614,36.7502924 C13.8821637,36.7502924 14.2853801,37.3839181 15.1494152,38.2479532 Z M38.1327485,24.8266082 L38.1327485,24.3657895 L38.5935673,24.3657895 L44.5842105,24.3081871 C44.2961988,19.7 40.8400585,15.6102339 40.8400585,15.6102339 L34.1581871,19.7576023 C34.1581871,19.7576023 38.4207602,22.925731 34.5614035,30.4716374 C33.2365497,33.121345 30.2988304,35.9438596 27.6491228,37.1535088 C24.4233918,38.6511696 21.8888889,38.7663743 21.8888889,38.7663743 C22.2345029,38.8815789 25.3450292,39.5152047 29.7804094,37.5567251 C38.4207602,33.7549708 38.1327485,25.1722222 38.1327485,24.8266082 Z" id="Combined-Shape" fill="#E11F27" fill-rule="nonzero"></path>
                    <path d="M95.2166667,12.8453216 C96.0230994,12.2692982 97.2903509,11.9812865 98.5,11.9236842 C98.672807,11.9236842 98.9608187,12.0388889 99.0184211,12.2116959 C99.0760234,12.3269006 99.1336257,12.5573099 99.1336257,12.902924 C99.1336257,12.902924 99.0760234,16.0710526 99.1336257,16.819883 L102.18655,16.819883 C102.820175,16.7622807 102.820175,17.2230994 102.820175,17.2807018 C102.820175,17.8567251 102.820175,18.4903509 102.820175,19.0663743 C102.820175,19.1239766 102.820175,19.4695906 102.589766,19.527193 C102.474561,19.527193 102.244152,19.527193 102.071345,19.527193 L99.1912281,19.527193 C99.1912281,21.2552632 99.1912281,23.2137427 99.1912281,25.3450292 L99.1336257,30.1836257 C99.0760234,30.8172515 99.3640351,31.4508772 99.8248538,32.0845029 C100.45848,32.948538 102.013743,33.0637427 103.396199,33.0061404 C103.741813,33.0061404 104.317836,32.948538 104.433041,33.294152 L104.433041,35.2526316 C104.375439,35.7710526 103.91462,35.7134503 103.741813,35.7134503 C102.589766,35.655848 101.610526,35.7710526 100.688889,35.7134503 C100.112865,35.7134503 97.6359649,35.5406433 96.4263158,33.9277778 C95.274269,32.3725146 95.274269,30.7596491 95.2166667,29.377193 C94.9862573,24.2505848 95.2166667,12.8453216 95.2166667,12.8453216 Z M87.0371345,17.2807018 C87.8435673,16.9350877 88.822807,16.7622807 89.8020468,16.474269 C90.2628655,16.4166667 90.3204678,16.819883 90.3780702,17.1654971 C90.4356725,17.6263158 90.3780702,35.3678363 90.3780702,35.3678363 C90.3780702,35.3678363 90.2052632,35.5406433 88.5923977,35.5406433 C86.9795322,35.5406433 86.7491228,35.4254386 86.7491228,35.4254386 C86.7491228,29.55 86.7491228,23.6745614 86.7491228,17.7991228 C86.7491228,17.4535088 86.9219298,17.3383041 87.0371345,17.2807018 Z M172.403801,19.527193 C170.445322,19.4119883 168.544444,19.9304094 168.42924,22.6377193 C168.42924,27.9947368 168.42924,35.3678363 168.42924,35.3678363 C168.42924,35.3678363 168.256433,35.5406433 166.643567,35.5406433 C165.030702,35.5406433 164.800292,35.4254386 164.800292,35.4254386 C164.800292,30.8748538 164.800292,26.2666667 164.800292,21.7160819 C164.800292,21.7160819 164.397076,17.6263158 169.17807,16.8774854 C169.696491,16.7622807 170.502924,16.819883 170.90614,16.819883 C172.230994,16.819883 172.922222,16.7622807 173.325439,16.819883 C173.786257,16.8774854 173.901462,17.2230994 173.901462,17.4535088 C173.901462,17.6263158 173.959064,18.4903509 173.901462,18.8359649 C173.84386,19.2391813 173.498246,19.5847953 172.403801,19.527193 Z M81.1040936,19.2391813 C80.8736842,19.7576023 80.6432749,20.1608187 80.0096491,20.1032164 C79.4912281,19.9880117 77.5903509,19.1239766 75.6894737,19.2391813 C74.5950292,19.354386 72.9245614,19.5847953 72.6365497,21.0824561 C72.1181287,23.7321637 75.8622807,24.0777778 77.8207602,25.3450292 C78.1663743,25.5754386 84.4450292,27.9947368 81.5649123,32.8909357 C81.2192982,33.5245614 79.4912281,36.6350877 71.4269006,35.4254386 C71.1964912,35.4254386 68.3163743,35.0798246 68.0859649,34.2157895 C67.9707602,33.294152 68.2587719,32.8333333 68.5467836,32.3149123 C68.604386,32.1997076 68.8923977,31.8540936 69.2380117,31.7964912 C69.7564327,31.7388889 70.4476608,32.1997076 71.1388889,32.3725146 C72.8093567,32.775731 77.8783626,34.0429825 78.454386,31.1628655 C78.972807,28.6859649 75.8622807,28.0523392 73.5581871,26.9002924 C71.0236842,25.6330409 68.1435673,24.4809942 68.6619883,21.0824561 C69.2380117,17.6263158 73.7309942,16.4166667 77.8207602,16.819883 C78.2815789,16.819883 80.4704678,17.1078947 81.2769006,17.7991228 C81.5073099,17.9719298 81.3921053,18.6631579 81.1040936,19.2391813 Z M120.792105,27.1883041 L110.423684,27.1883041 C110.423684,27.1883041 110.07807,29.895614 112.727778,32.1421053 C113.188596,32.5453216 114.283041,32.8333333 115.262281,32.8909357 C115.262281,32.8909357 118.488012,33.121345 119.755263,32.775731 C120.100877,32.7181287 121.137719,32.4877193 121.483333,33.3517544 C121.540936,33.6397661 121.598538,33.9277778 121.713743,34.1581871 C121.771345,34.5614035 121.65614,34.9646199 121.483333,35.0798246 C120.792105,35.655848 119.812865,35.655848 119.006433,35.7710526 C117.623977,35.9438596 115.895906,35.8862573 114.74386,35.7710526 C113.937427,35.655848 112.900585,35.5406433 112.209357,35.2526316 C111.80614,35.1374269 107.197953,33.5245614 106.506725,28.1675439 C106.161111,25.6330409 106.564327,22.752924 107.716374,20.8520468 C109.444444,18.0295322 112.612573,16.9926901 113.534211,16.8774854 C115.607895,16.5894737 118.257602,16.7622807 120.388889,18.3751462 C123.384211,20.6792398 123.441813,24.3081871 123.557018,26.0938596 C123.61462,26.7850877 123.153801,27.1307018 122.808187,27.1883041 C122.232164,27.2459064 121.425731,27.1307018 120.792105,27.1883041 Z M110.423684,24.7690058 L119.92807,24.7690058 C119.92807,24.7690058 119.92807,22.6377193 118.833626,21.0248538 C118.488012,20.5064327 118.084795,20.1032164 117.508772,19.7576023 C116.932749,19.4119883 116.24152,19.2391813 115.377485,19.2391813 C115.319883,19.2391813 115.319883,19.2391813 115.319883,19.2391813 C115.262281,19.2391813 115.262281,19.2391813 115.262281,19.2391813 C115.262281,19.2391813 115.204678,19.2391813 115.147076,19.2391813 C113.361404,19.2967836 112.209357,20.2184211 111.518129,21.2552632 C111.460526,21.4280702 111.345322,21.5432749 111.287719,21.6584795 C110.538889,23.0409357 110.423684,24.5961988 110.423684,24.7690058 Z M189.281287,27.1883041 L178.970468,27.1883041 C178.970468,27.1883041 178.624854,29.895614 181.274561,32.1421053 C181.73538,32.5453216 182.829825,32.8333333 183.809064,32.8909357 C183.809064,32.8909357 187.034795,33.121345 188.302047,32.775731 C188.647661,32.7181287 189.684503,32.4877193 190.030117,33.3517544 C190.087719,33.6397661 190.145322,33.9277778 190.260526,34.1581871 C190.260526,34.5614035 190.202924,34.9646199 190.030117,35.0798246 C189.338889,35.655848 188.359649,35.655848 187.553216,35.7710526 C186.17076,35.9438596 184.44269,35.8862573 183.290643,35.7710526 C182.426608,35.655848 181.447368,35.5406433 180.75614,35.2526316 C180.352924,35.1374269 175.744737,33.5245614 175.053509,28.1675439 C174.707895,25.6330409 175.111111,22.752924 176.263158,20.8520468 C177.991228,18.0295322 181.159357,16.9926901 182.080994,16.8774854 C184.154678,16.5894737 186.804386,16.7622807 188.935673,18.3751462 C191.930994,20.6792398 191.930994,24.3081871 192.103801,26.0938596 C192.161404,26.7850877 191.642982,27.1307018 191.297368,27.1883041 C190.721345,27.2459064 189.914912,27.1307018 189.281287,27.1883041 Z M178.912865,24.7690058 L188.359649,24.7690058 C188.359649,24.7690058 188.359649,22.6377193 187.265205,21.0248538 C186.919591,20.5064327 186.516374,20.1032164 185.940351,19.7576023 C185.364327,19.4119883 184.673099,19.2391813 183.809064,19.2391813 C183.751462,19.2391813 183.751462,19.2391813 183.751462,19.2391813 C183.751462,19.2391813 183.69386,19.2391813 183.636257,19.2391813 C181.850585,19.2967836 180.698538,20.2184211 180.00731,21.2552632 C179.949708,21.4280702 179.834503,21.5432749 179.776901,21.6584795 C179.02807,23.0409357 178.912865,24.5961988 178.912865,24.7690058 Z M160.076901,21.7736842 C160.710526,23.098538 160.940936,24.7690058 160.998538,26.324269 C160.998538,27.8219298 160.825731,29.3195906 160.192105,30.5868421 C158.636842,33.6973684 155.468713,35.5982456 151.839766,35.5982456 C148.326023,35.5982456 145.330702,33.6397661 143.717836,30.7596491 C142.969006,29.377193 142.796199,27.7643275 142.796199,26.0938596 C142.796199,24.7690058 142.969006,23.3865497 143.487427,22.2345029 C144.869883,18.8935673 148.038012,16.647076 151.839766,16.647076 C155.411111,16.647076 158.521637,18.7207602 160.076901,21.7736842 Z M155.699123,31.2780702 C156.62076,30.0108187 156.85117,28.2827485 156.793567,26.324269 C156.793567,24.5961988 156.62076,22.8681287 155.87193,21.6584795 C154.662281,19.7576023 153.222222,19.2967836 151.666959,19.2967836 C150.630117,19.2967836 149.132456,19.872807 148.326023,20.7944444 C147.116374,22.1769006 146.597953,23.9049708 146.597953,26.324269 C146.597953,28.6283626 147.116374,30.6444444 148.326023,31.9116959 C149.190058,32.8333333 150.572515,33.3517544 151.724561,33.3517544 C153.16462,33.3517544 154.777485,32.602924 155.699123,31.2780702 Z M132.370175,20.6792398 C132.370175,20.6792398 130.75731,21.8888889 130.526901,25.2874269 C130.296491,28.6859649 131.621345,32.1421053 134.155848,32.7181287 C136.690351,33.294152 138.303216,32.602924 138.303216,32.602924 C138.303216,32.602924 138.418421,32.5453216 138.533626,32.4877193 C138.994444,32.3725146 139.743275,32.0845029 140.204094,32.7181287 C140.376901,33.0061404 140.722515,33.6973684 140.722515,34.1581871 C140.722515,34.7342105 140.376901,35.0798246 139.62807,35.3102339 C137.9,35.9438596 133.291813,36.2894737 129.605263,33.8125731 C125.918713,31.3356725 125.169883,23.9049708 127.992398,20.5640351 C130.814912,17.2230994 134.328655,16.1862573 138.87924,17.1654971 L139.973684,17.6263158 C139.973684,17.6263158 140.837719,17.8567251 140.204094,18.9511696 C139.570468,20.045614 139.397661,20.1608187 138.188012,19.8152047 C137.035965,19.4695906 133.983041,19.0087719 132.370175,20.6792398 Z M194.465497,18.0871345 C193.889474,18.0871345 193.428655,17.8567251 193.025439,17.4535088 C192.622222,17.0502924 192.391813,16.5318713 192.391813,15.955848 C192.391813,15.3798246 192.622222,14.8614035 193.025439,14.4581871 C193.428655,14.0549708 193.947076,13.8245614 194.523099,13.8245614 C195.099123,13.8245614 195.617544,14.0549708 196.02076,14.4581871 C196.423977,14.8614035 196.654386,15.3798246 196.654386,15.955848 C196.654386,16.5318713 196.423977,17.0502924 196.02076,17.4535088 C195.559942,17.9143275 195.099123,18.0871345 194.465497,18.0871345 Z M194.465497,17.6263158 C194.926316,17.6263158 195.329532,17.4535088 195.617544,17.1654971 C195.963158,16.819883 196.078363,16.474269 196.078363,16.0134503 C196.078363,15.5526316 195.905556,15.2070175 195.617544,14.8614035 C195.27193,14.5157895 194.926316,14.4005848 194.465497,14.4005848 C194.004678,14.4005848 193.659064,14.5733918 193.31345,14.8614035 C192.967836,15.2070175 192.852632,15.5526316 192.852632,16.0134503 C192.852632,16.474269 193.025439,16.819883 193.31345,17.1654971 C193.659064,17.4535088 194.062281,17.6263158 194.465497,17.6263158 Z M194.119883,17.2807018 L193.716667,17.2807018 C193.716667,17.2807018 193.659064,17.2807018 193.659064,17.2230994 L193.659064,14.7461988 L194.407895,14.7461988 C195.04152,14.7461988 195.329532,15.0342105 195.329532,15.4950292 C195.329532,15.7830409 195.214327,15.955848 194.868713,16.128655 L195.444737,17.1654971 L195.444737,17.2230994 L194.983918,17.2230994 C194.983918,17.2230994 194.926316,17.2230994 194.926316,17.1654971 L194.407895,16.1862573 L194.119883,16.1862573 L194.119883,17.2807018 Z M194.119883,15.8982456 L194.350292,15.8982456 C194.695906,15.8982456 194.868713,15.7830409 194.868713,15.4374269 C194.868713,15.2070175 194.695906,15.0918129 194.407895,15.0918129 L194.119883,15.0918129 L194.119883,15.8982456 Z" id="Sitecore" fill="#231F20" fill-rule="nonzero"></path>
                    <g id="Group-57" transform="translate(66.818713, 39.745614)" fill="#231F20">
                        <path d="M0.53385848,12.0517918 L0.723946199,11.0068854 C0.818990058,11.047783 1.03615088,11.1157538 1.2803848,11.1157538 C2.01251053,11.1157538 2.33911579,10.6267099 2.33911579,9.55473041 L2.33911579,0.543420468 L3.57353392,0.543420468 L3.57353392,9.74481813 C3.57353392,11.3190901 2.8270076,12.2009819 1.41575029,12.2009819 C0.981428655,12.2009819 0.683048538,12.106514 0.53385848,12.0517918" id="Fill-31"></path>
                        <path d="M9.16349532,7.92625468 L9.16349532,6.51499737 L8.89161228,6.51499737 C7.56215029,6.51499737 6.59846316,6.88134825 6.59846316,7.92625468 C6.59846316,8.56391257 7.12782865,8.79489795 7.52125263,8.79489795 C8.22688129,8.79489795 8.76949532,8.44237164 9.16349532,7.92625468 M5.40436667,7.96715234 C5.40436667,6.24369035 7.27701871,5.71432485 8.89161228,5.71432485 L9.16349532,5.71432485 L9.16349532,5.1440617 C9.16349532,4.24892135 8.78331988,3.86874591 7.90142807,3.86874591 C7.27701871,3.86874591 6.76147778,4.08590673 6.20503918,4.56055 L5.63477602,3.78695058 C6.24593684,3.21726345 7.01896023,2.89181023 7.99647193,2.89181023 C9.5027731,2.89181023 10.3034456,3.57036579 10.3034456,5.10374006 L10.3034456,8.00805 C10.3034456,8.71367865 10.3846649,9.24304415 10.4664602,9.58232193 L9.32593392,9.58232193 C9.27178772,9.40548275 9.23089006,9.01205877 9.21764152,8.80872251 C8.81096901,9.33751199 8.10476433,9.74476053 7.29084327,9.74476053 C6.19121462,9.74476053 5.40436667,9.05295643 5.40436667,7.96715234" id="Fill-33"></path>
                        <polygon id="Fill-35" points="11.4417254 3.05447924 12.6899681 3.05447924 14.4543278 8.08949971 14.4814009 8.08949971 16.2186874 3.05447924 17.3995354 3.05447924 14.9975178 9.58197632 13.9117137 9.58197632"></polygon>
                        <path d="M21.9569173,7.92625468 L21.9569173,6.51499737 L21.6850342,6.51499737 C20.3555722,6.51499737 19.3918851,6.88134825 19.3918851,7.92625468 C19.3918851,8.56391257 19.9212506,8.79489795 20.3146746,8.79489795 C21.0203032,8.79489795 21.5629173,8.44237164 21.9569173,7.92625468 M18.1977886,7.96715234 C18.1977886,6.24369035 20.0710167,5.71432485 21.6850342,5.71432485 L21.9569173,5.71432485 L21.9569173,5.1440617 C21.9569173,4.24892135 21.5767418,3.86874591 20.69485,3.86874591 C20.0710167,3.86874591 19.5548997,4.08590673 18.9984611,4.56055 L18.428198,3.78695058 C19.0393588,3.21726345 19.8123822,2.89181023 20.7898939,2.89181023 C22.296195,2.89181023 23.0968675,3.57036579 23.0968675,5.10374006 L23.0968675,8.00805 C23.0968675,8.71367865 23.1780868,9.24304415 23.2598822,9.58232193 L22.1193558,9.58232193 C22.0652096,9.40548275 22.024888,9.01205877 22.0110635,8.80872251 C21.6043909,9.33751199 20.8981863,9.74476053 20.0842652,9.74476053 C18.9852126,9.74476053 18.1977886,9.05295643 18.1977886,7.96715234" id="Fill-37"></path>
                        <path d="M24.668893,8.82202865 L25.2662292,7.95338538 C25.4701415,8.1434731 26.1348725,8.7269848 27.3151444,8.7269848 C28.387124,8.7269848 29.0795041,8.04842924 29.0795041,7.28865439 C29.0795041,6.25699649 28.0616708,5.83649942 27.0167643,5.32038246 C25.9044632,4.77776842 24.940776,4.16718363 24.940776,2.72885322 C24.940776,1.23580058 26.2022673,0.380981871 27.6273491,0.380981871 C28.9982848,0.380981871 29.7448111,0.869449708 30.0570158,1.11368363 L29.4861766,2.0094 C29.174548,1.76516608 28.5501386,1.3988152 27.6411737,1.3988152 C26.7725304,1.3988152 26.1348725,1.88728304 26.1348725,2.67470702 C26.1348725,3.54277427 26.8669982,3.92294971 27.7771152,4.34344678 C28.9712117,4.91370994 30.3006737,5.52429474 30.3006737,7.26158129 C30.3006737,8.7269848 29.0933287,9.74481813 27.2880713,9.74481813 C25.8900626,9.74481813 25.0081708,9.14748187 24.668893,8.82202865" id="Fill-39"></path>
                        <path d="M31.4388383,6.3114883 C31.4388383,4.08573392 32.8368471,2.89163743 34.5326599,2.89163743 C35.6046395,2.89163743 36.2158003,3.27181287 36.528005,3.51547076 L36.0389611,4.35704094 C35.6996833,4.11280702 35.2791863,3.8415 34.5326599,3.8415 C33.2435196,3.8415 32.6600079,4.90023099 32.6600079,6.2844152 C32.6600079,7.64152632 33.2435196,8.78147661 34.5603091,8.78147661 C35.3609816,8.78147661 35.9306687,8.41512573 36.1207564,8.26593567 L36.5550781,9.10692982 C36.283195,9.32409064 35.6461132,9.74458772 34.4923383,9.74458772 C32.5246424,9.74458772 31.4388383,8.15706725 31.4388383,6.3114883" id="Fill-41"></path>
                        <path d="M38.0186383,3.05447924 L39.1585886,3.05447924 L39.1585886,4.04523947 C39.4298956,3.59709327 39.9863342,2.89146462 40.8820506,2.89146462 C41.3025477,2.89146462 41.5197085,2.98650848 41.6147523,3.02740614 L41.3296208,4.09938567 C41.2484015,4.05848801 41.0853868,3.99051725 40.7328605,3.99051725 C39.7962465,3.99051725 39.266881,5.03542368 39.1585886,5.2525845 L39.1585886,9.58197632 L38.0186383,9.58197632 L38.0186383,3.05447924 Z" id="Fill-43"></path>
                        <path d="M42.9027982,9.58214912 L44.0692456,9.58214912 L44.0692456,3.05465205 L42.9027982,3.05465205 L42.9027982,9.58214912 Z M42.6856374,1.10020468 C42.6856374,0.65205848 43.0387398,0.299532164 43.4863099,0.299532164 C43.9338801,0.299532164 44.2869825,0.65205848 44.2869825,1.10020468 C44.2869825,1.53452632 43.9338801,1.90087719 43.4863099,1.90087719 C43.0387398,1.90087719 42.6856374,1.53452632 42.6856374,1.10020468 Z" id="Fill-45"></path>
                        <path d="M50.7322234,6.32502485 C50.7322234,4.91376754 50.2028579,3.88210965 49.0358345,3.88210965 C48.1804398,3.88210965 47.6107526,4.52034357 47.4339135,4.75075292 L47.4339135,8.21150146 C47.7196211,8.46898392 48.1671912,8.7811886 48.9137175,8.7811886 C50.107814,8.7811886 50.7322234,7.76393129 50.7322234,6.32502485 Z M46.2945392,3.05436404 L47.4339135,3.05436404 L47.4339135,3.74674415 C47.7737673,3.33949561 48.384352,2.89192544 49.3071415,2.89192544 C50.9084865,2.89192544 51.9672175,4.14016813 51.9672175,6.29795175 C51.9672175,8.36069152 50.7592965,9.74487573 49.0629076,9.74487573 C48.1671912,9.74487573 47.6787234,9.40559795 47.4339135,9.18843713 L47.4339135,12.5541418 L46.2945392,12.5541418 L46.2945392,3.05436404 Z" id="Fill-47"></path>
                        <path d="M53.8778871,7.95350058 L53.8778871,3.95013801 L52.8059076,3.95013801 L52.8059076,3.05442164 L53.8778871,3.05442164 L53.8778871,1.18176959 L55.0178374,1.18176959 L55.0178374,3.05442164 L56.6462556,3.05442164 L56.6462556,3.95013801 L55.0178374,3.95013801 L55.0178374,7.80431053 C55.0178374,8.45579298 55.2079251,8.76799766 55.7637877,8.76799766 C56.1710363,8.76799766 56.5241386,8.57733392 56.6462556,8.49611462 L57.0126064,9.35150936 C56.8092702,9.48687485 56.3202263,9.74493333 55.5881006,9.74493333 C54.4072526,9.74493333 53.8778871,9.08020234 53.8778871,7.95350058" id="Fill-48"></path>
                        <path d="M60.8368257,8.82202865 L61.434162,7.95338538 C61.6380743,8.1434731 62.3028053,8.7269848 63.4830772,8.7269848 C64.5550567,8.7269848 65.2474368,8.04842924 65.2474368,7.28865439 C65.2474368,6.25699649 64.2296035,5.83649942 63.1846971,5.32038246 C62.0723959,4.77776842 61.1087088,4.16718363 61.1087088,2.72885322 C61.1087088,1.23580058 62.3702,0.380981871 63.7952819,0.380981871 C65.1662175,0.380981871 65.9127439,0.869449708 66.2249485,1.11368363 L65.6541094,2.0094 C65.3424807,1.76516608 64.7180713,1.3988152 63.8091064,1.3988152 C62.9404632,1.3988152 62.3028053,1.88728304 62.3028053,2.67470702 C62.3028053,3.54277427 63.034931,3.92294971 63.945048,4.34344678 C65.1391444,4.91370994 66.4686064,5.52429474 66.4686064,7.26158129 C66.4686064,8.7269848 65.2612614,9.74481813 63.4560041,9.74481813 C62.0579953,9.74481813 61.1761035,9.14748187 60.8368257,8.82202865" id="Fill-49"></path>
                        <path d="M72.0721044,5.49727924 C72.0450313,4.61538743 71.6516073,3.82796345 70.5790518,3.82796345 C69.5882915,3.82796345 69.0456775,4.52034357 68.8832389,5.49727924 L72.0721044,5.49727924 Z M67.6073471,6.27087865 C67.6073471,4.33025585 68.8555898,2.89192544 70.6061249,2.89192544 C72.2621921,2.89192544 73.2258792,4.04512427 73.2258792,5.87745468 C73.2258792,6.03989327 73.2120547,6.20290789 73.1982301,6.37917105 L68.8423412,6.37917105 C68.8832389,7.68213596 69.4252769,8.79501316 70.8232857,8.79501316 C71.7195781,8.79501316 72.3163383,8.40158918 72.6014699,8.23857456 L73.0490401,9.08014474 C72.6965137,9.31055409 71.9770605,9.74487573 70.7691395,9.74487573 C68.6793266,9.74487573 67.6073471,8.23857456 67.6073471,6.27087865 Z" id="Fill-50"></path>
                        <path d="M74.8926029,3.05447924 L76.0325532,3.05447924 L76.0325532,4.04523947 C76.3038602,3.59709327 76.8602988,2.89146462 77.7560152,2.89146462 C78.1765123,2.89146462 78.3936731,2.98650848 78.488717,3.02740614 L78.2035854,4.09938567 C78.1223661,4.05848801 77.9593515,3.99051725 77.6068251,3.99051725 C76.6702111,3.99051725 76.1408456,5.03542368 76.0325532,5.2525845 L76.0325532,9.58197632 L74.8926029,9.58197632 L74.8926029,3.05447924 Z" id="Fill-51"></path>
                        <polygon id="Fill-52" points="78.9753991 3.05447924 80.2236418 3.05447924 81.9880015 8.08949971 82.0150746 8.08949971 83.7523611 3.05447924 84.9332091 3.05447924 82.5311915 9.58197632 81.4453874 9.58197632"></polygon>
                        <path d="M86.3153772,9.58214912 L87.4818246,9.58214912 L87.4818246,3.05465205 L86.3153772,3.05465205 L86.3153772,9.58214912 Z M86.0982164,1.10020468 C86.0982164,0.65205848 86.4507427,0.299532164 86.8983129,0.299532164 C87.3464591,0.299532164 87.6989854,0.65205848 87.6989854,1.10020468 C87.6989854,1.53452632 87.3464591,1.90087719 86.8983129,1.90087719 C86.4507427,1.90087719 86.0982164,1.53452632 86.0982164,1.10020468 Z" id="Fill-53"></path>
                        <path d="M89.1503339,6.3114883 C89.1503339,4.08573392 90.5483427,2.89163743 92.2441556,2.89163743 C93.3161351,2.89163743 93.9272959,3.27181287 94.2395006,3.51547076 L93.7504567,4.35704094 C93.4111789,4.11280702 92.9906819,3.8415 92.2441556,3.8415 C90.9550152,3.8415 90.3715035,4.90023099 90.3715035,6.2844152 C90.3715035,7.64152632 90.9550152,8.78147661 92.2718047,8.78147661 C93.0724772,8.78147661 93.6421643,8.41512573 93.832252,8.26593567 L94.2665737,9.10692982 C93.9946906,9.32409064 93.3576088,9.74458772 92.2038339,9.74458772 C90.236138,9.74458772 89.1503339,8.15706725 89.1503339,6.3114883" id="Fill-54"></path>
                        <path d="M99.6385678,5.49727924 C99.6114947,4.61538743 99.2180708,3.82796345 98.1455152,3.82796345 C97.154755,3.82796345 96.6121409,4.52034357 96.4491263,5.49727924 L99.6385678,5.49727924 Z M95.1738105,6.27087865 C95.1738105,4.33025585 96.4220532,2.89192544 98.1725883,2.89192544 C99.8286556,2.89192544 100.791767,4.04512427 100.791767,5.87745468 C100.791767,6.03989327 100.778518,6.20290789 100.764694,6.37917105 L96.4088047,6.37917105 C96.4491263,7.68213596 96.9923164,8.79501316 98.3897491,8.79501316 C99.2860415,8.79501316 99.8828018,8.40158918 100.167933,8.23857456 L100.615504,9.08014474 C100.262977,9.31055409 99.543524,9.74487573 98.3356029,9.74487573 C96.2457901,9.74487573 95.1738105,8.23857456 95.1738105,6.27087865 Z" id="Fill-55"></path>
                        <path d="M101.902685,9.13423333 L102.377329,8.27941462 C102.621563,8.45567778 103.218899,8.80878012 103.992498,8.80878012 C104.779346,8.80878012 105.26839,8.49657544 105.26839,7.94013684 C105.26839,7.36987368 104.739025,7.13946433 103.788586,6.71839123 C102.784577,6.28406959 102.051875,5.80942632 102.051875,4.72362222 C102.051875,3.67871579 102.866373,2.89186784 104.195835,2.89186784 C105.281639,2.89186784 105.946946,3.32618947 106.16353,3.48862807 L105.647989,4.31637368 C105.41758,4.14011053 104.914712,3.84173041 104.209659,3.84173041 C103.517855,3.84173041 103.150928,4.15393509 103.150928,4.66947602 C103.150928,5.25298772 103.693542,5.4839731 104.42682,5.78235322 C105.471726,6.22992339 106.407764,6.69131813 106.407764,7.79037076 C106.407764,9.01211637 105.485551,9.75806667 104.019571,9.75806667 C103.042636,9.75806667 102.309358,9.41936491 101.902685,9.13423333" id="Fill-56"></path>
                    </g>
                </g>
            </g>
        </g>
    </g>
</svg>