<svg id="Layer_1" data-name="Layer 1" xmlns="http://www.w3.org/2000/svg" viewBox="0 0 672 148"><defs><style>.cls-1{fill:#ee3524;}</style></defs><title>sitecore_logo_red-black</title><path d="M647.75,100.46V88.22H620.17V75.9h24.65V64.41H620.17V53.17h26.08V41.1H606.33v59.36ZM573,63a6.3,6.3,0,0,1-2.49,2.18,11.17,11.17,0,0,1-3.37,1,22.57,22.57,0,0,1-3.62.3H556.7V52.67h7.66a22.75,22.75,0,0,1,3.33.25,9.91,9.91,0,0,1,3.12,1,6,6,0,0,1,2.27,2,5.93,5.93,0,0,1,.89,3.39A6.48,6.48,0,0,1,573,63m18.33,37.48-15.52-25.4a17.87,17.87,0,0,0,9.06-5.87A15.78,15.78,0,0,0,588.14,59a17.22,17.22,0,0,0-1.93-8.55A15.49,15.49,0,0,0,581.05,45a21.67,21.67,0,0,0-7.29-3,39.09,39.09,0,0,0-8.34-.88H542.78v59.36h14V76.9h4.89l12.89,23.56ZM510.41,78a17.26,17.26,0,0,1-3.52,5.83,16.31,16.31,0,0,1-5.37,3.81,17.7,17.7,0,0,1-13.75,0,15.91,15.91,0,0,1-5.32-3.81A17.66,17.66,0,0,1,479,78a22.2,22.2,0,0,1,0-14.63,16.22,16.22,0,0,1,3.48-5.74,16.43,16.43,0,0,1,12.24-5.16,17.07,17.07,0,0,1,6.92,1.38,16,16,0,0,1,5.36,3.78,17.14,17.14,0,0,1,3.48,5.74,20.35,20.35,0,0,1,1.26,7.21A21.17,21.17,0,0,1,510.41,78m14.17-20.29a28.12,28.12,0,0,0-6.75-9.77,30,30,0,0,0-10.27-6.2,39.2,39.2,0,0,0-25.78,0,30.08,30.08,0,0,0-10.23,6.2,28.12,28.12,0,0,0-6.75,9.77,32.73,32.73,0,0,0-2.43,12.87A33.12,33.12,0,0,0,464.8,83.4a29.26,29.26,0,0,0,6.75,10,30.09,30.09,0,0,0,10.23,6.41,37.73,37.73,0,0,0,25.78,0,30,30,0,0,0,10.27-6.41,29.26,29.26,0,0,0,6.75-10A33.12,33.12,0,0,0,527,70.53a32.73,32.73,0,0,0-2.43-12.87M453.73,92.25l-10-9.39a14.55,14.55,0,0,1-5.11,4.36,15.8,15.8,0,0,1-7.47,1.67,16.86,16.86,0,0,1-6.79-1.34,15.6,15.6,0,0,1-5.32-3.73,17.24,17.24,0,0,1-3.48-5.74,20.86,20.86,0,0,1-1.26-7.38,20.18,20.18,0,0,1,1.26-7.25,17.39,17.39,0,0,1,3.52-5.75,16.17,16.17,0,0,1,5.41-3.81,16.87,16.87,0,0,1,6.92-1.39,17.62,17.62,0,0,1,6.71,1.34A12.16,12.16,0,0,1,443.42,58l9.72-9.72a23.66,23.66,0,0,0-9.85-6.5,36.69,36.69,0,0,0-25,0A30.28,30.28,0,0,0,408,47.93a28.81,28.81,0,0,0-6.83,9.86,32.48,32.48,0,0,0-2.47,12.91,32.54,32.54,0,0,0,2.43,12.74A29.31,29.31,0,0,0,418,99.79a34.75,34.75,0,0,0,12.7,2.27A31.78,31.78,0,0,0,444,99.42a28.37,28.37,0,0,0,9.73-7.17m-68.42,8.21V88.22H357.73V75.9h24.65V64.41H357.73V53.17H383.8V41.1H343.89v59.36ZM328.13,53.34V41.1H280.25V53.34H297v47.12h14.34V53.34ZM264.49,41.1H250.06v59.36h14.43Zm-31.86,5.78a26.49,26.49,0,0,0-9.19-5.44,30.77,30.77,0,0,0-10.27-1.85,33.43,33.43,0,0,0-8.3,1A22.7,22.7,0,0,0,197.49,44a17.53,17.53,0,0,0-5.28,5.78,16.85,16.85,0,0,0-2,8.47A16.15,16.15,0,0,0,191.5,65a14.89,14.89,0,0,0,3.44,4.78,18.63,18.63,0,0,0,4.86,3.23,50.32,50.32,0,0,0,5.58,2.17q2.93.93,5.24,1.72a19.34,19.34,0,0,1,3.85,1.77,8.11,8.11,0,0,1,2.39,2.13,4.8,4.8,0,0,1,.84,2.85,6.3,6.3,0,0,1-.67,3,5.47,5.47,0,0,1-1.8,2,7.62,7.62,0,0,1-2.64,1.09,13.92,13.92,0,0,1-3.11.34,15.59,15.59,0,0,1-7.08-1.8,17.23,17.23,0,0,1-5.74-4.49l-9.4,9.56a26.12,26.12,0,0,0,9.9,6.33A35,35,0,0,0,209.48,102,30.77,30.77,0,0,0,218,100.8a21.6,21.6,0,0,0,7.3-3.61A17.66,17.66,0,0,0,230.32,91a19.37,19.37,0,0,0,1.89-8.84,14.44,14.44,0,0,0-1.76-7.43,17,17,0,0,0-4.45-5,23.25,23.25,0,0,0-5.95-3.23q-3.27-1.22-6.29-2.23c-1.4-.44-2.66-.87-3.77-1.29a16.71,16.71,0,0,1-2.9-1.39,5.57,5.57,0,0,1-1.84-1.76,4.65,4.65,0,0,1-.63-2.51,4.94,4.94,0,0,1,.8-2.9,6.41,6.41,0,0,1,2-1.84,7.39,7.39,0,0,1,2.64-1,17.91,17.91,0,0,1,2.89-.25,13.45,13.45,0,0,1,5.74,1.39,12.86,12.86,0,0,1,4.83,3.73Z"/><path class="cls-1" d="M70.86,107.15a44.49,44.49,0,0,0,16-5.17C99,95.22,106,83.6,106.58,69.26l.06-1.24h16.81a49.34,49.34,0,0,0-9.09-23l-17.21,11c5.24,8.2,5.91,17.29,1.94,26.37-4.71,10.76-15.8,20.19-28.23,24.68"/><path class="cls-1" d="M123.7,70.61H109.1c-1,14.51-8.59,26.72-21,33.63a48,48,0,0,1-23.4,5.91,54,54,0,0,1-19.09-3.53,46.53,46.53,0,0,0,24.56,7.24h.13A43.08,43.08,0,0,0,108,91.61l.67-1.18,9.77,6.2a49.27,49.27,0,0,0,5.39-22.44c0-1.21-.06-2.4-.15-3.58"/><path class="cls-1" d="M70.28,116.45h-.14c-15.64,0-30.35-7.8-40.81-21.13a49.6,49.6,0,0,0,87.89,3.59l-7.63-4.85a45.6,45.6,0,0,1-39.31,22.39"/><path class="cls-1" d="M74.22,126.4a52.22,52.22,0,1,1,52.22-52.21A52.21,52.21,0,0,1,74.22,126.4m0-124A71.82,71.82,0,1,0,146,74.19,71.82,71.82,0,0,0,74.22,2.37"/><path d="M663.17,46.69V44.8h1.08a2.25,2.25,0,0,1,.89.18.71.71,0,0,1,.43.72.77.77,0,0,1-.47.79,2.49,2.49,0,0,1-1,.2ZM662,50.4h1.19V47.64H664l1.55,2.76H667l-1.78-2.89a2,2,0,0,0,1.11-.6,1.68,1.68,0,0,0,.41-1.18,1.66,1.66,0,0,0-.76-1.5,2.44,2.44,0,0,0-.79-.33,3.82,3.82,0,0,0-.9-.1H662Zm-2.27-5.21a5,5,0,0,1,2.63-2.63,5,5,0,0,1,3.87,0,5,5,0,0,1,1.58,1.06,5,5,0,0,1,1.44,3.5,4.73,4.73,0,0,1-.39,1.91,4.9,4.9,0,0,1-2.63,2.66,5,5,0,0,1-3.87,0,4.76,4.76,0,0,1-1.57-1.07A5,5,0,0,1,659.71,49a4.73,4.73,0,0,1-.39-1.91,4.82,4.82,0,0,1,.39-1.93m-.85,4.21a5.87,5.87,0,0,0,5.42,3.53,5.88,5.88,0,0,0,4.15-1.69,5.93,5.93,0,0,0,1.27-1.84,5.88,5.88,0,0,0,0-4.56A6,6,0,0,0,668.43,43a6.19,6.19,0,0,0-1.87-1.25,5.63,5.63,0,0,0-2.28-.46,5.71,5.71,0,0,0-2.29.46A6.32,6.32,0,0,0,660.12,43a6,6,0,0,0-1.26,1.86,5.77,5.77,0,0,0,0,4.56"/></svg>