<?xml version="1.0" encoding="UTF-8"?>
<svg xmlns="http://www.w3.org/2000/svg" xmlns:xlink="http://www.w3.org/1999/xlink" width="119.41pt" height="25.38pt" viewBox="0 0 119.41 25.38" version="1.1">
<defs>
<clipPath id="clip1">
  <path d="M 94 0 L 119.410156 0 L 119.410156 25.378906 L 94 25.378906 Z M 94 0 "/>
</clipPath>
</defs>
<g id="surface1">
<path style=" stroke:none;fill-rule:nonzero;fill:rgb(25.498962%,25.099182%,25.898743%);fill-opacity:1;" d="M 18.539063 14.503906 L 21.507813 14.503906 L 20.035156 8.027344 Z M 27.089844 20.421875 L 23.472656 20.421875 L 22.636719 17.40625 L 17.457031 17.40625 L 16.621094 20.421875 L 13 20.421875 L 17.714844 4.964844 L 22.355469 4.964844 L 27.089844 20.421875 "/>
<path style=" stroke:none;fill-rule:nonzero;fill:rgb(25.498962%,25.099182%,25.898743%);fill-opacity:1;" d="M 28.835938 20.421875 L 28.835938 4.964844 L 32.316406 4.964844 L 32.316406 17.335938 L 38.445313 17.335938 L 38.445313 20.421875 L 28.835938 20.421875 "/>
<path style=" stroke:none;fill-rule:nonzero;fill:rgb(25.498962%,25.099182%,25.898743%);fill-opacity:1;" d="M 45.015625 8.050781 L 45.015625 20.421875 L 41.535156 20.421875 L 41.535156 8.050781 L 37.378906 8.050781 L 37.378906 4.964844 L 49.171875 4.964844 L 49.171875 8.050781 L 45.015625 8.050781 "/>
<path style=" stroke:none;fill-rule:nonzero;fill:rgb(25.498962%,25.099182%,25.898743%);fill-opacity:1;" d="M 50.960938 20.421875 L 50.960938 4.964844 L 60.6875 4.964844 L 60.6875 8.050781 L 54.441406 8.050781 L 54.441406 10.882813 L 60.203125 10.882813 L 60.203125 13.96875 L 54.441406 13.96875 L 54.441406 17.335938 L 60.6875 17.335938 L 60.6875 20.421875 L 50.960938 20.421875 "/>
<path style=" stroke:none;fill-rule:nonzero;fill:rgb(25.498962%,25.099182%,25.898743%);fill-opacity:1;" d="M 66.566406 15.28125 C 66.566406 16.59375 66.996094 17.359375 68.664063 17.359375 C 69.746094 17.359375 71.234375 17.226563 72.542969 17 L 73.015625 19.949219 C 71.527344 20.265625 70.175781 20.425781 68.664063 20.425781 C 64.878906 20.425781 63.183594 18.554688 63.183594 15.828125 L 63.183594 9.558594 C 63.183594 6.832031 64.878906 4.960938 68.664063 4.960938 C 70.175781 4.960938 71.527344 5.117188 73.015625 5.433594 L 72.542969 8.386719 C 71.234375 8.164063 69.746094 8.027344 68.664063 8.027344 C 66.996094 8.027344 66.566406 8.792969 66.566406 10.101563 L 66.566406 15.28125 "/>
<path style=" stroke:none;fill-rule:nonzero;fill:rgb(25.498962%,25.099182%,25.898743%);fill-opacity:1;" d="M 83.8125 20.421875 L 83.8125 14.203125 L 78.820313 14.203125 L 78.820313 20.421875 L 75.335938 20.421875 L 75.335938 4.964844 L 78.820313 4.964844 L 78.820313 11.117188 L 83.8125 11.117188 L 83.8125 4.964844 L 87.289063 4.964844 L 87.289063 20.421875 L 83.8125 20.421875 "/>
<path style=" stroke:none;fill-rule:nonzero;fill:rgb(25.498962%,25.099182%,25.898743%);fill-opacity:1;" d="M 9.332031 20.421875 L 4.363281 20.421875 L 0 4.964844 L 5.042969 4.964844 L 6.847656 15.800781 L 8.65625 4.964844 L 13.695313 4.964844 L 9.332031 20.421875 "/>
<g clip-path="url(#clip1)" clip-rule="nonzero">
<path style=" stroke:none;fill-rule:nonzero;fill:rgb(96.899414%,57.998657%,11.399841%);fill-opacity:1;" d="M 115.980469 14.929688 C 115.980469 16.457031 115.980469 17.984375 115.980469 19.515625 C 115.980469 20.609375 115.921875 21.882813 114.476563 21.953125 C 109.316406 21.953125 104.160156 21.953125 99.007813 21.953125 C 97.734375 21.953125 97.457031 20.871094 97.457031 19.855469 C 97.457031 18.507813 97.457031 17.160156 97.457031 15.8125 C 97.457031 12.496094 97.457031 9.183594 97.457031 5.871094 C 97.457031 4.765625 97.484375 3.75 98.804688 3.429688 C 99.496094 3.261719 100.429688 3.429688 101.132813 3.429688 C 104.617188 3.429688 108.105469 3.429688 111.589844 3.429688 C 112.527344 3.429688 113.46875 3.429688 114.410156 3.429688 C 115.628906 3.429688 115.980469 4.429688 115.980469 5.441406 C 115.980469 8.601563 115.980469 11.765625 115.980469 14.929688 Z M 114.457031 0.00390625 C 111.804688 0.00390625 109.152344 0.00390625 106.503906 0.00390625 C 103.996094 0.00390625 101.492188 0.00390625 98.988281 0.00390625 C 96.296875 0.00390625 94.03125 2.261719 94.03125 4.953125 C 94.03125 5.84375 94.03125 6.730469 94.03125 7.617188 C 94.03125 11.109375 94.03125 14.597656 94.03125 18.089844 C 94.03125 18.867188 94.03125 19.644531 94.03125 20.421875 C 94.03125 23.117188 96.285156 25.378906 98.980469 25.378906 C 104.136719 25.378906 109.292969 25.378906 114.445313 25.378906 C 114.535156 25.378906 114.617188 25.371094 114.699219 25.367188 C 117.28125 25.125 119.40625 23.132813 119.40625 20.429688 C 119.40625 19.539063 119.40625 18.65625 119.40625 17.769531 C 119.40625 14.277344 119.40625 10.789063 119.40625 7.296875 C 119.40625 6.515625 119.40625 5.742188 119.40625 4.964844 C 119.40625 2.269531 117.152344 0.00390625 114.457031 0.00390625 "/>
</g>
<path style=" stroke:none;fill-rule:nonzero;fill:rgb(96.899414%,57.998657%,11.399841%);fill-opacity:1;" d="M 113.230469 10.601563 L 113.230469 14.785156 L 100.203125 18.460938 L 100.203125 15.449219 L 110.570313 12.695313 L 100.203125 9.933594 L 100.203125 6.925781 L 113.230469 10.601563 "/>
</g>
</svg>
