<svg id="Layer_1" data-name="Layer 1" xmlns="http://www.w3.org/2000/svg" viewBox="0 0 500 269.04">
  <defs>
    <style>
      .cls-1 {
        opacity: 0.3;
      }

      .cls-2 {
        fill: #a5b9c9;
      }

      .cls-3, .cls-4, .cls-7 {
        fill: none;
        stroke: #008998;
        stroke-linecap: round;
        stroke-linejoin: round;
        stroke-width: 4.14px;
      }

      .cls-4 {
        stroke-dasharray: 12.5 12.5;
      }

      .cls-5 {
        fill: #fff;
      }

      .cls-6 {
        fill: #008998;
      }

      .cls-7 {
        stroke-dasharray: 12.55 12.55;
      }
    </style>
  </defs>
  <title>AppIntegration</title>
  <g class="cls-1">
    <path class="cls-2" d="M358.09,41.39h-103a10.38,10.38,0,0,0,10.35-10.34h0A10.38,10.38,0,0,0,255.07,20.7h103a10.38,10.38,0,0,0-10.35,10.35h0A10.38,10.38,0,0,0,358.09,41.39Z"/>
    <path class="cls-2" d="M179.25,82.78H74.69A10.38,10.38,0,0,0,85,72.44h0A10.38,10.38,0,0,0,74.69,62.1H179.25A10.37,10.37,0,0,0,168.9,72.44h0A10.37,10.37,0,0,0,179.25,82.78Z"/>
    <path class="cls-2" d="M417.58,124.18H248.9a10.38,10.38,0,0,0,10.35-10.35h0a10.38,10.38,0,0,0-10.35-10.34H417.58a10.37,10.37,0,0,0-10.34,10.34h0A10.38,10.38,0,0,0,417.58,124.18Z"/>
    <path class="cls-2" d="M233.25,165.57H103.45a10.38,10.38,0,0,0,10.35-10.35h0a10.38,10.38,0,0,0-10.35-10.34h129.8a10.37,10.37,0,0,0-10.35,10.34h0A10.38,10.38,0,0,0,233.25,165.57Z"/>
    <path class="cls-2" d="M331,207H211.47a10.38,10.38,0,0,0,10.35-10.34h0a10.38,10.38,0,0,0-10.35-10.35H331a10.38,10.38,0,0,0-10.35,10.35h0A10.38,10.38,0,0,0,331,207Z"/>
    <g>
      <rect class="cls-2" x="134.6" width="288.64" height="20.69" rx="10.34" ry="10.34"/>
      <rect class="cls-2" x="25.57" y="41.39" width="369.68" height="20.69" rx="10.34" ry="10.34"/>
      <rect class="cls-2" x="44.9" y="82.78" width="398.69" height="20.69" rx="10.34" ry="10.34"/>
      <rect class="cls-2" x="55.19" y="124.18" width="401.8" height="20.69" rx="10.34" ry="10.34"/>
      <rect class="cls-2" x="34.95" y="165.57" width="372.98" height="20.69" rx="10.34" ry="10.34"/>
      <rect class="cls-2" x="26.23" y="206.96" width="344.02" height="20.69" rx="10.34" ry="10.34"/>
      <rect class="cls-2" x="55.91" y="248.35" width="214.67" height="20.69" rx="10.34" ry="10.34"/>
    </g>
    <path class="cls-2" d="M239.76,248.35H81.4A10.38,10.38,0,0,0,91.75,238h0A10.38,10.38,0,0,0,81.4,227.66H239.76A10.38,10.38,0,0,0,229.41,238h0A10.38,10.38,0,0,0,239.76,248.35Z"/>
  </g>
  <g>
    <line class="cls-3" x1="177.63" y1="128.35" x2="183.84" y2="128.35"/>
    <path class="cls-4" d="M196.34,128.35h3.75c24.31,0,28.44-11.17,28.44-24.82V69.39a24.9,24.9,0,0,1,24.83-24.82h23"/>
    <line class="cls-3" x1="282.65" y1="44.57" x2="288.86" y2="44.57"/>
    <g>
      <path class="cls-5" d="M178.25,139.24a10.89,10.89,0,1,1,10.89-10.89A10.9,10.9,0,0,1,178.25,139.24Z"/>
      <path class="cls-6" d="M178.25,140.69a12.34,12.34,0,1,0-12.34-12.34,12.36,12.36,0,0,0,12.34,12.34Zm0-21.78a9.44,9.44,0,1,1-9.44,9.44,9.44,9.44,0,0,1,9.44-9.44Z"/>
    </g>
    <g>
      <path class="cls-5" d="M288.24,55.46a10.89,10.89,0,1,0-10.89-10.89A10.9,10.9,0,0,0,288.24,55.46Z"/>
      <path class="cls-6" d="M288.24,56.91a12.34,12.34,0,1,1,12.34-12.34,12.35,12.35,0,0,1-12.34,12.34Zm0-21.78a9.44,9.44,0,1,0,9.44,9.44,9.45,9.45,0,0,0-9.44-9.44Z"/>
    </g>
  </g>
  <g>
    <line class="cls-3" x1="177.63" y1="128.51" x2="183.84" y2="128.51"/>
    <path class="cls-7" d="M196.39,128.51h3.7c24.31,0,28.44,11.17,28.44,24.82v34.14a24.9,24.9,0,0,0,24.83,24.82h23.69"/>
    <line class="cls-3" x1="283.32" y1="212.29" x2="289.53" y2="212.29"/>
    <g>
      <path class="cls-5" d="M178.25,139.4a10.89,10.89,0,1,1,10.89-10.89A10.9,10.9,0,0,1,178.25,139.4Z"/>
      <path class="cls-6" d="M178.25,140.85a12.34,12.34,0,1,0-12.34-12.34,12.36,12.36,0,0,0,12.34,12.34Zm0-21.78a9.44,9.44,0,1,1-9.44,9.44,9.44,9.44,0,0,1,9.44-9.44Z"/>
    </g>
    <g>
      <path class="cls-5" d="M288.91,223.18A10.89,10.89,0,1,0,278,212.29,10.9,10.9,0,0,0,288.91,223.18Z"/>
      <path class="cls-6" d="M288.91,224.63a12.34,12.34,0,1,1,12.34-12.34,12.36,12.36,0,0,1-12.34,12.34Zm0-21.78a9.44,9.44,0,1,0,9.44,9.44,9.44,9.44,0,0,0-9.44-9.44Z"/>
    </g>
  </g>
  <g>
    <g>
      <path class="cls-5" d="M378.71,129.93c30,0,54.29,24.55,54.29,54.65s-24.42,54.65-54.29,54.65-54.28-24.54-54.28-54.65,24.3-54.65,54.28-54.65"/>
      <path d="M379.32,233.55a49.21,49.21,0,1,0-49-49.21,49.21,49.21,0,0,0,49,49.21m0-4.6a44.61,44.61,0,1,1,44.37-44.61c-.12,24.54-19.95,44.61-44.37,44.61Z"/>
      <path d="M343.17,197.64s6.41,25,31.31,27.69,37.48-19,37.48-19l-6.65-4.12s-10.39,17.54-29,16.93S348.37,207.31,343.17,197.64Z"/>
      <path d="M356.23,208.28a36,36,0,0,0,20.07,6.41c17.77.6,28.05-16.32,28.17-16.45l.48-.84.85.48,6.28,3.87c5.81-9.43,4.36-20.07,4.36-20.07l-11.61.12s.85,17-19.59,26.72c-8.58,4-22.85,3.39-31.55-3.38A12.32,12.32,0,0,0,356.23,208.28Z"/>
      <path d="M401,179.38v-1h1l12.21-.12c-.48-9.44-7.74-17.78-7.74-17.78L392.74,169s8.7,6.52.85,21.88c-2.78,5.32-8.59,11.12-14,13.66a32,32,0,0,1-11.73,3.27c.73.24,7.14,1.57,16.08-2.42C401.57,197.52,401,180.11,401,179.38Z"/>
    </g>
    <g>
      <path d="M391.73,129a2.42,2.42,0,1,0-1.12,4.71,52,52,0,0,1,40,50.84c0,28.8-23.26,52.23-51.86,52.23a52,52,0,0,1-50-38.35,2.42,2.42,0,0,0-4.67,1.26,56.8,56.8,0,0,0,54.69,41.93c31.26,0,56.7-25.6,56.7-57.07A56.8,56.8,0,0,0,391.73,129Z"/>
      <path d="M326.73,184.58a52.16,52.16,0,0,1,27.38-46,2.42,2.42,0,1,0-2.3-4.26,57,57,0,0,0-29.92,50.25,2.42,2.42,0,1,0,4.84,0Z"/>
      <path d="M365.53,134a2.48,2.48,0,0,0,.54-.06,56.68,56.68,0,0,1,12.65-1.51,2.54,2.54,0,0,0,.83-.15l.08,0h0a2.44,2.44,0,0,0,1.23-1.16L381,131c0-.08,0-.15.06-.22a2.38,2.38,0,0,0-1.37-3h0a.48.48,0,0,0-.17,0,2.3,2.3,0,0,0-.74-.13A60.83,60.83,0,0,0,365,129.27a2.42,2.42,0,0,0,.53,4.77Z"/>
    </g>
  </g>
  <g>
    <path class="cls-6" d="M100.76,201.14a5.54,5.54,0,1,0,5.54,5.54,5.55,5.55,0,0,0-5.54-5.54Zm0,5.87a.33.33,0,0,1,0-.66.33.33,0,1,1,0,.66Zm0,0"/>
    <path class="cls-6" d="M132.51,47.46H127a2.81,2.81,0,0,0,0,5.62h5.56a12.33,12.33,0,0,1,12.31,12.31v6.07H55.17V65.39a12.32,12.32,0,0,1,12.3-12.31h48.34a2.81,2.81,0,1,0,0-5.62H67.47A17.94,17.94,0,0,0,49.55,65.39V204.15a17.94,17.94,0,0,0,17.92,17.92h65a17.94,17.94,0,0,0,17.92-17.92V65.39a17.94,17.94,0,0,0-17.92-17.93Zm0,169h-65a12.32,12.32,0,0,1-12.3-12.31V77.07h89.65V191.46H63.64a2.81,2.81,0,0,0,0,5.62h81.18v7.07a12.33,12.33,0,0,1-12.31,12.31Zm0,0"/>
    <path d="M81.43,148.76a2.8,2.8,0,1,0,4-4L73.34,132.73l12.06-12a2.81,2.81,0,1,0-4-4l-14.05,14a2.81,2.81,0,0,0,0,4Zm0,0"/>
    <path d="M116.13,148.76a2.79,2.79,0,0,0,4,0l14-14a2.8,2.8,0,0,0,0-4l-14-14a2.81,2.81,0,1,0-4,4l12.06,12L116.13,144.8a2.81,2.81,0,0,0,0,4Zm0,0"/>
    <path d="M94.61,160.77a3.29,3.29,0,0,0,.54,0,2.81,2.81,0,0,0,2.75-2.26L107.83,108a2.81,2.81,0,1,0-5.51-1.08l-9.93,50.55a2.81,2.81,0,0,0,2.22,3.3Zm0,0"/>
  </g>
  <path class="cls-5" d="M98.9,237.84s-14.7-1.84-25,13c0,0-24.25-3.12-27.38,23,0,0-.37,19.3,23.52,21.87l59.9-.55s19.3-3.31,19.3-22.42c0,0-1.29-23.15-26.83-21.5C122.42,251.25,114.67,237.84,98.9,237.84Z"/>
  <g>
    <path d="M384,107.3h29.94a30.5,30.5,0,0,0,0-61,29,29,0,0,0-4.15.29,38.78,38.78,0,0,0-64.2,0,29.15,29.15,0,0,0-4.15-.29,30.5,30.5,0,1,0,0,61H384ZM316.15,76.81A25.27,25.27,0,0,1,346.32,52a2.61,2.61,0,0,0,2.73-1.19,33.57,33.57,0,0,1,57.23,0A2.61,2.61,0,0,0,409,52a25.69,25.69,0,0,1,4.91-.48,25.27,25.27,0,0,1,0,50.53h-72.5A25.3,25.3,0,0,1,316.15,76.81Z"/>
    <path class="cls-6" d="M377.67,40.73a27.57,27.57,0,0,0-9.24,1.58,2.61,2.61,0,0,0,1.74,4.93,22.51,22.51,0,0,1,25,7.07,2.62,2.62,0,0,0,2,1,2.59,2.59,0,0,0,1.64-.58,2.62,2.62,0,0,0,.39-3.68A27.61,27.61,0,0,0,377.67,40.73Z"/>
    <path class="cls-6" d="M341.42,57.46a19.3,19.3,0,0,0-12.9,4.93A2.61,2.61,0,1,0,332,66.28a14.12,14.12,0,0,1,9.41-3.59,2.62,2.62,0,0,0,0-5.23Z"/>
    <path class="cls-6" d="M427.23,72.11a2.62,2.62,0,0,0,2.47,1.75,2.65,2.65,0,0,0,.87-.15,2.62,2.62,0,0,0,1.6-3.33,19.38,19.38,0,0,0-18.25-12.92,2.62,2.62,0,1,0,0,5.23A14.13,14.13,0,0,1,427.23,72.11Z"/>
  </g>
  <polygon class="cls-5" points="224.35 109.64 221.45 121.52 208.77 122.58 208.24 134.47 217.75 135 224.88 146.88 219.86 154.28 229.63 159.56 235.71 154.02 248.13 152.96 253.67 160.88 263.98 155.34 260.01 146.09 266.09 135.52 276.13 135.52 276.39 123.37 266.35 122.05 260.54 110.96 264.77 101.98 254.2 96.96 249.71 104.35 236.24 105.15 229.9 96.43 220.92 101.71 224.35 109.64"/>
  <path class="cls-6" d="M245,119.38a2.93,2.93,0,0,0,1.46-5.68,15.13,15.13,0,0,0-3.86-.49,15.47,15.47,0,0,0-15.45,15.45,15.71,15.71,0,0,0,.49,3.86,2.93,2.93,0,0,0,2.84,2.2,3.1,3.1,0,0,0,.73-.09,3,3,0,0,0,2.11-3.58,9.59,9.59,0,0,1,9.28-12A9.68,9.68,0,0,1,245,119.38Z"/>
  <path class="cls-6" d="M254,122.69a2.93,2.93,0,0,0-2.11,3.57,9.6,9.6,0,0,1-11.68,11.68,2.93,2.93,0,1,0-1.46,5.68,15.65,15.65,0,0,0,3.86.49A15.47,15.47,0,0,0,258,128.66a15.26,15.26,0,0,0-.49-3.87A2.93,2.93,0,0,0,254,122.69Z"/>
  <path d="M273.85,119.47H269a28,28,0,0,0-5.23-9.08l2.45-4.23A6.07,6.07,0,0,0,264,97.88l-5.42-3.13A6,6,0,0,0,250.25,97l-2.45,4.24a27.17,27.17,0,0,0-10.48,0L234.88,97a6,6,0,0,0-8.28-2.22l-5.42,3.13a6.06,6.06,0,0,0-2.22,8.28l2.44,4.23a28,28,0,0,0-5.22,9.08h-4.91a6.07,6.07,0,0,0-6.06,6.06v6.26a6.07,6.07,0,0,0,6.06,6.06h4.91a28,28,0,0,0,5.22,9.08L219,151.16a6.06,6.06,0,0,0,2.22,8.28l5.42,3.13a6,6,0,0,0,3,.81,6.08,6.08,0,0,0,5.26-3l2.44-4.24a27.17,27.17,0,0,0,10.48,0l2.45,4.24a6.06,6.06,0,0,0,8.28,2.22l5.42-3.13a6.06,6.06,0,0,0,2.21-8.28l-2.44-4.23a28,28,0,0,0,5.23-9.08h4.9a6.07,6.07,0,0,0,6.06-6.06v-6.26A6.07,6.07,0,0,0,273.85,119.47Zm.2,12.32a.19.19,0,0,1-.2.19h-7.08a2.94,2.94,0,0,0-2.84,2.21A22,22,0,0,1,258,144.42a2.93,2.93,0,0,0-.49,3.56l3.53,6.11a.19.19,0,0,1-.07.27l-5.42,3.13a.19.19,0,0,1-.26-.07l-3.54-6.13a3,3,0,0,0-3.32-1.36,21.42,21.42,0,0,1-11.81,0,3,3,0,0,0-3.33,1.36l-3.53,6.13a.21.21,0,0,1-.27.07l-5.42-3.13a.19.19,0,0,1-.07-.27l3.53-6.11a2.93,2.93,0,0,0-.49-3.56,22.1,22.1,0,0,1-5.89-10.24,2.93,2.93,0,0,0-2.84-2.2h-7.08a.18.18,0,0,1-.19-.19v-6.26a.18.18,0,0,1,.19-.19h7.08a2.93,2.93,0,0,0,2.84-2.21,22.12,22.12,0,0,1,5.89-10.23,2.93,2.93,0,0,0,.49-3.56L224,103.23a.19.19,0,0,1,.07-.27l5.42-3.13a.2.2,0,0,1,.15,0,.17.17,0,0,1,.12.09l3.53,6.13a3,3,0,0,0,3.33,1.36,21.42,21.42,0,0,1,11.81,0,3,3,0,0,0,3.32-1.36l3.54-6.13a.17.17,0,0,1,.12-.09.17.17,0,0,1,.14,0L261,103a.19.19,0,0,1,.08.26l-3.54,6.12a2.93,2.93,0,0,0,.49,3.56,22,22,0,0,1,5.89,10.23,2.93,2.93,0,0,0,2.84,2.2h7.08a.2.2,0,0,1,.2.2Z"/>
</svg>
