<svg id="Developer" xmlns="http://www.w3.org/2000/svg" viewBox="0 0 128 128">
  <defs>
    <style>
      .cls-1 {
        fill: #fff;
      }

      .cls-2 {
        fill: #a5b9c9;
      }

      .cls-3 {
        fill: #008998;
      }
    </style>
  </defs>
  <title>Icon-Sheet</title>
  <path class="cls-1" d="M117.79,84.25l-11.36-4.87-.55-.19V71.31a17.81,17.81,0,0,0,5.9-13.23v-4a17.81,17.81,0,0,0-5.9-13.23V36h0a1.87,1.87,0,0,0,1.87-1.88v-6a7.87,7.87,0,0,0-7.86-7.87H12a7.88,7.88,0,0,0-7.87,7.87v56A7.88,7.88,0,0,0,12,91.92H49.44l-1.13,4.29a1.86,1.86,0,0,0-2.16,1.38l-1.64,6.57H40a1.88,1.88,0,0,0,0,3.75H60A1.88,1.88,0,0,0,61.83,106c0-.11,0-.22,0-.33l3.63.08A5.86,5.86,0,0,0,70,107.91h48a5.88,5.88,0,0,0,5.87-5.87V93.32A9.87,9.87,0,0,0,117.79,84.25Z"/>
  <path class="cls-2" d="M59.83,90.05A1.87,1.87,0,0,0,58,88.18H12a4.13,4.13,0,0,1-4.12-4.12V28.11A4.13,4.13,0,0,1,12,24H99.92A4.13,4.13,0,0,1,104,28.11v6a1.87,1.87,0,1,0,3.74,0v-6a7.87,7.87,0,0,0-7.86-7.87H12a7.88,7.88,0,0,0-7.87,7.87v56A7.88,7.88,0,0,0,12,91.92H58A1.87,1.87,0,0,0,59.83,90.05Z"/>
  <path class="cls-2" d="M87.8,30.11a1.87,1.87,0,0,0-1.87-1.88H14a1.87,1.87,0,0,0-1.87,1.88v40a1.87,1.87,0,0,0,3.74,0V32H85.93A1.87,1.87,0,0,0,87.8,30.11Z"/>
  <path class="cls-2" d="M65.82,82.06A1.87,1.87,0,0,0,64,80.18H15.87V78.06a1.87,1.87,0,0,0-3.74,0v4A1.87,1.87,0,0,0,14,83.93H64A1.87,1.87,0,0,0,65.82,82.06Z"/>
  <path class="cls-2" d="M97.92,32a1.88,1.88,0,0,0,0-3.75h-4a1.88,1.88,0,0,0,0,3.75Z"/>
  <path class="cls-3" d="M38.78,71.25a1.88,1.88,0,0,0,3.64.91l7.61-30a1.88,1.88,0,0,0-3.64-.91Z"/>
  <path class="cls-2" d="M60,104.16H48.37l1.41-5.66a1.87,1.87,0,1,0-3.63-.91l-1.64,6.57H40a1.88,1.88,0,0,0,0,3.75H60a1.88,1.88,0,0,0,0-3.75Z"/>
  <path class="cls-2" d="M93.92,75.94a17.88,17.88,0,0,0,17.86-17.86v-4a17.86,17.86,0,0,0-35.71,0v4A17.88,17.88,0,0,0,93.92,75.94ZM79.81,54.08a14.11,14.11,0,0,1,28.22,0v4a14.11,14.11,0,0,1-28.22,0Z"/>
  <path class="cls-2" d="M117.79,84.25l-11.36-4.87a7.8,7.8,0,0,0-5.36-.29,24,24,0,0,1-14.29,0,7.8,7.8,0,0,0-5.36.29L70.06,84.25a9.85,9.85,0,0,0-6,9.07V102A5.88,5.88,0,0,0,70,107.91h48a5.88,5.88,0,0,0,5.87-5.87V93.32A9.87,9.87,0,0,0,117.79,84.25ZM120,102a2.12,2.12,0,0,1-2.12,2.12H70A2.13,2.13,0,0,1,67.82,102V93.32a6.11,6.11,0,0,1,3.71-5.62L82.9,82.83a4,4,0,0,1,1.61-.34,3.74,3.74,0,0,1,1.15.18,27.86,27.86,0,0,0,16.52,0,4,4,0,0,1,2.77.16l11.36,4.87A6.09,6.09,0,0,1,120,93.32V102Z"/>
  <path class="cls-3" d="M27.07,56.71l8-13.46a1.79,1.79,0,0,0-.68-2.48,1.91,1.91,0,0,0-2.56.67L23.29,55.8l0,0a.31.31,0,0,1-.05.1l0,.08,0,.08a.36.36,0,0,0,0,.09.24.24,0,0,1,0,.08s0,.06,0,.1,0,0,0,.07a.31.31,0,0,0,0,.1.19.19,0,0,0,0,.08v.18a.17.17,0,0,0,0,.07.31.31,0,0,0,0,.1s0,.05,0,.08,0,.06,0,.1a.14.14,0,0,1,0,.07.36.36,0,0,0,0,.09l0,.08,0,.08.05.1,0,0L31.86,72a1.91,1.91,0,0,0,2.56.67,1.79,1.79,0,0,0,.68-2.48Z"/>
  <path class="cls-3" d="M63.54,56.71l-8,13.45a1.79,1.79,0,0,0,.69,2.48A1.91,1.91,0,0,0,58.75,72l8.57-14.37,0,0,0-.1a.2.2,0,0,0,0-.08l0-.08,0-.09a.25.25,0,0,0,0-.07l0-.1s0,0,0-.08,0-.06,0-.1,0,0,0-.07v-.18s0-.06,0-.08,0-.07,0-.1,0,0,0-.07l0-.1a.24.24,0,0,0,0-.08l0-.09,0-.08,0-.08,0-.1a.08.08,0,0,0,0,0L58.75,41.44a1.91,1.91,0,0,0-2.56-.67,1.79,1.79,0,0,0-.69,2.48Z"/>
</svg>
