<svg id="Developer" xmlns="http://www.w3.org/2000/svg" viewBox="0 0 128 128">
  <defs>
    <style>
      .cls-1 {
        fill: #fff;
      }

      .cls-2 {
        fill: #a5b9c9;
      }

      .cls-3 {
        fill: #008998;
      }
    </style>
  </defs>
  <title>Icon-Sheet</title>
  <path class="cls-1" d="M90,70.75s20.25-2.5,20.75-21S92.26,25.85,82.25,30.5c0,0-7.25-13.25-22.25-13.25A25.81,25.81,0,0,0,38.25,29S17,28.25,17,51c0,0,2.91,19.15,21.5,19.75l-.5,4-4.5.5-1.83,7.9,6.08.1L42.5,95l-3,3,5.75,6,3.25-2.75L60,106.5v3l8.5.5.5-3.75L80.5,101l2.5,3,6-6-2.25-3.25,4.5-11,4.5-.75V74.75H91Z"/>
  <path class="cls-2" d="M76.71,36.06a1.87,1.87,0,0,1-1.64-1A17.4,17.4,0,0,0,59.79,26a17.15,17.15,0,0,0-5.29.82,1.87,1.87,0,0,1-2.36-1.22,1.85,1.85,0,0,1,.12-1.42,1.88,1.88,0,0,1,1.1-.93,21.19,21.19,0,0,1,25,10,1.85,1.85,0,0,1-.74,2.53,1.88,1.88,0,0,1-.9.23Z"/>
  <path class="cls-2" d="M28.79,40.69a1.87,1.87,0,0,1-1.86-2.08,1.86,1.86,0,0,1,.69-1.25,15.25,15.25,0,0,1,7.64-3.24h.24a1.87,1.87,0,0,1,.23,3.73A11.44,11.44,0,0,0,30,40.28,1.89,1.89,0,0,1,28.79,40.69Z"/>
  <path class="cls-2" d="M102.4,44.44a1.86,1.86,0,0,1-1.62-.93,11.57,11.57,0,0,0-10-5.76,1.88,1.88,0,0,1,0-3.75A15.33,15.33,0,0,1,104,41.63a1.87,1.87,0,0,1-.68,2.56A1.8,1.8,0,0,1,102.4,44.44Z"/>
  <path class="cls-2" d="M49.09,90a1.85,1.85,0,0,1-1.6-.92A20,20,0,0,1,69.75,59.77a1.83,1.83,0,0,1,1.13.85,1.79,1.79,0,0,1,.2,1.41,1.85,1.85,0,0,1-1.79,1.39,1.82,1.82,0,0,1-.46-.06A16.23,16.23,0,0,0,50.7,87.2a1.87,1.87,0,0,1,.18,1.41A1.8,1.8,0,0,1,50,89.73,1.78,1.78,0,0,1,49.09,90Z"/>
  <path class="cls-2" d="M64.76,99a20,20,0,0,1-10-2.67,1.89,1.89,0,0,1-.86-1.13,1.8,1.8,0,0,1,.19-1.4,1.85,1.85,0,0,1,2.53-.68A16.24,16.24,0,0,0,81,79.09,16.67,16.67,0,0,0,80.5,75a1.83,1.83,0,0,1,.19-1.41,1.92,1.92,0,0,1,1.14-.85,1.82,1.82,0,0,1,.46-.06,1.86,1.86,0,0,1,1.79,1.4A19.95,19.95,0,0,1,64.76,99Z"/>
  <path class="cls-2" d="M78.88,69.62a1.83,1.83,0,0,1-1.44-.69,16.23,16.23,0,0,0-2.52-2.52,1.85,1.85,0,0,1-.29-2.61,1.83,1.83,0,0,1,1.44-.69,1.81,1.81,0,0,1,1.16.41,20.13,20.13,0,0,1,3.1,3.09A1.84,1.84,0,0,1,80.72,68a1.85,1.85,0,0,1-1.84,1.65Z"/>
  <path class="cls-3" d="M62.5,112.6a4.12,4.12,0,0,1-4.11-4.11v-1.15l-.21,0a28.42,28.42,0,0,1-8.71-3.6l-.18-.11-.81.8a4.09,4.09,0,0,1-5.81,0l-3.2-3.2a4.12,4.12,0,0,1,0-5.81l.8-.81-.11-.18a28.42,28.42,0,0,1-3.6-8.71l-.05-.21H35.37a4.12,4.12,0,0,1-4.12-4.11V76.82a4.12,4.12,0,0,1,4.12-4.11h1.14l.05-.21a28.42,28.42,0,0,1,3.6-8.71l.11-.18-.8-.8a4.13,4.13,0,0,1,0-5.82l3.2-3.2a4.12,4.12,0,0,1,5.81,0l.81.8.18-.11a28.42,28.42,0,0,1,8.71-3.6l.21-.05V49.69a4.12,4.12,0,0,1,4.11-4.12H67a4.12,4.12,0,0,1,4.11,4.12v1.14l.21.05a28.42,28.42,0,0,1,8.71,3.6l.18.11.81-.8a4.12,4.12,0,0,1,5.81,0l3.2,3.2a4.1,4.1,0,0,1,0,5.81l-.8.81.11.18A28.42,28.42,0,0,1,93,72.5l0,.21h1.15a4.12,4.12,0,0,1,4.11,4.11v4.53a4.12,4.12,0,0,1-4.11,4.11H93l0,.21a28.42,28.42,0,0,1-3.6,8.71l-.11.18.8.81a4.1,4.1,0,0,1,0,5.81l-3.2,3.2a4.09,4.09,0,0,1-5.81,0l-.81-.8-.18.11a28.42,28.42,0,0,1-8.71,3.6l-.21,0v1.15A4.12,4.12,0,0,1,67,112.6ZM49.06,99.34a1.84,1.84,0,0,1,1.07.34A25,25,0,0,0,60.55,104a1.84,1.84,0,0,1,1.54,1.83v2.67a.42.42,0,0,0,.41.41H67a.42.42,0,0,0,.41-.41v-2.67A1.85,1.85,0,0,1,69,104,25,25,0,0,0,79.4,99.68a1.86,1.86,0,0,1,1.07-.34,1.83,1.83,0,0,1,1.31.54l1.89,1.88a.4.4,0,0,0,.29.12.36.36,0,0,0,.28-.12l3.2-3.19a.41.41,0,0,0,0-.58L85.56,96.1a1.84,1.84,0,0,1-.2-2.38A25,25,0,0,0,89.67,83.3a1.85,1.85,0,0,1,1.83-1.54h2.67a.42.42,0,0,0,.41-.41V76.82a.41.41,0,0,0-.41-.41H91.5a1.85,1.85,0,0,1-1.83-1.54,25,25,0,0,0-4.31-10.42,1.84,1.84,0,0,1,.2-2.38l1.88-1.89a.4.4,0,0,0,0-.57l-3.2-3.2a.38.38,0,0,0-.28-.12.41.41,0,0,0-.3.12l-1.88,1.88a1.86,1.86,0,0,1-2.38.2A25,25,0,0,0,69,54.18a1.85,1.85,0,0,1-1.54-1.83V49.69a.41.41,0,0,0-.41-.41H62.5a.41.41,0,0,0-.41.41v2.66a1.85,1.85,0,0,1-1.54,1.83,25,25,0,0,0-10.42,4.31,1.86,1.86,0,0,1-1.07.34,1.83,1.83,0,0,1-1.31-.54l-1.89-1.88a.38.38,0,0,0-.28-.12.37.37,0,0,0-.29.12l-3.2,3.2a.38.38,0,0,0-.12.28.42.42,0,0,0,.12.3L44,62.07a1.84,1.84,0,0,1,.2,2.38,25,25,0,0,0-4.31,10.42A1.85,1.85,0,0,1,38,76.41H35.37a.41.41,0,0,0-.41.41v4.53a.41.41,0,0,0,.41.41H38a1.85,1.85,0,0,1,1.83,1.54,25.07,25.07,0,0,0,4.31,10.42A1.84,1.84,0,0,1,44,96.1L42.09,98a.4.4,0,0,0,0,.57l3.2,3.2a.4.4,0,0,0,.29.12.42.42,0,0,0,.29-.12l1.88-1.88A1.83,1.83,0,0,1,49.06,99.34Z"/>
  <path class="cls-3" d="M64.77,90A10.9,10.9,0,1,1,75.66,79.09,10.91,10.91,0,0,1,64.77,90Zm0-18.09A7.2,7.2,0,1,0,72,79.09,7.21,7.21,0,0,0,64.77,71.89Z"/>
  <path class="cls-2" d="M33,70.86A22,22,0,0,1,37.1,27.3a27.82,27.82,0,0,1,46.26,1.3A22,22,0,1,1,96,70.62l-.25.06-1.45-3.51.35-.08A18.24,18.24,0,0,0,90.79,31a18,18,0,0,0-7.45,1.61,1.9,1.9,0,0,1-.77.16,1.87,1.87,0,0,1-1.64-1,24.1,24.1,0,0,0-41.31-1.6,1.85,1.85,0,0,1-1.56.85l-.46,0-.43,0a18.24,18.24,0,0,0-3.09,36.21l.34.06-1.16,3.6Z"/>
</svg>
