<svg id="Layer_1" data-name="Layer 1" xmlns="http://www.w3.org/2000/svg" viewBox="0 0 500 269.04">
  <defs>
    <style>
      .cls-1 {
        fill: none;
        stroke: #008998;
        stroke-linecap: round;
        stroke-linejoin: round;
        stroke-width: 4.14px;
        stroke-dasharray: 12.41;
      }

      .cls-2 {
        fill: #a5b9c9;
        opacity: 0.3;
      }

      .cls-3 {
        fill: #008998;
      }

      .cls-4 {
        fill: #fff;
      }
    </style>
  </defs>
  <title>GraphQL</title>
  <path class="cls-1" d="M428.39,192.33v-33s-1-19-19-19h-66"/>
  <rect class="cls-2" x="281.6" y="248.35" width="129" height="20.69" rx="10.34" ry="10.34"/>
  <path class="cls-2" d="M396.8,227.65h-103A10.37,10.37,0,0,1,304.13,238h0a10.38,10.38,0,0,1-10.35,10.35h103A10.38,10.38,0,0,1,386.46,238h0A10.37,10.37,0,0,1,396.8,227.65Z"/>
  <rect class="cls-2" x="141.79" y="206.96" width="276.09" height="20.69" rx="10.34" ry="10.34"/>
  <path class="cls-2" d="M321.69,186.26H169.92a10.38,10.38,0,0,1,10.35,10.34h0a10.38,10.38,0,0,1-10.35,10.34H321.69a10.38,10.38,0,0,1-10.35-10.34h0A10.38,10.38,0,0,1,321.69,186.26Z"/>
  <rect class="cls-2" x="1" y="165.57" width="342.63" height="20.69" rx="10.34" ry="10.34"/>
  <path class="cls-2" d="M156,82.77H370a10.38,10.38,0,0,1-10.35-10.35h0A10.37,10.37,0,0,1,370,62.08H156A10.37,10.37,0,0,1,166.3,72.42h0A10.38,10.38,0,0,1,156,82.77Z"/>
  <rect class="cls-2" x="74.95" y="82.77" width="401.8" height="20.69" rx="10.34" ry="10.34" transform="translate(551.71 186.22) rotate(-180)"/>
  <path class="cls-2" d="M132.45,124.16H412.08a10.38,10.38,0,0,1-10.35-10.34h0a10.38,10.38,0,0,1,10.35-10.35H132.45a10.38,10.38,0,0,1,10.35,10.35h0A10.37,10.37,0,0,1,132.45,124.16Z"/>
  <rect class="cls-2" x="123.01" y="124.16" width="372.98" height="20.69" rx="10.34" ry="10.34" transform="translate(619 269.01) rotate(-180)"/>
  <path class="cls-2" d="M140.5,165.55H319.86a10.38,10.38,0,0,1-10.35-10.34h0a10.38,10.38,0,0,1,10.35-10.35H140.5a10.38,10.38,0,0,1,10.34,10.35h0A10.37,10.37,0,0,1,140.5,165.55Z"/>
  <rect class="cls-2" x="113.62" y="41.39" width="276.77" height="20.69" rx="10.34" ry="10.34"/>
  <rect class="cls-2" x="173.39" width="287.81" height="20.69" rx="10.34" ry="10.34"/>
  <path class="cls-2" d="M348.41,20.69H219.91A10.38,10.38,0,0,1,230.26,31h0a10.38,10.38,0,0,1-10.35,10.35h128.5A10.38,10.38,0,0,1,338.06,31h0A10.38,10.38,0,0,1,348.41,20.69Z"/>
  <path class="cls-3" d="M214.77,203.58,201,179.77a3.91,3.91,0,0,0-6.77,0l-13.74,23.81a3.9,3.9,0,0,0,3.38,5.86h9.73v11.34a3.91,3.91,0,1,0,7.81,0V209.44h9.95A3.91,3.91,0,0,0,214.77,203.58Z"/>
  <path class="cls-3" d="M309.43,59.59l13.75,23.8a3.9,3.9,0,0,0,6.76,0l13.75-23.8a3.91,3.91,0,0,0-3.38-5.86h-9.73V42.38a3.91,3.91,0,1,0-7.82,0V53.73h-9.95A3.91,3.91,0,0,0,309.43,59.59Z"/>
  <g>
    <path d="M329.59,213.65H263.05A15.64,15.64,0,0,1,247.42,198V132.68a15.65,15.65,0,0,1,15.63-15.63h66.54a15.65,15.65,0,0,1,15.63,15.63V198A15.64,15.64,0,0,1,329.59,213.65Zm-66.54-88.78a7.82,7.82,0,0,0-7.82,7.81V198a7.82,7.82,0,0,0,7.82,7.81h66.54a7.82,7.82,0,0,0,7.82-7.81V132.68a7.82,7.82,0,0,0-7.82-7.81Z"/>
    <g>
      <path class="cls-3" d="M262.94,137.56a3.89,3.89,0,0,0,3.89,3.89H288a3.9,3.9,0,1,0,0-7.79H266.83A3.89,3.89,0,0,0,262.94,137.56Z"/>
      <path class="cls-3" d="M300.72,137.56a3.9,3.9,0,0,0,3.9,3.89h21.19a3.9,3.9,0,0,0,0-7.79H304.62A3.9,3.9,0,0,0,300.72,137.56Z"/>
    </g>
    <g>
      <path class="cls-3" d="M262.94,151.17a3.89,3.89,0,0,0,3.89,3.89H288a3.9,3.9,0,1,0,0-7.79H266.83A3.89,3.89,0,0,0,262.94,151.17Z"/>
      <path class="cls-3" d="M300.72,151.17a3.9,3.9,0,0,0,3.9,3.89h21.19a3.9,3.9,0,0,0,0-7.79H304.62A3.9,3.9,0,0,0,300.72,151.17Z"/>
    </g>
    <g>
      <path class="cls-3" d="M262.94,164.78a3.89,3.89,0,0,0,3.89,3.89H288a3.9,3.9,0,1,0,0-7.79H266.83A3.89,3.89,0,0,0,262.94,164.78Z"/>
      <path class="cls-3" d="M300.72,164.78a3.9,3.9,0,0,0,3.9,3.89h21.19a3.9,3.9,0,0,0,0-7.79H304.62A3.9,3.9,0,0,0,300.72,164.78Z"/>
    </g>
    <path class="cls-3" d="M300.72,178.39a3.9,3.9,0,0,0,3.9,3.89h21.19a3.9,3.9,0,0,0,0-7.79H304.62A3.91,3.91,0,0,0,300.72,178.39Z"/>
    <g>
      <circle class="cls-4" cx="277.73" cy="186.94" r="12.78"/>
      <path d="M277.73,182a5,5,0,1,1-5,5,5,5,0,0,1,5-5m0-7.81a12.79,12.79,0,1,0,12.78,12.78,12.79,12.79,0,0,0-12.78-12.78Z"/>
    </g>
  </g>
  <path d="M239.37,183.32h-.09a8.13,8.13,0,1,1,0-16.25h.09v-7.6h-.09a15.65,15.65,0,0,0-11.8,5.34L202.8,150.59a15.29,15.29,0,0,0,.76-4.16l35.81,0v-7.6l-37.38.05a16.41,16.41,0,0,0-1.24-2.09l37-63.56a14.38,14.38,0,0,0,1.55.09,12.81,12.81,0,0,0,1.39-.07l21.44,36.91h8.78L248,70.65a15.64,15.64,0,0,0,3.23-2.84l24.29,14a15.43,15.43,0,0,0-.71,4.6,15.62,15.62,0,0,0,12.56,15.38v8.31h7.6V101.5a15.71,15.71,0,1,0-15.54-26.17L254.6,61a15.17,15.17,0,0,0,.4-3.45,15.72,15.72,0,1,0-31,3.57L199,75.56a15.71,15.71,0,1,0-15.12,26.29v28.68a15.72,15.72,0,0,0,4,30.92A15.59,15.59,0,0,0,198.78,157L224,171.59a15.44,15.44,0,0,0-.43,3.62,15.73,15.73,0,0,0,15.72,15.71h.09Zm51.13-105a8.13,8.13,0,1,1-8.13,8.13A8.13,8.13,0,0,1,290.5,78.3ZM239.28,49.44a8.13,8.13,0,1,1-8.13,8.12A8.13,8.13,0,0,1,239.28,49.44ZM179.74,86.65a8.13,8.13,0,1,1,8.13,8.13A8.13,8.13,0,0,1,179.74,86.65Zm8.13,67.2a8.13,8.13,0,1,1,8.12-8.12A8.13,8.13,0,0,1,187.87,153.85Zm7-22.17a15.83,15.83,0,0,0-3.45-1.25V102a15.64,15.64,0,0,0,11.43-19.87L227.45,67.9a15.71,15.71,0,0,0,3,2.67Z"/>
  <path class="cls-3" d="M87.44,49.25a2.94,2.94,0,0,0,1.46-5.69A15.64,15.64,0,0,0,85,43.08,15.47,15.47,0,0,0,69.59,58.53a15.11,15.11,0,0,0,.49,3.85,2.92,2.92,0,0,0,2.84,2.2,3.1,3.1,0,0,0,.73-.09,2.93,2.93,0,0,0,2.11-3.57A9.57,9.57,0,0,1,87.44,49.25Z"/>
  <path class="cls-3" d="M96.43,52.55a3,3,0,0,0-2.11,3.58,9.6,9.6,0,0,1-9.28,12,9.68,9.68,0,0,1-2.4-.3,2.93,2.93,0,1,0-1.46,5.68,15.48,15.48,0,0,0,19.31-15,15.26,15.26,0,0,0-.49-3.87A2.93,2.93,0,0,0,96.43,52.55Z"/>
  <path d="M116.33,49.33h-4.9a27.88,27.88,0,0,0-5.23-9.07L108.64,36a6.06,6.06,0,0,0-2.21-8.28L101,24.61a6.07,6.07,0,0,0-4.6-.6,6,6,0,0,0-3.68,2.82l-2.45,4.24a27.17,27.17,0,0,0-10.48,0l-2.44-4.24a6.08,6.08,0,0,0-8.29-2.22l-5.41,3.13A6.07,6.07,0,0,0,61.44,36l2.44,4.24a28.06,28.06,0,0,0-5.23,9.07h-4.9a6.07,6.07,0,0,0-6.06,6.07v6.25a6.07,6.07,0,0,0,6.06,6.07h4.9a28.06,28.06,0,0,0,5.23,9.07L61.44,81a6.07,6.07,0,0,0,2.22,8.28l5.41,3.13a6.08,6.08,0,0,0,8.29-2.22L79.8,86a27.17,27.17,0,0,0,10.48,0l2.44,4.24A6.09,6.09,0,0,0,101,92.44l5.42-3.13A6.06,6.06,0,0,0,108.64,81l-2.44-4.24a27.88,27.88,0,0,0,5.23-9.07h4.9a6.07,6.07,0,0,0,6.06-6.07V55.4A6.07,6.07,0,0,0,116.33,49.33Zm.19,12.32a.19.19,0,0,1-.19.2h-7.08a2.93,2.93,0,0,0-2.84,2.2,22,22,0,0,1-5.89,10.23,2.93,2.93,0,0,0-.49,3.56L103.56,84a.19.19,0,0,1-.07.27l-5.42,3.13a.19.19,0,0,1-.26-.08l-3.54-6.12A2.93,2.93,0,0,0,91,79.8a21.67,21.67,0,0,1-11.81,0,2.94,2.94,0,0,0-3.33,1.36l-3.53,6.12a.2.2,0,0,1-.27.08l-5.42-3.13a.2.2,0,0,1-.07-.27l3.53-6.12a2.93,2.93,0,0,0-.49-3.56,22,22,0,0,1-5.89-10.23,2.93,2.93,0,0,0-2.84-2.2H53.75a.19.19,0,0,1-.19-.2V55.4a.19.19,0,0,1,.19-.2h7.08A2.92,2.92,0,0,0,63.67,53a22,22,0,0,1,5.89-10.23,2.93,2.93,0,0,0,.49-3.56l-3.53-6.12a.2.2,0,0,1,.07-.27L72,29.69a.17.17,0,0,1,.15,0,.17.17,0,0,1,.12.09l3.53,6.12a2.94,2.94,0,0,0,3.33,1.36,21.67,21.67,0,0,1,11.81,0,2.92,2.92,0,0,0,3.32-1.36l3.54-6.12a.21.21,0,0,1,.12-.1.17.17,0,0,1,.14,0l5.42,3.13a.19.19,0,0,1,.07.27L100,39.21a2.93,2.93,0,0,0,.49,3.56A22,22,0,0,1,106.41,53a2.93,2.93,0,0,0,2.84,2.2h7.08a.19.19,0,0,1,.19.2Z"/>
  <path class="cls-3" d="M429.83,204.53a1.75,1.75,0,0,0,.87-3.4,9.43,9.43,0,0,0-2.31-.29,9.24,9.24,0,0,0-9.24,9.24,9,9,0,0,0,.29,2.31,1.75,1.75,0,0,0,1.7,1.32,1.59,1.59,0,0,0,.43-.06,1.76,1.76,0,0,0,1.27-2.13,5.8,5.8,0,0,1-.18-1.44,5.74,5.74,0,0,1,5.73-5.73A5.8,5.8,0,0,1,429.83,204.53Z"/>
  <path class="cls-3" d="M435.21,206.51a1.76,1.76,0,0,0-1.27,2.14,5.71,5.71,0,0,1-5.55,7.17,5.66,5.66,0,0,1-1.43-.18,1.76,1.76,0,0,0-.88,3.4,9.43,9.43,0,0,0,2.31.29,9.26,9.26,0,0,0,9.25-9.25,9,9,0,0,0-.3-2.31A1.75,1.75,0,0,0,435.21,206.51Z"/>
  <path d="M447.11,204.58h-2.93a16.67,16.67,0,0,0-3.13-5.43l1.47-2.53a3.64,3.64,0,0,0-1.33-5L438,189.79a3.64,3.64,0,0,0-2.76-.36,3.6,3.6,0,0,0-2.2,1.69l-1.46,2.53a16.53,16.53,0,0,0-6.27,0l-1.47-2.53a3.57,3.57,0,0,0-2.2-1.69,3.62,3.62,0,0,0-2.75.36l-3.25,1.87a3.64,3.64,0,0,0-1.32,5l1.46,2.53a16.75,16.75,0,0,0-3.13,5.43h-2.93a3.64,3.64,0,0,0-3.63,3.63V212a3.64,3.64,0,0,0,3.63,3.63h2.93a16.64,16.64,0,0,0,3.13,5.43l-1.46,2.54a3.63,3.63,0,0,0,1.32,4.95l3.25,1.87a3.62,3.62,0,0,0,5-1.32l1.47-2.54a16.08,16.08,0,0,0,6.26,0l1.47,2.54a3.63,3.63,0,0,0,4.95,1.32l3.25-1.87a3.63,3.63,0,0,0,1.33-4.95L441.05,221a16.47,16.47,0,0,0,3.13-5.43h2.93a3.64,3.64,0,0,0,3.63-3.63v-3.74A3.64,3.64,0,0,0,447.11,204.58Zm.12,7.37a.12.12,0,0,1-.12.12h-4.23a1.75,1.75,0,0,0-1.7,1.32,13.13,13.13,0,0,1-3.53,6.12,1.76,1.76,0,0,0-.29,2.13l2.12,3.66a.12.12,0,0,1-.05.16l-3.24,1.87a.11.11,0,0,1-.16,0l-2.12-3.66a1.75,1.75,0,0,0-2-.82,12.71,12.71,0,0,1-7.06,0,1.76,1.76,0,0,0-2,.82l-2.12,3.66a.11.11,0,0,1-.16,0l-3.24-1.87a.11.11,0,0,1,0-.16l2.11-3.66a1.76,1.76,0,0,0-.29-2.13,13.13,13.13,0,0,1-3.53-6.12,1.75,1.75,0,0,0-1.7-1.32h-4.23a.12.12,0,0,1-.12-.12v-3.74a.12.12,0,0,1,.12-.12h4.23a1.76,1.76,0,0,0,1.7-1.31,13.21,13.21,0,0,1,3.53-6.13,1.76,1.76,0,0,0,.29-2.13l-2.11-3.66a.11.11,0,0,1,0-.16l3.24-1.87a.12.12,0,0,1,.09,0c.05,0,.07,0,.07.05l2.12,3.67a1.75,1.75,0,0,0,2,.81,13,13,0,0,1,7.07,0,1.74,1.74,0,0,0,2-.81l2.12-3.67a.14.14,0,0,1,.07-.05.11.11,0,0,1,.09,0l3.24,1.87a.12.12,0,0,1,.05.16l-2.12,3.66a1.76,1.76,0,0,0,.29,2.13,13.21,13.21,0,0,1,3.53,6.13,1.76,1.76,0,0,0,1.7,1.31h4.23a.12.12,0,0,1,.12.12Z"/>
  <path class="cls-1" d="M84.39,95.33v33s1,19,19,19h66"/>
</svg>
