<svg id="Layer_1" data-name="Layer 1" xmlns="http://www.w3.org/2000/svg" viewBox="0 0 500 269.04">
  <defs>
    <style>
      .cls-1 {
        fill: #a5b9c9;
        opacity: 0.3;
      }

      .cls-2, .cls-3 {
        fill: none;
        stroke: #008998;
        stroke-linecap: round;
        stroke-linejoin: round;
        stroke-width: 4.14px;
      }

      .cls-3 {
        stroke-dasharray: 12.43 12.43;
      }

      .cls-4 {
        fill: #fff;
      }

      .cls-5 {
        fill: #008998;
      }
    </style>
  </defs>
  <title>UnplugedDev.svg</title>
  <g>
    <rect class="cls-1" x="174.6" y="248.35" width="129" height="20.69" rx="10.34" ry="10.34"/>
    <path class="cls-1" d="M289.8,227.65h-103A10.37,10.37,0,0,1,197.13,238h0a10.38,10.38,0,0,1-10.35,10.35h103A10.38,10.38,0,0,1,279.46,238h0A10.37,10.37,0,0,1,289.8,227.65Z"/>
    <rect class="cls-1" x="141.79" y="206.96" width="276.09" height="20.69" rx="10.34" ry="10.34"/>
    <path class="cls-1" d="M321.69,186.26H169.92a10.38,10.38,0,0,1,10.35,10.34h0a10.38,10.38,0,0,1-10.35,10.34H321.69a10.38,10.38,0,0,1-10.35-10.34h0A10.38,10.38,0,0,1,321.69,186.26Z"/>
    <rect class="cls-1" x="40" y="165.57" width="342.63" height="20.69" rx="10.34" ry="10.34"/>
    <path class="cls-1" d="M368,144.86H154a10.38,10.38,0,0,1,10.35,10.35h0A10.38,10.38,0,0,1,154,165.55H368a10.38,10.38,0,0,1-10.35-10.34h0A10.38,10.38,0,0,1,368,144.86Z"/>
    <rect class="cls-1" x="95.19" y="124.18" width="401.8" height="20.69" rx="10.34" ry="10.34"/>
    <path class="cls-1" d="M400.49,103.47H120.86a10.38,10.38,0,0,1,10.35,10.35h0a10.37,10.37,0,0,1-10.35,10.34H400.49a10.38,10.38,0,0,1-10.35-10.34h0A10.38,10.38,0,0,1,400.49,103.47Z"/>
    <rect class="cls-1" x="74.95" y="82.78" width="372.98" height="20.69" rx="10.34" ry="10.34"/>
    <path class="cls-1" d="M412.45,62.08H233.08a10.38,10.38,0,0,1,10.35,10.34h0a10.38,10.38,0,0,1-10.35,10.35H412.45A10.38,10.38,0,0,1,402.1,72.42h0A10.38,10.38,0,0,1,412.45,62.08Z"/>
    <rect class="cls-1" x="193.62" y="41.39" width="276.77" height="20.69" rx="10.34" ry="10.34"/>
    <rect class="cls-1" x="173.39" width="287.81" height="20.69" rx="10.34" ry="10.34"/>
    <path class="cls-1" d="M348.41,20.69H219.91A10.38,10.38,0,0,1,230.26,31h0a10.38,10.38,0,0,1-10.35,10.35h128.5A10.38,10.38,0,0,1,338.06,31h0A10.38,10.38,0,0,1,348.41,20.69Z"/>
  </g>
  <g>
    <line class="cls-2" x1="139.9" y1="83.34" x2="139.9" y2="77.13"/>
    <path class="cls-3" d="M140.21,64.71c1.89-18.51,12.19-21.88,24.51-21.88h34.13A24.9,24.9,0,0,0,223.68,18V10.26"/>
    <line class="cls-2" x1="223.68" y1="4.04" x2="223.68" y2="-2.17"/>
    <g>
      <path class="cls-4" d="M150.79,82.72A10.89,10.89,0,1,1,139.9,71.84,10.89,10.89,0,0,1,150.79,82.72Z"/>
      <path class="cls-5" d="M152.23,82.72A12.34,12.34,0,1,0,139.9,95.06a12.34,12.34,0,0,0,12.33-12.34Zm-21.77,0a9.44,9.44,0,1,1,9.44,9.44,9.45,9.45,0,0,1-9.44-9.44Z"/>
    </g>
  </g>
  <path class="cls-5" d="M319.34,139.15a2.95,2.95,0,1,0,3,2.95A2.95,2.95,0,0,0,319.34,139.15Z"/>
  <path class="cls-5" d="M181.71,145a2.95,2.95,0,1,0-3-2.94A2.94,2.94,0,0,0,181.71,145Z"/>
  <path d="M72,118.54v11.78a3,3,0,0,0,3,2.94h75.57a32.51,32.51,0,0,0,31.17,23.56H191a8.84,8.84,0,0,0,17.17-2.94v-2.95h14.37a8.84,8.84,0,0,0,0-17.67H208.21V115.59h14.37a8.83,8.83,0,0,0,0-17.66H208.21V95A8.83,8.83,0,0,0,191.05,92h-9.34a32.5,32.5,0,0,0-31.16,23.56H75A2.94,2.94,0,0,0,72,118.54Zm150.56,20.61a2.95,2.95,0,0,1,0,5.89H208.21v-5.89Zm0-35.33a2.94,2.94,0,0,1,0,5.88H208.21v-5.88ZM199.38,92A2.93,2.93,0,0,1,202.32,95v58.9a2.95,2.95,0,0,1-5.89,0V95A3,3,0,0,1,199.38,92Zm-17.67,5.89h8.83v53h-8.83a26.5,26.5,0,1,1,0-53Zm-32.26,23.56c-.09,1-.13,2-.13,2.94s0,2,.13,2.94H77.91v-5.88Z"/>
  <path class="cls-5" d="M178.76,130.32a3,3,0,0,0,3,2.94,2.94,2.94,0,0,0,2.94-2.94V106.76a2.95,2.95,0,0,0-5.89,0Z"/>
  <path d="M390.41,118.54a2.94,2.94,0,0,0-2.94-2.94h-48A32.5,32.5,0,0,0,308.34,92H299a8.83,8.83,0,0,0-17.16,3v58.9A8.84,8.84,0,0,0,299,156.82h9.33a32.5,32.5,0,0,0,31.16-23.56h48a2.94,2.94,0,0,0,2.94-2.94Zm-99.73,38.28a3,3,0,0,1-2.95-2.94V95a2.95,2.95,0,0,1,5.89,0v58.9h0A2.94,2.94,0,0,1,290.68,156.82Zm17.66-5.89h-8.83v-53h8.83a26.5,26.5,0,1,1,0,53Zm32.26-23.56c.09-1,.14-2,.14-2.94s-.05-2-.14-3h43.92v5.89Z"/>
  <path class="cls-5" d="M322.29,106.76a2.95,2.95,0,1,0-5.89,0v23.56a2.95,2.95,0,0,0,5.89,0Z"/>
  <path class="cls-4" d="M92.75,105.38s-5.29,19.36-17.21,18.1-1.33-4.13-1.33-4.13l27.84,17.36s21.58-2.67,19.53,19.58-2.06,28.89-2.06,28.89,7.4,6.92-12.63,6.92H30.81s-8.9-4.67-8.46-9.56.45-30.7.45-30.7,2-12.65,11.79-16.73l24.6-10.27,3.27-8.32L50.57,104.73S39.94,96.49,40.62,94s5.31-5.31,5.31-5.31.89-31.59,24-32.92c0,0,28.56-1.27,25.4,30.06s0,2.42,0,2.42,4.18-.84,3.44,7-5.49,5.35-5.49,5.35Z"/>
  <path class="cls-5" d="M27.71,192.23a7.17,7.17,0,0,1-7.18-7.18V154.36c0-13.19,11.36-18,11.76-18.29l26.9-11.23v-5.22l-.39-.26a21.69,21.69,0,0,1-8.1-13.85l-.13-.78-.78-.13c-4.31-.52-7.58-3-8.75-6.79a9,9,0,0,1,2.61-9.66l.26-.27V81.22a27.82,27.82,0,0,1,55.63,0v6.66l.26.27a9.06,9.06,0,0,1,2.61,9.53,10.26,10.26,0,0,1-8.75,6.79l-.78.13-.13.78a20.4,20.4,0,0,1-7.57,13.45l-.4.27v5.61l27,11.23c.52.26,11.75,5,11.75,18.29v30.69a7.16,7.16,0,0,1-7.18,7.18H27.71Zm87.76-47.41a13.29,13.29,0,0,0-9.4,12.67v30.43h10.71a2.76,2.76,0,0,0,2.74-2.74v-32a15,15,0,0,0-3-8l-.39-.52Zm-75.35-7.18c-6.27,2.61-6.27,2.61-6.53,2.74l-1.57.79,1.44.91a17.54,17.54,0,0,1,9.27,15.41v30.43h58.9V157.49a17.7,17.7,0,0,1,9.14-15.41l1.57-.91-1.57-.79c-.26-.13-.26-.13-6.79-2.87l-20.11-8.36-.39.52c-5.36,6.27-8.36,10.32-10.06,12.67l-.13.13c-.39.52-.78,1.05-1,1.44-1-1.31-2.09-2.74-3.4-4.31-2.09-2.74-4.57-5.88-8-9.93l-.4-.52ZM28,145.21a15.19,15.19,0,0,0-3,9.28v30.69a2.76,2.76,0,0,0,2.74,2.74H38.42V157.49A13.44,13.44,0,0,0,29,144.82l-.65-.13Zm35.65-18.93.26.26a54.45,54.45,0,0,1,3.66,5.22,65.71,65.71,0,0,0,3.91,5.49l.79.91,8.49-12V122l-1.31.52a23.11,23.11,0,0,1-7.31,1.31,21.69,21.69,0,0,1-7.19-1.18l-1.3-.39ZM55,102.77c0,10.32,8.88,16.72,17.11,16.72a16.82,16.82,0,0,0,9.53-3,16.64,16.64,0,0,0,7.18-13.71V86.45l-.26-.26c-.39-.53-1.3-1.44-2.61-2.88l-2.74-3-.66.39A49.43,49.43,0,0,1,57.49,88H55v14.76Zm38.26-2.22,1.18-.26a5.26,5.26,0,0,0,4.31-5.09c0-2.35-1.7-4.31-4.31-5.1l-1.18-.26ZM49.52,90.23a5.54,5.54,0,0,0-4.44,5.1c0,2.35,1.7,4.31,4.31,5.09l1.18.26V90ZM72,58A23.44,23.44,0,0,0,48.61,81.35v4.44l1-.13c.27,0,.79-.13,1.05-.13h.52l.26-.39a4.16,4.16,0,0,1,2.88-1.7h2.87a43.21,43.21,0,0,0,24-7.18,4.35,4.35,0,0,1,2.09-.65,3.71,3.71,0,0,1,2.87,1.3c.92,1,2.61,2.75,2.61,2.75,2.88,3.13,4,4.31,4.31,5.22l.13.52.53.13.52.13,1,.13V81.35A23.43,23.43,0,0,0,72,58Z"/>
  <g>
    <g>
      <path class="cls-4" d="M421.75,63.74c33.07,0,59.88,27.07,59.88,60.28s-26.94,60.28-59.88,60.28S361.86,157.23,361.86,124s26.81-60.28,59.89-60.28"/>
      <path d="M422.41,178a54.29,54.29,0,1,0-54-54.29,54.28,54.28,0,0,0,54,54.29m0-5.07a49.22,49.22,0,1,1,48.95-49.22c-.13,27.08-22,49.22-48.95,49.22Z"/>
      <path d="M382.53,138.42S389.6,166,417.08,169,458.42,148,458.42,148l-7.33-4.54s-11.47,19.34-32,18.67S388.27,149.09,382.53,138.42Z"/>
      <path d="M396.94,150.16a39.77,39.77,0,0,0,22.14,7.07c19.6.67,30.94-18,31.07-18.14l.54-.93.93.53,6.94,4.27c6.4-10.4,4.8-22.14,4.8-22.14l-12.81.13s.94,18.81-21.6,29.48c-9.47,4.4-25.21,3.73-34.81-3.74A13.84,13.84,0,0,0,396.94,150.16Z"/>
      <path d="M446.29,118.29v-1.07h1.06l13.47-.14c-.53-10.4-8.53-19.6-8.53-19.6l-15.07,9.34s9.6,7.2.93,24.14c-3.07,5.86-9.47,12.27-15.47,15.07a35.62,35.62,0,0,1-12.94,3.6c.8.26,7.87,1.73,17.74-2.67C447,138.29,446.29,119.09,446.29,118.29Z"/>
    </g>
    <g>
      <path d="M436.1,62.74a2.67,2.67,0,1,0-1.23,5.19A57.33,57.33,0,0,1,479,124c0,31.77-25.66,57.62-57.21,57.62a57.33,57.33,0,0,1-55.18-42.31,2.67,2.67,0,1,0-5.15,1.39A62.67,62.67,0,0,0,421.75,187c34.49,0,62.55-28.24,62.55-62.95A62.65,62.65,0,0,0,436.1,62.74Z"/>
      <path d="M364.4,124a57.51,57.51,0,0,1,30.2-50.73,2.67,2.67,0,0,0-2.53-4.7,62.86,62.86,0,0,0-33,55.43,2.67,2.67,0,0,0,5.34,0Z"/>
      <path d="M407.21,68.27a2.44,2.44,0,0,0,.59-.07,62.13,62.13,0,0,1,13.95-1.66,2.5,2.5,0,0,0,.91-.18l.1,0h0a2.63,2.63,0,0,0,1.37-1.28s.06-.1.08-.15.05-.16.07-.24a2.56,2.56,0,0,0,.13-.79,2.67,2.67,0,0,0-1.64-2.46h0a1.39,1.39,0,0,1-.19-.06,2.82,2.82,0,0,0-.82-.14A67.5,67.5,0,0,0,406.61,63a2.67,2.67,0,0,0,.6,5.27Z"/>
    </g>
  </g>
  <g>
    <line class="cls-2" x1="352.91" y1="184.64" x2="352.91" y2="190.85"/>
    <path class="cls-3" d="M352.6,203.27c-1.89,18.52-12.19,21.89-24.51,21.89H294A24.9,24.9,0,0,0,269.13,250v7.74"/>
    <line class="cls-2" x1="269.13" y1="263.94" x2="269.13" y2="270.15"/>
    <g>
      <path class="cls-4" d="M342,185.26a10.89,10.89,0,1,1,10.89,10.89A10.9,10.9,0,0,1,342,185.26Z"/>
      <path class="cls-5" d="M340.58,185.26a12.34,12.34,0,1,0,12.33-12.34,12.35,12.35,0,0,0-12.33,12.34Zm21.77,0a9.44,9.44,0,1,1-9.44-9.44,9.44,9.44,0,0,1,9.44,9.44Z"/>
    </g>
  </g>
</svg>
