<svg id="Layer_1" data-name="Layer 1" xmlns="http://www.w3.org/2000/svg" viewBox="0 0 64 64">
  <defs>
    <style>
      .cls-1 {
        fill: #d5e0eb;
        fill-rule: evenodd;
      }
    </style>
  </defs>
  <title>Icon</title>
  <path class="cls-1" d="M32.27.05C14.88.05.77,14.51.77,32.35A32.25,32.25,0,0,0,22.32,63c1.57.29,2.15-.7,2.15-1.56s0-2.8,0-5.49c-8.77,1.95-10.61-4.33-10.61-4.33-1.44-3.73-3.5-4.73-3.5-4.73-2.86-2,.21-2,.21-2,3.17.23,4.83,3.33,4.83,3.33,2.81,4.93,7.37,3.51,9.17,2.68a6.89,6.89,0,0,1,2-4.32c-7-.81-14.35-3.58-14.35-16A12.69,12.69,0,0,1,15.42,22a11.86,11.86,0,0,1,.31-8.54s2.64-.87,8.66,3.31a29.06,29.06,0,0,1,15.77,0c6-4.18,8.66-3.31,8.66-3.31A11.92,11.92,0,0,1,49.13,22a12.64,12.64,0,0,1,3.24,8.67C52.37,43.07,45,45.8,38,46.6c1.13,1,2.13,3,2.13,6,0,4.32,0,7.8,0,8.86,0,.86.56,1.87,2.16,1.55A32.24,32.24,0,0,0,63.77,32.35c0-17.84-14.1-32.3-31.5-32.3"/>
</svg>
