<svg id="Layer_1" data-name="Layer 1" xmlns="http://www.w3.org/2000/svg" viewBox="0 0 64 64">
  <defs>
    <style>
      .cls-1 {
        fill: #d5e0eb;
        fill-rule: evenodd;
      }
    </style>
  </defs>
  <title>Icon</title>
  <path class="cls-1" d="M25.54,29.17l10.88-3.71,3.52,10.69L29.06,39.86Zm24.23,8A3.27,3.27,0,0,0,47.71,31l-4.08,1.36L40.91,24.2,45,22.85a3.27,3.27,0,0,0-2.07-6.2L38.84,18l-1.41-4.23a3.26,3.26,0,1,0-6.19,2.06l1.41,4.24L24.24,22.9l-1.41-4.24a3.27,3.27,0,0,0-6.2,2.07L18,25,14,26.32a3.26,3.26,0,0,0-2.06,4.13,3.36,3.36,0,0,0,3,2.22A2.87,2.87,0,0,0,16,32.52l4.08-1.36,2.72,8.1-4.08,1.36a3.27,3.27,0,0,0-2.07,4.13,3.36,3.36,0,0,0,3,2.22,2.82,2.82,0,0,0,1.11-.15l4.08-1.36,1.41,4.23a3.37,3.37,0,0,0,3,2.22,2.85,2.85,0,0,0,1.11-.16,3.26,3.26,0,0,0,2.06-4.13l-1.41-4.23,8.42-2.82,1.41,4.23a3.36,3.36,0,0,0,3,2.22A2.87,2.87,0,0,0,45,46.87a3.27,3.27,0,0,0,2.06-4.13l-1.41-4.23Zm10.93-14c6.5,21.65,1.46,31-20.2,37.52S9.48,62.08,3,40.42,1.52,9.4,23.18,2.9,54.2,1.44,60.7,23.1Z"/>
</svg>
