<svg id="Layer_1" data-name="Layer 1" xmlns="http://www.w3.org/2000/svg" viewBox="0 0 500 269.04">
  <defs>
    <style>
      .cls-1 {
        fill: #a5b9c9;
        opacity: 0.3;
      }

      .cls-2, .cls-3, .cls-6 {
        fill: none;
        stroke: #008998;
        stroke-linecap: round;
        stroke-linejoin: round;
        stroke-width: 4.14px;
      }

      .cls-3 {
        stroke-dasharray: 11.69 11.69;
      }

      .cls-4 {
        fill: #fff;
      }

      .cls-5 {
        fill: #008998;
      }

      .cls-6 {
        stroke-dasharray: 12.41;
      }
    </style>
  </defs>
  <title>EasyDeploy copy 2</title>
  <g>
    <rect class="cls-1" x="174.6" y="248.35" width="129" height="20.69" rx="10.34" ry="10.34"/>
    <path class="cls-1" d="M289.8,227.65h-103A10.37,10.37,0,0,1,197.13,238h0a10.38,10.38,0,0,1-10.35,10.35h103A10.38,10.38,0,0,1,279.46,238h0A10.37,10.37,0,0,1,289.8,227.65Z"/>
    <rect class="cls-1" x="141.79" y="206.96" width="276.09" height="20.69" rx="10.34" ry="10.34"/>
    <path class="cls-1" d="M321.69,186.26H169.92a10.38,10.38,0,0,1,10.35,10.34h0a10.38,10.38,0,0,1-10.35,10.34H321.69a10.38,10.38,0,0,1-10.35-10.34h0A10.38,10.38,0,0,1,321.69,186.26Z"/>
    <rect class="cls-1" x="40" y="165.57" width="342.63" height="20.69" rx="10.34" ry="10.34"/>
    <path class="cls-1" d="M368,144.86H154a10.38,10.38,0,0,1,10.35,10.35h0A10.38,10.38,0,0,1,154,165.55H368a10.38,10.38,0,0,1-10.35-10.34h0A10.38,10.38,0,0,1,368,144.86Z"/>
    <rect class="cls-1" x="95.19" y="124.18" width="401.8" height="20.69" rx="10.34" ry="10.34"/>
    <path class="cls-1" d="M400.49,103.47H120.86a10.38,10.38,0,0,1,10.35,10.35h0a10.37,10.37,0,0,1-10.35,10.34H400.49a10.38,10.38,0,0,1-10.35-10.34h0A10.38,10.38,0,0,1,400.49,103.47Z"/>
    <rect class="cls-1" x="74.95" y="82.78" width="372.98" height="20.69" rx="10.34" ry="10.34"/>
    <path class="cls-1" d="M412.45,62.08H233.08a10.38,10.38,0,0,1,10.35,10.34h0a10.38,10.38,0,0,1-10.35,10.35H412.45A10.38,10.38,0,0,1,402.1,72.42h0A10.38,10.38,0,0,1,412.45,62.08Z"/>
    <rect class="cls-1" x="193.62" y="41.39" width="276.77" height="20.69" rx="10.34" ry="10.34"/>
    <rect class="cls-1" x="173.39" width="287.81" height="20.69" rx="10.34" ry="10.34"/>
    <path class="cls-1" d="M348.41,20.69H219.91A10.38,10.38,0,0,1,230.26,31h0a10.38,10.38,0,0,1-10.35,10.35h128.5A10.38,10.38,0,0,1,338.06,31h0A10.38,10.38,0,0,1,348.41,20.69Z"/>
  </g>
  <g>
    <path class="cls-2" d="M117.24,133.61c0-1.8,0-3.86,0-6.2"/>
    <path class="cls-3" d="M117.32,115.72q0-3.41,0-7.33V74.26a24.89,24.89,0,0,1,24.82-24.82H243"/>
    <line class="cls-2" x1="248.85" y1="49.44" x2="255.06" y2="49.44"/>
    <g>
      <path class="cls-4" d="M128,133.08a10.89,10.89,0,1,1-10.81-11A10.89,10.89,0,0,1,128,133.08Z"/>
      <path class="cls-5" d="M129.48,133.09A12.34,12.34,0,1,0,117,145.33a12.36,12.36,0,0,0,12.44-12.24C129.53,126.28,129.42,139.89,129.48,133.09Zm-21.78-.17a9.44,9.44,0,1,1,9.37,9.51,9.45,9.45,0,0,1-9.37-9.51C107.74,127.71,107.66,138.12,107.7,132.92Z"/>
    </g>
  </g>
  <path d="M46.16,122.8a2.37,2.37,0,0,0,2.36-2.37V101.31c0-5.35,3.44-9.23,8.17-9.23h47.58a2.37,2.37,0,0,0,0-4.73H56.69c-7.36,0-12.9,6-12.9,14v19.12A2.37,2.37,0,0,0,46.16,122.8Z"/>
  <path d="M56.69,96.59c-2.19,0-3.66,1.9-3.66,4.72v73.12a2.38,2.38,0,0,0,.55,1.51,4.16,4.16,0,0,0,3.11,1.47H175.47a4.16,4.16,0,0,0,3.11-1.47,2.38,2.38,0,0,0,.55-1.51V162.18a2.37,2.37,0,0,0-4.74,0v10.5H57.77V101.33h47.29a2.37,2.37,0,1,0,0-4.74Z"/>
  <path d="M176.76,155.11a2.37,2.37,0,0,0,2.37-2.37V101.31c0-2.82-1.47-4.72-3.66-4.72H134.06a2.37,2.37,0,1,0,0,4.74h40.33v51.41A2.37,2.37,0,0,0,176.76,155.11Z"/>
  <path d="M192.4,187.27h-4v-86c0-8-5.54-14-12.9-14H134.42a2.37,2.37,0,1,0,0,4.73h41.05c4.73,0,8.17,3.89,8.17,9.23v86H132.43a4.51,4.51,0,0,0-4.5,4.5V194h-23.7v-2.18a4.51,4.51,0,0,0-4.51-4.5H48.52V129.9a2.37,2.37,0,1,0-4.73,0v57.37h-4a4.5,4.5,0,0,0-4.5,4.5v5.56a10.19,10.19,0,0,0,10.18,10.18H186.72a10.19,10.19,0,0,0,10.18-10.18v-5.56A4.5,4.5,0,0,0,192.4,187.27Zm-.23,10.06a5.46,5.46,0,0,1-5.45,5.45H45.44A5.46,5.46,0,0,1,40,197.33V192h59.5v2.19a4.51,4.51,0,0,0,4.5,4.5h24.18a4.51,4.51,0,0,0,4.5-4.5V192h59.5Z"/>
  <path class="cls-6" d="M210.72,50.33v78s.34,14.66,23,14.66H402.06"/>
  <path class="cls-6" d="M255.06,143v66.67s-1.34,11.67,11.66,11.67h66.67"/>
  <path d="M334,240.9a1.81,1.81,0,0,1-1.82-1.82V217.32h-.82a1.82,1.82,0,0,1-1.81-1.82v-6.58a2.11,2.11,0,0,1,1.81-2.14h10.93l-10.69-9.08h-9.14a3.67,3.67,0,0,1-3.67-3.67v-4.37a30.8,30.8,0,0,1,30.76-30.77h3.63a30.8,30.8,0,0,1,30.76,30.77V194a3.67,3.67,0,0,1-3.67,3.67h-8.62L361,206.78h10.89a2.11,2.11,0,0,1,1.81,2.14v6.58a1.82,1.82,0,0,1-1.81,1.82H371v21.76a1.82,1.82,0,0,1-1.82,1.82Zm33.4-3.63v-20h-14.1v20Zm-17.74,0v-20h-3.27a1.82,1.82,0,0,1,0-3.64h3.27v-2.94H333.17v2.94h4.37a1.82,1.82,0,1,1,0,3.64H335.8v20ZM370,213.68v-2.94H353.29v2.94Zm-14.59-6.9,10.69-9.08h-13v9.08Zm-5.71,0-.14-9.08H337.11l10.68,9.08Zm30.54-12.65a.1.1,0,0,0,.11-.1v-4.37a27.41,27.41,0,0,0-21.57-26.61,19.44,19.44,0,0,1,1.59,2.28,37.63,37.63,0,0,1,3.93,9.93,1.91,1.91,0,0,1-1.45,2.21l-.28,0a1.82,1.82,0,0,1-1.77-1.54c-2.13-8.18-5.84-13.5-9.46-13.5-2.7,0-5.47,2.89-7.62,7.93-2.38,5.6-3.69,13.09-3.69,21.08v2.66h22.61v-2.66c0-1.9-.08-3.8-.23-5.67a1.78,1.78,0,0,1,1.63-1.92h.15a1.8,1.8,0,0,1,1.78,1.63c.15,2,.24,4,.24,6v2.66Zm-36.35-31.08a27.41,27.41,0,0,0-21.56,26.61V194a.09.09,0,0,0,.1.1h14v-2.66c0-8.46,1.41-16.44,4-22.47A24.67,24.67,0,0,1,343.91,163.05Z"/>
  <path d="M405.18,150a1.78,1.78,0,0,1-1.78-1.78V128.91h-.58a1.78,1.78,0,0,1-1.78-1.78v-5.9a2,2,0,0,1,1.78-2.07h9.38L403,111.33h-8.14a3.45,3.45,0,0,1-3.44-3.44V104a27.76,27.76,0,0,1,27.72-27.73h3.25A27.75,27.75,0,0,1,450.09,104v3.92a3.44,3.44,0,0,1-3.43,3.44H439l-9.22,7.83h9.34a2,2,0,0,1,1.78,2.07v5.9a1.78,1.78,0,0,1-1.78,1.78h-.58v19.35a1.78,1.78,0,0,1-1.78,1.78ZM435,146.48V128.91H422.63v17.57Zm-15.89,0V128.91h-2.78a1.78,1.78,0,0,1,0-3.56h2.78V123H404.6v2.34h3.77a1.78,1.78,0,0,1,0,3.56H407v17.57Zm18.25-21.13V123H422.63v2.34Zm-13-6.19,9.23-7.83H422.5v7.83Zm-5.21,0-.12-7.83H408.39l9.22,7.83Zm-5.44-38.8A24.42,24.42,0,0,0,394.9,104v3.92l12.37-.06v-2.24c0-7.6,1.27-14.77,3.57-20.2A23.48,23.48,0,0,1,413.69,80.36Zm33,27.47-.07-3.86A24.41,24.41,0,0,0,427.8,80.36,19.18,19.18,0,0,1,429,82.08a33.87,33.87,0,0,1,3.53,9,1.87,1.87,0,0,1-1.42,2.17l-.27,0a1.79,1.79,0,0,1-1.74-1.5c-1.88-7.25-5.16-12-8.33-12-2.32,0-4.82,2.63-6.68,7-2.13,5-3.3,11.69-3.3,18.83v2.24h20v-2.24c0-1.71-.07-3.41-.21-5.06a1.76,1.76,0,0,1,1.6-1.89h.15a1.76,1.76,0,0,1,1.74,1.61c.14,1.76.22,3.56.22,5.35v2.24Z"/>
  <g>
    <path d="M300.39,11.24h-5.05A42.2,42.2,0,0,0,253.19,53.4v6.09a4.42,4.42,0,0,0,4.41,4.41h13l16.52,14H270c-1,0-1.83,1.27-1.83,2.28v9.17A1.83,1.83,0,0,0,270,91.23h1.84v31a1.84,1.84,0,0,0,1.83,1.84h49.05a1.84,1.84,0,0,0,1.84-1.84v-31h1.83a1.84,1.84,0,0,0,1.84-1.84V80.22c0-1-.83-2.28-1.84-2.28H309.33l16.53-14h12.27a4.42,4.42,0,0,0,4.41-4.41V53.4A42.2,42.2,0,0,0,300.39,11.24ZM256.76,59.49V53.4a38.64,38.64,0,0,1,32.61-38.12,30.77,30.77,0,0,0-6,9.61c-3.53,8.32-5.48,19.34-5.48,31v4.41H257.6A.85.85,0,0,1,256.76,59.49Zm39.43,28.07h-5.25a1.84,1.84,0,0,0,0,3.67h5.25v29.18H275.5V91.23h3.13a1.84,1.84,0,0,0,0-3.67h-6.79v-5.5h24.35Zm-3.54-9.62-16.53-14h20l.21,14Zm28.24,42.47h-21V91.23h21Zm3.67-32.85h-24.7v-5.5h24.7ZM303.8,77.94h-4.15v-14h20.68ZM339,59.49a.85.85,0,0,1-.84.84H317.88V55.92c0-2.76-.11-5.53-.33-8.24A1.79,1.79,0,1,0,314,48c.21,2.61.32,5.29.32,8v4.41H281.42V55.92c0-11.22,1.85-21.75,5.2-29.63,3.1-7.29,7.2-11.47,11.24-11.47,5.5,0,10.85,7.72,13.87,19.39a1.84,1.84,0,0,0,2.06,1.53,2,2,0,0,0,1.45-2.22,51.67,51.67,0,0,0-5.38-13.65,25.53,25.53,0,0,0-3.49-4.59A38.65,38.65,0,0,1,339,53.4Z"/>
    <path d="M314.39,37.93a1.78,1.78,0,0,0-1.57,2c.09.68.17,1.37.25,2.08a1.82,1.82,0,0,0,1.8,1.82,1.94,1.94,0,0,0,1.77-2c-.08-.79-.17-1.56-.27-2.33A1.77,1.77,0,0,0,314.39,37.93Z"/>
  </g>
</svg>
