<svg id="Developer" xmlns="http://www.w3.org/2000/svg" viewBox="0 0 128 128">
  <defs>
    <style>
      .cls-1 {
        fill: #fff;
      }

      .cls-2 {
        fill: #a5b9c9;
      }

      .cls-3 {
        fill: #008998;
      }
    </style>
  </defs>
  <title>Icon-Sheet</title>
  <path class="cls-1" d="M22,112.88s-.62,5.62,4.88,5.62h74.5s5.12,0,5.12-5.75-.12-81.5-.12-81.5l-.63-2.13-18-17.74L83.62,9.75l-52.5-.13s-9.5-1.87-9.5,6.38Z"/>
  <path class="cls-2" d="M64.15,50a14,14,0,0,1,3.54.45,1.88,1.88,0,1,0,.94-3.64,17.69,17.69,0,0,0-4.48-.57A17.93,17.93,0,0,0,48.63,73.15a1.88,1.88,0,0,0,3.26-1.89A14.16,14.16,0,0,1,64.15,50Z"/>
  <path class="cls-2" d="M79.22,58.36a1.89,1.89,0,0,0-1.36,2.29,14,14,0,0,1,.45,3.54A14.16,14.16,0,0,1,57.07,76.45a1.88,1.88,0,1,0-1.88,3.25A17.92,17.92,0,0,0,82.07,64.19a17.67,17.67,0,0,0-.57-4.47A1.87,1.87,0,0,0,79.22,58.36Z"/>
  <path class="cls-2" d="M73,53.14a14.24,14.24,0,0,1,2.2,2.19,1.85,1.85,0,0,0,1.46.71A1.89,1.89,0,0,0,78.13,53a18.27,18.27,0,0,0-2.78-2.78A1.88,1.88,0,0,0,73,53.14Z"/>
  <path class="cls-3" d="M90.21,58.3h-.82a25.35,25.35,0,0,0-3.23-7.79l.58-.58a3.89,3.89,0,0,0,0-5.5L83.91,41.6a3.91,3.91,0,0,0-5.5,0l-.58.58A25.58,25.58,0,0,0,70,39v-.83a3.88,3.88,0,0,0-3.88-3.88h-4a3.89,3.89,0,0,0-3.89,3.88V39a25.58,25.58,0,0,0-7.79,3.22l-.58-.58a3.89,3.89,0,0,0-5.49,0l-2.84,2.83a3.91,3.91,0,0,0,0,5.5l.58.58a25.58,25.58,0,0,0-3.22,7.79h-.83a3.88,3.88,0,0,0-3.88,3.88v4a3.89,3.89,0,0,0,3.88,3.89h.83a25.58,25.58,0,0,0,3.22,7.79l-.58.58a3.89,3.89,0,0,0,0,5.49l2.84,2.84a3.87,3.87,0,0,0,5.49,0l.58-.58a25.58,25.58,0,0,0,7.79,3.22v.83a3.89,3.89,0,0,0,3.89,3.88h4A3.88,3.88,0,0,0,70,90.25v-.83a25.58,25.58,0,0,0,7.79-3.22l.58.58a3.89,3.89,0,0,0,5.5,0l2.83-2.84a3.87,3.87,0,0,0,0-5.49l-.58-.58a25.35,25.35,0,0,0,3.23-7.79h.82a3.89,3.89,0,0,0,3.88-3.89v-4A3.88,3.88,0,0,0,90.21,58.3Zm.13,7.89a.13.13,0,0,1-.13.13H87.85A1.88,1.88,0,0,0,86,67.89,21.89,21.89,0,0,1,82.21,77a1.88,1.88,0,0,0,.21,2.42l1.66,1.67a.13.13,0,0,1,0,.18l-2.83,2.83a.12.12,0,0,1-.18,0L79.4,82.45a1.88,1.88,0,0,0-2.42-.2A21.84,21.84,0,0,1,67.85,86a1.87,1.87,0,0,0-1.57,1.85v2.37a.12.12,0,0,1-.12.12h-4a.12.12,0,0,1-.13-.12V87.88A1.87,1.87,0,0,0,60.45,86a21.89,21.89,0,0,1-9.13-3.78,1.88,1.88,0,0,0-2.42.2l-1.67,1.67a.11.11,0,0,1-.09,0,.12.12,0,0,1-.09,0l-2.83-2.83a.13.13,0,0,1,0-.18l1.67-1.67a1.88,1.88,0,0,0,.2-2.42,21.89,21.89,0,0,1-3.78-9.13,1.87,1.87,0,0,0-1.85-1.57H38.09a.13.13,0,0,1-.12-.13v-4a.12.12,0,0,1,.12-.12h2.37a1.87,1.87,0,0,0,1.85-1.57,21.84,21.84,0,0,1,3.78-9.13,1.88,1.88,0,0,0-.2-2.42l-1.67-1.67a.13.13,0,0,1,0-.18l2.83-2.83a.13.13,0,0,1,.18,0l1.67,1.67a1.89,1.89,0,0,0,2.42.2,21.89,21.89,0,0,1,9.13-3.78A1.88,1.88,0,0,0,62,40.5V38.13a.12.12,0,0,1,.13-.12h4a.12.12,0,0,1,.12.12V40.5a1.88,1.88,0,0,0,1.57,1.85A21.84,21.84,0,0,1,77,46.13a1.89,1.89,0,0,0,2.42-.2l1.67-1.67a.13.13,0,0,1,.18,0l2.83,2.83a.13.13,0,0,1,0,.18l-1.67,1.67a1.89,1.89,0,0,0-.2,2.42A21.84,21.84,0,0,1,86,60.49a1.88,1.88,0,0,0,1.85,1.57h2.37a.12.12,0,0,1,.12.12v4Z"/>
  <path class="cls-3" d="M54.25,64.19a9.9,9.9,0,1,0,9.9-9.9A9.91,9.91,0,0,0,54.25,64.19Zm16,0a6.14,6.14,0,1,1-6.14-6.14A6.15,6.15,0,0,1,70.29,64.19Z"/>
  <path class="cls-2" d="M23.94,20.3V14a2.13,2.13,0,0,1,2.13-2.13H83.71A4.11,4.11,0,0,1,86.63,13l16.53,16.53a4.79,4.79,0,0,1,.46.55H88.21A2.13,2.13,0,0,1,86.08,28V18a1.88,1.88,0,1,0-3.76,0V28a5.89,5.89,0,0,0,5.89,5.89h16.16v80.56a2.14,2.14,0,0,1-2.13,2.13H26.07a2.13,2.13,0,0,1-2.13-2.13V53.83a1.88,1.88,0,0,0-3.76,0v60.61a5.89,5.89,0,0,0,5.89,5.88h76.17a5.9,5.9,0,0,0,5.89-5.88V32.49a7.85,7.85,0,0,0-2.32-5.58L89.29,10.39a7.85,7.85,0,0,0-5.58-2.32H26.07A5.9,5.9,0,0,0,20.18,14V30.43a1.88,1.88,0,1,0,3.75,0Z"/>
  <path class="cls-2" d="M24,39.08a1.88,1.88,0,1,0-3.76,0v4.25a1.88,1.88,0,0,0,3.76,0Z"/>
  <path class="cls-2" d="M99.37,110.37a1.87,1.87,0,0,0-1.87-1.87H31.37v-2.12a1.87,1.87,0,1,0-3.74,0v4a1.87,1.87,0,0,0,1.87,1.88h68A1.88,1.88,0,0,0,99.37,110.37Z"/>
</svg>
