<?xml version="1.0" encoding="utf-8"?>
<!-- Generator: Adobe Illustrator 21.0.2, SVG Export Plug-In . SVG Version: 6.00 Build 0)  -->
<svg version="1.1" id="Layer_1" xmlns="http://www.w3.org/2000/svg" xmlns:xlink="http://www.w3.org/1999/xlink" x="0px" y="0px"
	 viewBox="0 0 341.2 96.3" style="enable-background:new 0 0 341.2 96.3;" xml:space="preserve">
<style type="text/css">
	.st0{display:none;}
	.st1{fill:#E11F27;}
	.st2{fill:#231F20;}
</style>
<g id="Layer_2" class="st0">
</g>
<g id="Layer_3">
	<g>
		<g>
			<g>
				<g>
					<path class="st1" d="M45.5,0.5C20.4,0.5,0.1,21,0.1,46.2s20.3,45.7,45.4,45.7s45.4-20.4,45.4-45.7C90.9,21,70.6,0.5,45.5,0.5z
						 M45.9,79.3c-18.3,0-33.2-15-33.2-33.4s14.9-33.4,33.2-33.4s33.2,15,33.2,33.4C79.1,64.4,64.3,79.3,45.9,79.3z"/>
					<path class="st1" d="M15.1,54.4c0,0,5.4,21.3,26.7,23.5c21.3,2.3,31.9-16.2,31.9-16.2L68,58.2c0,0-8.9,14.9-24.7,14.4
						S19.6,62.6,15.1,54.4z"/>
					<path class="st1" d="M26.3,66.4c4.8,3.4,10.4,5.2,17,5.4c15.1,0.5,23.9-13.9,24-14l0.4-0.7l0.7,0.4l5.3,3.3
						c4.9-8,3.7-17,3.7-17l-9.9,0.1c0,0,0.8,14.5-16.7,22.8c-7.3,3.4-19.5,2.9-26.8-2.9C24.1,63.8,24.8,64.9,26.3,66.4z"/>
					<path class="st1" d="M66.2,43.1v-0.8H67l10.4-0.1c-0.5-8-6.5-15.1-6.5-15.1l-11.6,7.2c0,0,7.4,5.5,0.7,18.6
						c-2.3,4.6-7.4,9.5-12,11.6c-5.6,2.6-10,2.8-10,2.8c0.6,0.2,6,1.3,13.7-2.1C66.7,58.6,66.2,43.7,66.2,43.1z"/>
				</g>
				<g>
					<g>
						<path class="st2" d="M165.3,22.3c0,0-0.4,19.8,0,28.7c0.1,2.4,0.1,5.2,2.1,7.9c2.1,2.8,6.4,3.1,7.4,3.1c1.6,0.1,3.3-0.1,5.3,0
							c0.3,0,1.1,0.1,1.2-0.8v-3.4c-0.2-0.6-1.2-0.5-1.8-0.5c-2.4,0.1-5.1-0.1-6.2-1.6c-0.8-1.1-1.3-2.2-1.2-3.3l0.1-8.4
							c0-3.7,0-7.1,0-10.1h5c0.3,0,0.7,0,0.9,0c0.4-0.1,0.4-0.7,0.4-0.8c0-1,0-2.1,0-3.1c0-0.1,0-0.9-1.1-0.8h-5.3
							c-0.1-1.3,0-6.8,0-6.8c0-0.6-0.1-1-0.2-1.2c-0.1-0.3-0.6-0.5-0.9-0.5C168.9,20.8,166.7,21.3,165.3,22.3z"/>
						<path class="st2" d="M151.1,30c-0.2,0.1-0.5,0.3-0.5,0.9c0,10.2,0,20.4,0,30.6c0,0,0.4,0.2,3.2,0.2s3.1-0.3,3.1-0.3
							s0.1-30.8,0-31.6c-0.1-0.6-0.2-1.3-1-1.2C154.2,29.1,152.5,29.4,151.1,30z"/>
						<path class="st2" d="M299.3,33.9c1.9,0.1,2.5-0.5,2.6-1.2c0.1-0.6,0-2.1,0-2.4c0-0.4-0.2-1-1-1.1c-0.7-0.1-1.9,0-4.2,0
							c-0.7,0-2.1-0.1-3,0.1c-8.3,1.3-7.6,8.4-7.6,8.4c0,7.9,0,15.9,0,23.8c0,0,0.4,0.2,3.2,0.2c2.8,0,3.1-0.3,3.1-0.3
							s0-12.8,0-22.1C292.6,34.6,295.9,33.7,299.3,33.9z"/>
						<path class="st2" d="M140.8,33.4c0.5-1,0.7-2.2,0.3-2.5c-1.4-1.2-5.2-1.7-6-1.7c-7.1-0.7-14.9,1.4-15.9,7.4
							c-0.9,5.9,4.1,7.9,8.5,10.1c4,2,9.4,3.1,8.5,7.4c-1,5-9.8,2.8-12.7,2.1c-1.2-0.3-2.4-1.1-3.3-1c-0.6,0.1-1.1,0.7-1.2,0.9
							c-0.5,0.9-1,1.7-0.8,3.3c0.4,1.5,5.4,2.1,5.8,2.1c14,2.1,17-3.3,17.6-4.4c5-8.5-5.9-12.7-6.5-13.1c-3.4-2.2-9.9-2.8-9-7.4
							c0.5-2.6,3.4-3,5.3-3.2c3.3-0.2,6.6,1.3,7.5,1.5C140,35,140.4,34.3,140.8,33.4z"/>
						<path class="st2" d="M209.7,47.2c1.1-0.1,2.5,0.1,3.5,0c0.6-0.1,1.4-0.7,1.3-1.9c-0.2-3.1-0.3-9.4-5.5-13.4
							c-3.7-2.8-8.3-3.1-11.9-2.6c-1.6,0.2-7.1,2-10.1,6.9c-2,3.3-2.7,8.3-2.1,12.7c1.2,9.3,9.2,12.1,9.9,12.3
							c1.2,0.5,3,0.7,4.4,0.9c2,0.2,5,0.3,7.4,0c1.4-0.2,3.1-0.2,4.3-1.2c0.3-0.2,0.5-0.9,0.4-1.6c-0.2-0.4-0.3-0.9-0.4-1.4
							c-0.6-1.5-2.4-1.1-3-1c-2.2,0.6-7.8,0.2-7.8,0.2c-1.7-0.1-3.6-0.6-4.4-1.3c-4.6-3.9-4-8.6-4-8.6L209.7,47.2z M191.7,43
							c0-0.3,0.2-3,1.5-5.4c0.1-0.2,0.3-0.4,0.4-0.7c1.2-1.8,3.2-3.4,6.3-3.5c0.1,0,0.2,0,0.2,0s0,0,0.1,0c0,0,0,0,0.1,0l0,0
							c1.5,0,2.7,0.3,3.7,0.9c1,0.6,1.7,1.3,2.3,2.2c1.9,2.8,1.9,6.5,1.9,6.5H191.7z"/>
						<path class="st2" d="M328.6,47.2c1.1-0.1,2.5,0.1,3.5,0c0.6-0.1,1.5-0.7,1.4-1.9c-0.3-3.1-0.3-9.4-5.5-13.4
							c-3.7-2.8-8.3-3.1-11.9-2.6c-1.6,0.2-7.1,2-10.1,6.9c-2,3.3-2.7,8.3-2.1,12.7c1.2,9.3,9.2,12.1,9.9,12.3
							c1.2,0.5,2.9,0.7,4.4,0.9c2,0.2,5,0.3,7.4,0c1.4-0.2,3.1-0.2,4.3-1.2c0.3-0.2,0.4-0.9,0.4-1.6c-0.2-0.4-0.3-0.9-0.4-1.4
							c-0.6-1.5-2.4-1.1-3-1c-2.2,0.6-7.8,0.2-7.8,0.2c-1.7-0.1-3.6-0.6-4.4-1.3c-4.6-3.9-4-8.6-4-8.6L328.6,47.2z M310.6,43
							c0-0.3,0.2-3,1.5-5.4c0.1-0.2,0.3-0.4,0.4-0.7c1.2-1.8,3.2-3.4,6.3-3.5c0.1,0,0.2,0,0.2,0s0,0,0.1,0l0,0l0,0
							c1.5,0,2.7,0.3,3.7,0.9c1,0.6,1.7,1.3,2.3,2.2C327,39.3,327,43,327,43H310.6z"/>
						<g>
							<g>
								<path class="st2" d="M277.9,37.8c-2.7-5.3-8.1-8.9-14.3-8.9c-6.6,0-12.1,3.9-14.5,9.7c-0.9,2-1.2,4.4-1.2,6.7
									c0,2.9,0.3,5.7,1.6,8.1c2.8,5,8,8.4,14.1,8.4c6.3,0,11.8-3.3,14.5-8.7c1.1-2.2,1.4-4.8,1.4-7.4
									C279.4,43,279,40.1,277.9,37.8z M270.3,54.3c-1.6,2.3-4.4,3.6-6.9,3.6c-2,0-4.4-0.9-5.9-2.5c-2.1-2.2-3-5.7-3-9.7
									c0-4.2,0.9-7.2,3-9.6c1.4-1.6,4-2.6,5.8-2.6c2.7,0,5.2,0.8,7.3,4.1c1.3,2.1,1.6,5.1,1.6,8.1
									C272.3,49.1,271.9,52.1,270.3,54.3z"/>
							</g>
						</g>
						<path class="st2" d="M229.8,35.9c0,0-2.8,2.1-3.2,8s1.9,11.9,6.3,12.9c4.4,1,7.2-0.2,7.2-0.2s0.2-0.1,0.4-0.2
							c0.8-0.2,2.1-0.7,2.9,0.4c0.3,0.5,0.9,1.7,0.9,2.5c0,1-0.6,1.6-1.9,2c-3,1.1-11,1.7-17.4-2.6s-7.7-17.2-2.8-23
							s11-7.6,18.9-5.9l1.9,0.8c0,0,1.5,0.4,0.4,2.3s-1.4,2.1-3.5,1.5C237.9,33.8,232.6,33,229.8,35.9z"/>
					</g>
					<g>
						<path class="st2" d="M337.6,31.4c-1,0-1.8-0.4-2.5-1.1s-1.1-1.6-1.1-2.6s0.4-1.9,1.1-2.6s1.6-1.1,2.6-1.1s1.9,0.4,2.6,1.1
							s1.1,1.6,1.1,2.6s-0.4,1.9-1.1,2.6C339.5,31.1,338.7,31.4,337.6,31.4z M337.6,30.6c0.8,0,1.5-0.3,2-0.8c0.6-0.6,0.8-1.2,0.8-2
							s-0.3-1.4-0.8-2c-0.6-0.6-1.2-0.8-2-0.8s-1.4,0.3-2,0.8c-0.6,0.6-0.8,1.2-0.8,2s0.3,1.4,0.8,2
							C336.2,30.3,336.9,30.6,337.6,30.6z M337,30h-0.7c0,0-0.1,0-0.1-0.1v-4.3h1.3c1.1,0,1.6,0.5,1.6,1.3c0,0.5-0.2,0.8-0.8,1.1
							l1,1.8v0.1h-0.8c0,0-0.1,0-0.1-0.1l-0.9-1.7H337V30L337,30z M337,27.6h0.4c0.6,0,0.9-0.2,0.9-0.8c0-0.4-0.3-0.6-0.8-0.6H337
							V27.6z"/>
					</g>
				</g>
			</g>
			<g>
				<path class="st2" d="M126.5,91c-5.1,0-8.2-4-8.2-8.6s3-8.7,8.2-8.7c5.1,0,8.2,4,8.2,8.6C134.6,87,131.6,91,126.5,91z
					 M126.5,75.4c-4,0-6.2,3.2-6.2,7s2.1,7,6.1,7c4,0,6.2-3.2,6.2-7C132.6,78.7,130.4,75.4,126.5,75.4z"/>
				<path class="st2" d="M149.8,90.7h-1.7l-3-9.3H145l-3,9.3h-1.7l-3.6-12h2l2.6,9.1l0,0l2.8-9.1h1.8l2.8,9.1h0.1l2.6-9.1h1.9
					L149.8,90.7z"/>
				<path class="st2" d="M164,90.7v-8.2c0-1.5-0.5-2.5-2.1-2.5c-1.4,0-2.6,1-3.5,2.2v8.5h-1.8v-12h1.8v1.7c1.1-1.4,2.4-2,3.9-2
					c2.5,0,3.5,1.7,3.5,3.8v8.6L164,90.7L164,90.7z"/>
				<path class="st2" d="M180,91c-2,0-3-1.2-3-3.2v-7.7h-2v-1.5h2v-3.4h1.8v3.4h3v1.5h-3v7.5c0,1.2,0.4,1.8,1.4,1.8
					c0.8,0,1.4-0.4,1.6-0.5l0.7,1.4C182.2,90.5,181.3,91,180,91z"/>
				<path class="st2" d="M193,90.7v-8.2c0-1.5-0.5-2.5-2.1-2.5c-1.9,0-3.2,1.9-3.5,2.2v8.5h-1.8v-18h1.8v7.7c0.5-0.7,1.8-2,3.9-2
					c2.5,0,3.5,1.7,3.5,3.8v8.6L193,90.7L193,90.7z"/>
				<path class="st2" d="M204.1,89.5c1.7,0,2.8-0.7,3.3-1.1l0.8,1.4c-0.6,0.4-2,1.2-4.1,1.2c-3.8,0-5.7-2.8-5.7-6.4
					c0-3.5,2.2-6.2,5.4-6.2s5,2.5,4.7,6.3h-8.1C200.3,87.2,201.4,89.5,204.1,89.5z M206.6,83.2c-0.1-1.7-0.8-3.2-2.9-3.2
					c-1.9,0-3,1.4-3.3,3.2H206.6z"/>
				<path class="st2" d="M223,89.5c1.7,0,2.8-0.7,3.3-1.1l0.8,1.4c-0.6,0.4-2,1.2-4.1,1.2c-3.8,0-5.7-2.8-5.7-6.4
					c0-3.5,2.2-6.2,5.4-6.2s5,2.5,4.7,6.3h-8.1C219.3,87.2,220.3,89.5,223,89.5z M225.5,83.2c-0.1-1.7-0.8-3.2-2.9-3.2
					c-1.9,0-3,1.4-3.3,3.2H225.5z"/>
				<path class="st2" d="M229.8,78.7h2.1c0,0,2.8,4.1,2.9,4.3l2.7-4.3h1.9l-3.8,5.6l4.4,6.4h-2l-3.4-5l-3.1,5h-1.9l4.2-6.3
					L229.8,78.7z"/>
				<path class="st2" d="M248.1,91c-1.7,0-2.6-0.7-3.1-1.1v6.2h-1.8V78.7h1.8V80c0.6-0.8,1.8-1.6,3.5-1.6c2.9,0,4.9,2.3,4.9,6.3
					C253.4,88.5,251.2,91,248.1,91z M248.1,80.1c-1.7,0-2.8,1.2-3.1,1.7v6.6c0.6,0.5,1.4,1.1,2.9,1.1c2.3,0,3.5-2,3.5-4.7
					S250.4,80.1,248.1,80.1z"/>
				<path class="st2" d="M261.6,89.5c1.7,0,2.8-0.7,3.3-1.1l0.8,1.4c-0.6,0.4-2,1.2-4.1,1.2c-3.8,0-5.7-2.8-5.7-6.4
					c0-3.5,2.2-6.2,5.4-6.2s5,2.5,4.7,6.3h-8.1C257.9,87.2,258.9,89.5,261.6,89.5z M264.1,83.2c-0.1-1.7-0.8-3.2-2.9-3.2
					c-1.9,0-3,1.4-3.3,3.2H264.1z"/>
				<path class="st2" d="M275.6,80.4c-0.1-0.1-0.4-0.2-1.1-0.2c-1.8,0-2.8,2.1-3,2.5v8.1h-1.8v-12h1.8v1.9c0.5-0.8,1.5-2.2,3.2-2.2
					c0.7,0,1.1,0.2,1.3,0.3L275.6,80.4z"/>
				<path class="st2" d="M281.3,75.1c0,0.8-0.6,1.4-1.4,1.4s-1.4-0.6-1.4-1.4s0.6-1.4,1.4-1.4C280.7,73.7,281.3,74.3,281.3,75.1z
					 M279,90.7v-12h1.9v12H279z"/>
				<path class="st2" d="M290.3,89.5c1.7,0,2.8-0.7,3.3-1.1l0.8,1.4c-0.6,0.4-2,1.2-4.1,1.2c-3.8,0-5.7-2.8-5.7-6.4
					c0-3.5,2.2-6.2,5.4-6.2c3.2,0,5,2.5,4.7,6.3h-8.1C286.6,87.2,287.6,89.5,290.3,89.5z M292.8,83.2c-0.1-1.7-0.8-3.2-2.9-3.2
					c-1.9,0-3,1.4-3.3,3.2H292.8z"/>
				<path class="st2" d="M305.9,90.7v-8.2c0-1.5-0.5-2.5-2.1-2.5c-1.4,0-2.6,1-3.5,2.2v8.5h-1.8v-12h1.8v1.7c1.1-1.4,2.4-2,3.9-2
					c2.5,0,3.5,1.7,3.5,3.8v8.6L305.9,90.7L305.9,90.7z"/>
				<path class="st2" d="M316.6,91c-3.6,0-5.5-3-5.5-6.3c0-4.1,2.6-6.3,5.5-6.3c2,0,3.1,0.8,3.7,1.2l-0.9,1.4c-0.6-0.5-1.4-1-2.8-1
					c-2.5,0-3.6,2.1-3.6,4.7s1.1,4.8,3.6,4.8c1.5,0,2.6-0.7,2.9-1l0.8,1.4C319.9,90.2,318.7,91,316.6,91z"/>
				<path class="st2" d="M328.4,89.5c1.7,0,2.8-0.7,3.3-1.1l0.8,1.4c-0.6,0.4-2,1.2-4.1,1.2c-3.8,0-5.7-2.8-5.7-6.4
					c0-3.5,2.2-6.2,5.4-6.2c3.2,0,5,2.5,4.7,6.3h-8.1C324.7,87.2,325.7,89.5,328.4,89.5z M330.9,83.2c-0.1-1.7-0.8-3.2-2.9-3.2
					c-1.9,0-3,1.4-3.3,3.2H330.9z"/>
			</g>
		</g>
	</g>
</g>
<g>
	<path class="st2" d="M337.6,78.4c-1,0-1.8-0.4-2.5-1.1c-0.7-0.7-1.1-1.6-1.1-2.6s0.4-1.9,1.1-2.6s1.6-1.1,2.6-1.1s1.9,0.4,2.6,1.1
		s1.1,1.6,1.1,2.6s-0.4,1.9-1.1,2.6C339.5,78.1,338.7,78.4,337.6,78.4z M337.6,77.6c0.8,0,1.5-0.3,2-0.8c0.6-0.6,0.8-1.2,0.8-2
		c0-0.8-0.3-1.4-0.8-2c-0.6-0.6-1.2-0.8-2-0.8s-1.4,0.3-2,0.8c-0.6,0.6-0.8,1.2-0.8,2c0,0.8,0.3,1.4,0.8,2
		C336.2,77.3,336.9,77.6,337.6,77.6z M337,77h-0.7c0,0-0.1,0-0.1-0.1v-4.3h1.3c1.1,0,1.6,0.5,1.6,1.3c0,0.5-0.2,0.8-0.8,1.1l1,1.8
		v0.1h-0.8c0,0-0.1,0-0.1-0.1l-0.9-1.7H337V77L337,77z M337,74.6h0.4c0.6,0,0.9-0.2,0.9-0.8c0-0.4-0.3-0.6-0.8-0.6H337V74.6z"/>
</g>
</svg>
